{
.appVersion = "1169";
copyright = "Copyright 2018 Google Inc. All Rights Reserved.";
customParameters = (
{
name = glyphOrder;
value = (
.notdef,
NULL,
CR,
space,
uni00A0,
uni060C,
uni061B,
uni061F,
uni0780,
uni0781,
uni0782,
uni0783,
uni0784,
uni0785,
uni0786,
uni0787,
uni0788,
uni0789,
uni078A,
uni078B,
uni078C,
uni078D,
uni078E,
uni078F,
uni0790,
uni0791,
uni0792,
uni0793,
uni0794,
uni0795,
uni0796,
uni0797,
uni0798,
uni0799,
uni079A,
uni079B,
uni079C,
uni079D,
uni079E,
uni079F,
uni07A0,
uni07A1,
uni07A2,
uni07A3,
uni07A4,
uni07A5,
uni07A6,
uni07A7,
uni07A8,
uni07A9,
uni07AA,
uni07AB,
uni07AC,
uni07AD,
uni07AE,
uni07AF,
uni07B0,
uni07B1,
quoteleft,
quoteright,
quotedblleft,
quotedblright,
uni25CC,
uniFDF2,
semicolon,
colon,
exclam,
uni0660,
uni0661,
uni0662,
uni0663,
uni0664,
uni0665,
uni0666,
uni0667,
uni0668,
uni0669,
uniFDF2.alt,
uniFDFD,
uni066A,
uni066B,
uni066C,
uni200B,
uni200C,
uni200D,
uni200E,
uni200F,
percent,
parenleft,
parenright,
comma,
period
);
},
{
name = description;
value = "Designed by Monotype design team.";
},
{
name = trademark;
value = "Noto is a trademark of Google Inc.";
},
{
name = vendorID;
value = GOOG;
},
{
name = fsType;
value = (
);
},
{
name = licenseURL;
value = "http://scripts.sil.org/OFL";
},
{
name = versionString;
value = "Version 2.000";
},
{
name = "Has WWS Names";
value = 1;
},
{
name = unicodeRanges;
value = (
0,
1,
13,
31,
45,
63,
72
);
},
{
name = license;
value = "This Font Software is licensed under the SIL Open Font License, Version 1.1. This Font Software is distributed on an \"AS IS\" BASIS, WITHOUT WARRANTIES OR CONDITIONS OF ANY KIND, either express or implied. See the SIL Open Font License for the specific language, permissions and limitations governing your use of this Font Software.";
},
{
name = "Don't use Production Names";
value = 1;
},
{
name = Axes;
value = (
{
Name = Weight;
Tag = wght;
}
);
}
);
date = "2000-11-29 09:51:19 +0000";
designer = "Monotype Design Team";

glyphs = (
{
glyphname = .notdef;
lastChange = "2018-10-11 13:35:27 +0000";
layers = (
{
layerId = "C1B76EF4-5E0A-4C02-BFBB-E14F816E0475";
paths = (
{
closed = 1;
nodes = (
"505 0 LINE",
"505 714 LINE",
"94 714 LINE",
"94 0 LINE"
);
},
{
closed = 1;
nodes = (
"145 663 LINE",
"454 663 LINE",
"454 51 LINE",
"145 51 LINE"
);
}
);
width = 600;
},
{
layerId = UUID0;
paths = (
{
closed = 1;
nodes = (
"505 0 LINE",
"505 714 LINE",
"94 714 LINE",
"94 0 LINE"
);
},
{
closed = 1;
nodes = (
"145 663 LINE",
"454 663 LINE",
"454 51 LINE",
"145 51 LINE"
);
}
);
width = 600;
},
{
layerId = "20DCAE03-7ADA-4AB6-8D13-19ECCD31BD40";
paths = (
{
closed = 1;
nodes = (
"505 0 LINE",
"505 714 LINE",
"94 714 LINE",
"94 0 LINE"
);
},
{
closed = 1;
nodes = (
"145 663 LINE",
"454 663 LINE",
"454 51 LINE",
"145 51 LINE"
);
}
);
width = 600;
},
{
layerId = "474759B3-6A21-45C1-BBBC-641F1925F03A";
paths = (
{
closed = 1;
nodes = (
"505 0 LINE",
"505 714 LINE",
"94 714 LINE",
"94 0 LINE"
);
},
{
closed = 1;
nodes = (
"145 663 LINE",
"454 663 LINE",
"454 51 LINE",
"145 51 LINE"
);
}
);
width = 600;
}
);
category = Letter;
},
{
glyphname = uni060C;
lastChange = "2018-10-11 13:35:27 +0000";
layers = (
{
layerId = UUID0;
paths = (
{
closed = 1;
nodes = (
"201 -10 OFFCURVE",
"242 31 OFFCURVE",
"242 73 CURVE SMOOTH",
"242 104 OFFCURVE",
"219 130 OFFCURVE",
"186 132 CURVE",
"199 164 OFFCURVE",
"223 187 OFFCURVE",
"245 208 CURVE SMOOTH",
"254 217 OFFCURVE",
"259 222 OFFCURVE",
"259 233 CURVE SMOOTH",
"259 237 OFFCURVE",
"257 255 OFFCURVE",
"235 255 CURVE SMOOTH",
"221 255 OFFCURVE",
"205 242 OFFCURVE",
"192 231 CURVE SMOOTH",
"162 207 OFFCURVE",
"91 114 OFFCURVE",
"91 60 CURVE SMOOTH",
"91 14 OFFCURVE",
"120 -10 OFFCURVE",
"155 -10 CURVE SMOOTH"
);
}
);
width = 364;
},
{
layerId = "20DCAE03-7ADA-4AB6-8D13-19ECCD31BD40";
paths = (
{
closed = 1;
nodes = (
"214 -8 OFFCURVE",
"263 26 OFFCURVE",
"263 78 CURVE SMOOTH",
"263 110 OFFCURVE",
"243 138 OFFCURVE",
"211 146 CURVE",
"219 160 OFFCURVE",
"230 169 OFFCURVE",
"271 215 CURVE SMOOTH",
"278 223 OFFCURVE",
"281 231 OFFCURVE",
"281 241 CURVE SMOOTH",
"281 256 OFFCURVE",
"268 272 OFFCURVE",
"246 272 CURVE SMOOTH",
"230 272 OFFCURVE",
"209 259 OFFCURVE",
"185 233 CURVE SMOOTH",
"151 197 OFFCURVE",
"91 119 OFFCURVE",
"91 64 CURVE SMOOTH",
"91 16 OFFCURVE",
"121 -8 OFFCURVE",
"166 -8 CURVE SMOOTH"
);
}
);
width = 386;
},
{
layerId = "474759B3-6A21-45C1-BBBC-641F1925F03A";
paths = (
{
closed = 1;
nodes = (
"149 -9 OFFCURVE",
"166 6 OFFCURVE",
"166 24 CURVE SMOOTH",
"166 39 OFFCURVE",
"150 51 OFFCURVE",
"127 56 CURVE",
"139 93 OFFCURVE",
"161 125 OFFCURVE",
"169 135 CURVE SMOOTH",
"176 144 OFFCURVE",
"179 148 OFFCURVE",
"179 152 CURVE SMOOTH",
"179 155 OFFCURVE",
"175 157 OFFCURVE",
"172 157 CURVE SMOOTH",
"165 157 OFFCURVE",
"154 148 OFFCURVE",
"138 125 CURVE SMOOTH",
"128 110 OFFCURVE",
"91 53 OFFCURVE",
"91 24 CURVE SMOOTH",
"91 -1 OFFCURVE",
"104 -9 OFFCURVE",
"127 -9 CURVE SMOOTH"
);
}
);
width = 284;
},
{
layerId = "C1B76EF4-5E0A-4C02-BFBB-E14F816E0475";
paths = (
{
closed = 1;
nodes = (
"232 -8 OFFCURVE",
"291 32 OFFCURVE",
"291 93 CURVE SMOOTH",
"291 130 OFFCURVE",
"270 163 OFFCURVE",
"235 172 CURVE",
"245 180 OFFCURVE",
"260 193 OFFCURVE",
"300 238 CURVE SMOOTH",
"307 246 OFFCURVE",
"310 254 OFFCURVE",
"310 266 CURVE SMOOTH",
"310 286 OFFCURVE",
"295 305 OFFCURVE",
"267 305 CURVE SMOOTH",
"249 305 OFFCURVE",
"225 291 OFFCURVE",
"199 264 CURVE SMOOTH",
"158 222 OFFCURVE",
"91 138 OFFCURVE",
"91 75 CURVE SMOOTH",
"91 21 OFFCURVE",
"125 -8 OFFCURVE",
"177 -8 CURVE SMOOTH"
);
}
);
width = 415;
}
);
unicode = 060C;
category = Letter;
},
{
glyphname = uni061B;
lastChange = "2018-10-11 13:35:27 +0000";
layers = (
{
layerId = UUID0;
paths = (
{
closed = 1;
nodes = (
"218 241 OFFCURVE",
"259 282 OFFCURVE",
"259 324 CURVE SMOOTH",
"259 355 OFFCURVE",
"236 381 OFFCURVE",
"203 383 CURVE",
"216 415 OFFCURVE",
"240 438 OFFCURVE",
"262 458 CURVE SMOOTH",
"272 468 OFFCURVE",
"276 473 OFFCURVE",
"276 484 CURVE SMOOTH",
"276 488 OFFCURVE",
"274 506 OFFCURVE",
"252 506 CURVE SMOOTH",
"238 506 OFFCURVE",
"221 492 OFFCURVE",
"209 482 CURVE SMOOTH",
"179 458 OFFCURVE",
"108 365 OFFCURVE",
"108 311 CURVE SMOOTH",
"108 265 OFFCURVE",
"137 241 OFFCURVE",
"172 241 CURVE SMOOTH"
);
},
{
closed = 1;
nodes = (
"189 -10 OFFCURVE",
"231 33 OFFCURVE",
"231 78 CURVE SMOOTH",
"231 111 OFFCURVE",
"206 140 OFFCURVE",
"168 140 CURVE SMOOTH",
"119 140 OFFCURVE",
"79 95 OFFCURVE",
"79 50 CURVE SMOOTH",
"79 15 OFFCURVE",
"103 -10 OFFCURVE",
"141 -10 CURVE SMOOTH"
);
}
);
width = 364;
},
{
layerId = "20DCAE03-7ADA-4AB6-8D13-19ECCD31BD40";
paths = (
{
closed = 1;
nodes = (
"250 279 OFFCURVE",
"299 313 OFFCURVE",
"299 365 CURVE SMOOTH",
"299 397 OFFCURVE",
"279 425 OFFCURVE",
"247 433 CURVE",
"255 447 OFFCURVE",
"266 456 OFFCURVE",
"307 502 CURVE SMOOTH",
"314 510 OFFCURVE",
"317 518 OFFCURVE",
"317 528 CURVE SMOOTH",
"317 543 OFFCURVE",
"304 559 OFFCURVE",
"282 559 CURVE SMOOTH",
"266 559 OFFCURVE",
"245 546 OFFCURVE",
"221 520 CURVE SMOOTH",
"187 484 OFFCURVE",
"127 406 OFFCURVE",
"127 351 CURVE SMOOTH",
"127 303 OFFCURVE",
"157 279 OFFCURVE",
"202 279 CURVE SMOOTH"
);
},
{
closed = 1;
nodes = (
"197 -10 OFFCURVE",
"247 31 OFFCURVE",
"247 82 CURVE SMOOTH",
"247 123 OFFCURVE",
"214 149 OFFCURVE",
"173 149 CURVE SMOOTH",
"123 149 OFFCURVE",
"74 109 OFFCURVE",
"74 58 CURVE SMOOTH",
"74 17 OFFCURVE",
"102 -10 OFFCURVE",
"145 -10 CURVE SMOOTH"
);
}
);
width = 382;
},
{
layerId = "474759B3-6A21-45C1-BBBC-641F1925F03A";
paths = (
{
closed = 1;
nodes = (
"221 263 OFFCURVE",
"237 278 OFFCURVE",
"237 296 CURVE SMOOTH",
"237 311 OFFCURVE",
"221 323 OFFCURVE",
"198 328 CURVE",
"210 365 OFFCURVE",
"232 397 OFFCURVE",
"240 407 CURVE SMOOTH",
"247 416 OFFCURVE",
"250 420 OFFCURVE",
"250 424 CURVE SMOOTH",
"250 427 OFFCURVE",
"246 429 OFFCURVE",
"243 429 CURVE SMOOTH",
"236 429 OFFCURVE",
"225 420 OFFCURVE",
"209 397 CURVE SMOOTH",
"199 382 OFFCURVE",
"162 325 OFFCURVE",
"162 296 CURVE SMOOTH",
"162 271 OFFCURVE",
"176 263 OFFCURVE",
"198 263 CURVE SMOOTH"
);
},
{
closed = 1;
nodes = (
"189 -4 OFFCURVE",
"208 13 OFFCURVE",
"208 31 CURVE SMOOTH",
"208 47 OFFCURVE",
"197 60 OFFCURVE",
"171 60 CURVE SMOOTH",
"144 60 OFFCURVE",
"124 42 OFFCURVE",
"124 23 CURVE SMOOTH",
"124 7 OFFCURVE",
"138 -4 OFFCURVE",
"162 -4 CURVE SMOOTH"
);
}
);
width = 364;
},
{
layerId = "C1B76EF4-5E0A-4C02-BFBB-E14F816E0475";
paths = (
{
closed = 1;
nodes = (
"258 284 OFFCURVE",
"317 323 OFFCURVE",
"317 385 CURVE SMOOTH",
"317 422 OFFCURVE",
"296 454 OFFCURVE",
"261 463 CURVE",
"270 470 OFFCURVE",
"282 481 OFFCURVE",
"326 529 CURVE SMOOTH",
"333 537 OFFCURVE",
"336 546 OFFCURVE",
"336 558 CURVE SMOOTH",
"336 576 OFFCURVE",
"321 596 OFFCURVE",
"293 596 CURVE SMOOTH",
"275 596 OFFCURVE",
"250 583 OFFCURVE",
"224 555 CURVE SMOOTH",
"184 513 OFFCURVE",
"117 429 OFFCURVE",
"117 367 CURVE SMOOTH",
"117 312 OFFCURVE",
"151 284 OFFCURVE",
"203 284 CURVE SMOOTH"
);
},
{
closed = 1;
nodes = (
"199 -12 OFFCURVE",
"258 36 OFFCURVE",
"258 97 CURVE SMOOTH",
"258 145 OFFCURVE",
"219 174 OFFCURVE",
"174 174 CURVE SMOOTH",
"117 174 OFFCURVE",
"60 128 OFFCURVE",
"60 68 CURVE SMOOTH",
"60 20 OFFCURVE",
"92 -12 OFFCURVE",
"140 -12 CURVE SMOOTH"
);
}
);
width = 387;
}
);
unicode = 061B;
category = Letter;
},
{
glyphname = uni061F;
lastChange = "2018-10-11 13:35:27 +0000";
layers = (
{
layerId = UUID0;
paths = (
{
closed = 1;
nodes = (
"236 211 OFFCURVE",
"255 219 OFFCURVE",
"269 236 CURVE SMOOTH",
"287 258 OFFCURVE",
"296 282 OFFCURVE",
"296 319 CURVE SMOOTH",
"296 364 OFFCURVE",
"272 399 OFFCURVE",
"248 434 CURVE SMOOTH",
"229 462 OFFCURVE",
"210 492 OFFCURVE",
"210 526 CURVE SMOOTH",
"210 594 OFFCURVE",
"269 632 OFFCURVE",
"335 632 CURVE SMOOTH",
"362 632 OFFCURVE",
"385 619 OFFCURVE",
"405 606 CURVE SMOOTH",
"426 592 OFFCURVE",
"444 579 OFFCURVE",
"461 579 CURVE SMOOTH",
"479 579 OFFCURVE",
"512 607 OFFCURVE",
"512 635 CURVE SMOOTH",
"512 644 OFFCURVE",
"510 656 OFFCURVE",
"490 673 CURVE SMOOTH",
"457 702 OFFCURVE",
"411 714 OFFCURVE",
"349 714 CURVE SMOOTH",
"217 714 OFFCURVE",
"128 621 OFFCURVE",
"128 525 CURVE SMOOTH",
"128 477 OFFCURVE",
"145 441 OFFCURVE",
"162 414 CURVE SMOOTH",
"183 381 OFFCURVE",
"202 351 OFFCURVE",
"202 325 CURVE SMOOTH",
"202 301 OFFCURVE",
"193 283 OFFCURVE",
"185 267 CURVE SMOOTH",
"179 255 OFFCURVE",
"174 243 OFFCURVE",
"174 230 CURVE SMOOTH",
"174 212 OFFCURVE",
"203 211 OFFCURVE",
"219 211 CURVE SMOOTH"
);
},
{
closed = 1;
nodes = (
"208 -10 OFFCURVE",
"250 33 OFFCURVE",
"250 78 CURVE SMOOTH",
"250 111 OFFCURVE",
"226 140 OFFCURVE",
"188 140 CURVE SMOOTH",
"139 140 OFFCURVE",
"99 95 OFFCURVE",
"99 50 CURVE SMOOTH",
"99 15 OFFCURVE",
"123 -10 OFFCURVE",
"160 -10 CURVE SMOOTH"
);
}
);
width = 479;
},
{
layerId = "20DCAE03-7ADA-4AB6-8D13-19ECCD31BD40";
paths = (
{
closed = 1;
nodes = (
"236 211 OFFCURVE",
"255 219 OFFCURVE",
"269 236 CURVE SMOOTH",
"294 266 OFFCURVE",
"306 297 OFFCURVE",
"306 334 CURVE SMOOTH",
"306 371 OFFCURVE",
"291 399 OFFCURVE",
"268 434 CURVE SMOOTH",
"250 462 OFFCURVE",
"240 484 OFFCURVE",
"240 519 CURVE SMOOTH",
"240 572 OFFCURVE",
"285 612 OFFCURVE",
"335 612 CURVE SMOOTH",
"362 612 OFFCURVE",
"385 599 OFFCURVE",
"405 586 CURVE SMOOTH",
"426 572 OFFCURVE",
"444 559 OFFCURVE",
"461 559 CURVE SMOOTH",
"479 559 OFFCURVE",
"512 597 OFFCURVE",
"512 635 CURVE SMOOTH",
"512 644 OFFCURVE",
"510 656 OFFCURVE",
"495 669 CURVE SMOOTH",
"457 702 OFFCURVE",
"411 714 OFFCURVE",
"349 714 CURVE SMOOTH",
"217 714 OFFCURVE",
"122 618 OFFCURVE",
"122 522 CURVE SMOOTH",
"122 466 OFFCURVE",
"138 442 OFFCURVE",
"158 405 CURVE SMOOTH",
"171 381 OFFCURVE",
"192 356 OFFCURVE",
"192 325 CURVE SMOOTH",
"192 301 OFFCURVE",
"188 284 OFFCURVE",
"182 266 CURVE SMOOTH",
"179 256 OFFCURVE",
"174 243 OFFCURVE",
"174 230 CURVE SMOOTH",
"174 212 OFFCURVE",
"203 211 OFFCURVE",
"219 211 CURVE SMOOTH"
);
},
{
closed = 1;
nodes = (
"211 -18 OFFCURVE",
"266 27 OFFCURVE",
"266 83 CURVE SMOOTH",
"266 128 OFFCURVE",
"229 157 OFFCURVE",
"184 157 CURVE SMOOTH",
"129 157 OFFCURVE",
"75 113 OFFCURVE",
"75 57 CURVE SMOOTH",
"75 12 OFFCURVE",
"106 -18 OFFCURVE",
"153 -18 CURVE SMOOTH"
);
}
);
width = 479;
},
{
layerId = "474759B3-6A21-45C1-BBBC-641F1925F03A";
paths = (
{
closed = 1;
nodes = (
"223 208 OFFCURVE",
"233 228 OFFCURVE",
"242 246 CURVE SMOOTH",
"251 264 OFFCURVE",
"257 287 OFFCURVE",
"257 316 CURVE SMOOTH",
"257 348 OFFCURVE",
"238 386 OFFCURVE",
"218 418 CURVE SMOOTH",
"195 455 OFFCURVE",
"170 490 OFFCURVE",
"170 542 CURVE SMOOTH",
"170 636 OFFCURVE",
"257 693 OFFCURVE",
"352 693 CURVE SMOOTH",
"398 693 OFFCURVE",
"435 666 OFFCURVE",
"455 652 CURVE SMOOTH",
"470 641 OFFCURVE",
"479 632 OFFCURVE",
"489 632 CURVE SMOOTH",
"493 632 OFFCURVE",
"501 638 OFFCURVE",
"501 647 CURVE SMOOTH",
"501 651 OFFCURVE",
"498 657 OFFCURVE",
"491 662 CURVE SMOOTH",
"475 675 OFFCURVE",
"421 714 OFFCURVE",
"352 714 CURVE SMOOTH",
"245 714 OFFCURVE",
"148 645 OFFCURVE",
"148 540 CURVE SMOOTH",
"148 488 OFFCURVE",
"171 451 OFFCURVE",
"193 418 CURVE SMOOTH",
"217 382 OFFCURVE",
"235 346 OFFCURVE",
"235 316 CURVE SMOOTH",
"235 281 OFFCURVE",
"221 265 OFFCURVE",
"214 253 CURVE SMOOTH",
"204 237 OFFCURVE",
"198 226 OFFCURVE",
"198 221 CURVE SMOOTH",
"198 213 OFFCURVE",
"207 208 OFFCURVE",
"215 208 CURVE SMOOTH"
);
},
{
closed = 1;
nodes = (
"189 -4 OFFCURVE",
"208 13 OFFCURVE",
"208 31 CURVE SMOOTH",
"208 47 OFFCURVE",
"197 60 OFFCURVE",
"171 60 CURVE SMOOTH",
"144 60 OFFCURVE",
"124 42 OFFCURVE",
"124 23 CURVE SMOOTH",
"124 7 OFFCURVE",
"138 -4 OFFCURVE",
"162 -4 CURVE SMOOTH"
);
}
);
width = 479;
},
{
layerId = "C1B76EF4-5E0A-4C02-BFBB-E14F816E0475";
paths = (
{
closed = 1;
nodes = (
"239 211 OFFCURVE",
"263 221 OFFCURVE",
"279 241 CURVE SMOOTH",
"303 271 OFFCURVE",
"313 299 OFFCURVE",
"313 334 CURVE SMOOTH",
"313 371 OFFCURVE",
"299 399 OFFCURVE",
"279 434 CURVE SMOOTH",
"262 463 OFFCURVE",
"251 484 OFFCURVE",
"251 519 CURVE SMOOTH",
"251 563 OFFCURVE",
"291 596 OFFCURVE",
"335 596 CURVE SMOOTH",
"362 596 OFFCURVE",
"385 583 OFFCURVE",
"405 570 CURVE SMOOTH",
"426 556 OFFCURVE",
"444 543 OFFCURVE",
"461 543 CURVE SMOOTH",
"479 543 OFFCURVE",
"512 594 OFFCURVE",
"512 632 CURVE SMOOTH",
"512 645 OFFCURVE",
"509 659 OFFCURVE",
"495 669 CURVE SMOOTH",
"454 698 OFFCURVE",
"411 714 OFFCURVE",
"349 714 CURVE SMOOTH",
"186 714 OFFCURVE",
"110 620 OFFCURVE",
"110 543 CURVE SMOOTH",
"110 478 OFFCURVE",
"132 444 OFFCURVE",
"158 404 CURVE SMOOTH",
"174 380 OFFCURVE",
"192 350 OFFCURVE",
"192 325 CURVE SMOOTH",
"192 301 OFFCURVE",
"188 284 OFFCURVE",
"182 266 CURVE SMOOTH",
"179 256 OFFCURVE",
"174 243 OFFCURVE",
"174 230 CURVE SMOOTH",
"174 212 OFFCURVE",
"203 211 OFFCURVE",
"219 211 CURVE SMOOTH"
);
},
{
closed = 1;
nodes = (
"217 -22 OFFCURVE",
"283 31 OFFCURVE",
"283 98 CURVE SMOOTH",
"283 151 OFFCURVE",
"238 185 OFFCURVE",
"188 185 CURVE SMOOTH",
"125 185 OFFCURVE",
"61 133 OFFCURVE",
"61 67 CURVE SMOOTH",
"61 13 OFFCURVE",
"97 -22 OFFCURVE",
"150 -22 CURVE SMOOTH"
);
}
);
width = 479;
}
);
unicode = 061F;
category = Letter;
},
{
glyphname = uni0780;
lastChange = "2018-10-11 13:36:43 +0000";
layers = (
{
layerId = UUID0;
paths = (
{
closed = 1;
nodes = (
"93 -10 OFFCURVE",
"145 4 OFFCURVE",
"213 47 CURVE SMOOTH",
"320 114 OFFCURVE",
"439 215 OFFCURVE",
"482 283 CURVE SMOOTH",
"494 301 OFFCURVE",
"500 316 OFFCURVE",
"500 328 CURVE SMOOTH",
"500 343 OFFCURVE",
"494 361 OFFCURVE",
"469 361 CURVE SMOOTH",
"454 361 OFFCURVE",
"437 351 OFFCURVE",
"420 332 CURVE SMOOTH",
"359 264 OFFCURVE",
"330 236 OFFCURVE",
"165 142 CURVE SMOOTH",
"131 122 OFFCURVE",
"92 108 OFFCURVE",
"54 97 CURVE SMOOTH",
"29 90 OFFCURVE",
"15 64 OFFCURVE",
"15 40 CURVE SMOOTH",
"15 9 OFFCURVE",
"37 -10 OFFCURVE",
"75 -10 CURVE SMOOTH"
);
}
);
width = 529;
},
{
layerId = "20DCAE03-7ADA-4AB6-8D13-19ECCD31BD40";
paths = (
{
closed = 1;
nodes = (
"167 -10 OFFCURVE",
"253 56 OFFCURVE",
"367 153 CURVE SMOOTH",
"439 215 OFFCURVE",
"476 255 OFFCURVE",
"495 282 CURVE SMOOTH",
"514 309 OFFCURVE",
"514 323 OFFCURVE",
"514 333 CURVE SMOOTH",
"514 359 OFFCURVE",
"499 376 OFFCURVE",
"468 376 CURVE SMOOTH",
"446 376 OFFCURVE",
"417 364 OFFCURVE",
"386 328 CURVE SMOOTH",
"361 298 OFFCURVE",
"305 251 OFFCURVE",
"272 228 CURVE SMOOTH",
"199 177 OFFCURVE",
"139 136 OFFCURVE",
"77 120 CURVE SMOOTH",
"36 109 OFFCURVE",
"15 86 OFFCURVE",
"15 50 CURVE SMOOTH",
"15 12 OFFCURVE",
"42 -10 OFFCURVE",
"90 -10 CURVE SMOOTH"
);
}
);
width = 543;
},
{
layerId = "474759B3-6A21-45C1-BBBC-641F1925F03A";
paths = (
{
closed = 1;
nodes = (
"67 -7 OFFCURVE",
"146 19 OFFCURVE",
"227 66 CURVE SMOOTH",
"324 122 OFFCURVE",
"448 231 OFFCURVE",
"497 294 CURVE SMOOTH",
"509 310 OFFCURVE",
"512 316 OFFCURVE",
"512 321 CURVE SMOOTH",
"512 326 OFFCURVE",
"509 328 OFFCURVE",
"505 328 CURVE SMOOTH",
"498 328 OFFCURVE",
"493 321 OFFCURVE",
"482 308 CURVE SMOOTH",
"377 190 OFFCURVE",
"273 121 OFFCURVE",
"212 87 CURVE SMOOTH",
"167 62 OFFCURVE",
"96 32 OFFCURVE",
"41 23 CURVE SMOOTH",
"31 21 OFFCURVE",
"26 16 OFFCURVE",
"26 8 CURVE SMOOTH",
"26 -2 OFFCURVE",
"34 -7 OFFCURVE",
"42 -7 CURVE SMOOTH"
);
}
);
width = 529;
},
{
layerId = "C1B76EF4-5E0A-4C02-BFBB-E14F816E0475";
paths = (
{
closed = 1;
nodes = (
"196 -11 OFFCURVE",
"284 67 OFFCURVE",
"407 178 CURVE SMOOTH",
"478 242 OFFCURVE",
"495 262 OFFCURVE",
"509 286 CURVE SMOOTH",
"521 306 OFFCURVE",
"525 323 OFFCURVE",
"525 336 CURVE SMOOTH",
"525 368 OFFCURVE",
"506 390 OFFCURVE",
"467 390 CURVE SMOOTH",
"441 390 OFFCURVE",
"420 378 OFFCURVE",
"392 355 CURVE SMOOTH",
"361 330 OFFCURVE",
"307 283 OFFCURVE",
"263 249 CURVE SMOOTH",
"217 214 OFFCURVE",
"151 165 OFFCURVE",
"87 148 CURVE SMOOTH",
"37 135 OFFCURVE",
"12 106 OFFCURVE",
"12 62 CURVE SMOOTH",
"12 16 OFFCURVE",
"44 -11 OFFCURVE",
"93 -11 CURVE SMOOTH"
);
}
);
width = 547;
}
);
unicode = 0780;
category = Letter;
},
{
glyphname = uni0781;
lastChange = "2018-10-11 13:36:43 +0000";
layers = (
{
layerId = UUID0;
paths = (
{
closed = 1;
nodes = (
"17 -78 OFFCURVE",
"74 -61 OFFCURVE",
"144 -10 CURVE SMOOTH",
"210 38 OFFCURVE",
"286 113 OFFCURVE",
"353 196 CURVE",
"358 195 OFFCURVE",
"364 195 OFFCURVE",
"370 195 CURVE SMOOTH",
"472 195 OFFCURVE",
"564 233 OFFCURVE",
"617 279 CURVE SMOOTH",
"647 305 OFFCURVE",
"664 333 OFFCURVE",
"664 358 CURVE SMOOTH",
"664 370 OFFCURVE",
"655 391 OFFCURVE",
"628 391 CURVE SMOOTH",
"605 391 OFFCURVE",
"573 352 OFFCURVE",
"557 341 CURVE SMOOTH",
"515 312 OFFCURVE",
"479 298 OFFCURVE",
"438 298 CURVE",
"420 329 OFFCURVE",
"391 352 OFFCURVE",
"352 352 CURVE SMOOTH",
"289 352 OFFCURVE",
"256 317 OFFCURVE",
"256 274 CURVE SMOOTH",
"256 258 OFFCURVE",
"262 244 OFFCURVE",
"273 231 CURVE",
"228 181 OFFCURVE",
"170 127 OFFCURVE",
"97 80 CURVE SMOOTH",
"62 57 OFFCURVE",
"20 43 OFFCURVE",
"-18 31 CURVE SMOOTH",
"-45 22 OFFCURVE",
"-59 4 OFFCURVE",
"-59 -21 CURVE SMOOTH",
"-59 -57 OFFCURVE",
"-39 -78 OFFCURVE",
"-1 -78 CURVE SMOOTH"
);
}
);
width = 678;
},
{
layerId = "20DCAE03-7ADA-4AB6-8D13-19ECCD31BD40";
paths = (
{
closed = 1;
nodes = (
"34 -78 OFFCURVE",
"65 -70 OFFCURVE",
"104 -44 CURVE SMOOTH",
"207 24 OFFCURVE",
"266 90 OFFCURVE",
"355 198 CURVE",
"360 198 OFFCURVE",
"366 198 OFFCURVE",
"371 198 CURVE SMOOTH",
"442 200 OFFCURVE",
"513 214 OFFCURVE",
"578 254 CURVE SMOOTH",
"644 294 OFFCURVE",
"669 323 OFFCURVE",
"669 363 CURVE SMOOTH",
"669 385 OFFCURVE",
"651 405 OFFCURVE",
"620 405 CURVE SMOOTH",
"603 405 OFFCURVE",
"584 395 OFFCURVE",
"562 374 CURVE SMOOTH",
"525 340 OFFCURVE",
"486 324 OFFCURVE",
"443 321 CURVE",
"421 353 OFFCURVE",
"390 376 OFFCURVE",
"336 376 CURVE SMOOTH",
"277 376 OFFCURVE",
"234 339 OFFCURVE",
"234 287 CURVE SMOOTH",
"234 270 OFFCURVE",
"241 245 OFFCURVE",
"251 235 CURVE",
"222 196 OFFCURVE",
"167 137 OFFCURVE",
"73 83 CURVE SMOOTH",
"54 72 OFFCURVE",
"24 60 OFFCURVE",
"-4 51 CURVE SMOOTH",
"-40 39 OFFCURVE",
"-58 19 OFFCURVE",
"-58 -12 CURVE SMOOTH",
"-58 -54 OFFCURVE",
"-33 -78 OFFCURVE",
"14 -78 CURVE SMOOTH"
);
}
);
width = 684;
},
{
layerId = "474759B3-6A21-45C1-BBBC-641F1925F03A";
paths = (
{
closed = 1;
nodes = (
"4 -80 OFFCURVE",
"97 -31 OFFCURVE",
"163 20 CURVE SMOOTH",
"210 57 OFFCURVE",
"292 141 OFFCURVE",
"345 215 CURVE",
"356 213 OFFCURVE",
"366 213 OFFCURVE",
"376 213 CURVE SMOOTH",
"461 213 OFFCURVE",
"542 259 OFFCURVE",
"591 298 CURVE SMOOTH",
"603 307 OFFCURVE",
"609 313 OFFCURVE",
"609 320 CURVE SMOOTH",
"609 325 OFFCURVE",
"606 329 OFFCURVE",
"599 329 CURVE SMOOTH",
"593 329 OFFCURVE",
"586 323 OFFCURVE",
"574 313 CURVE SMOOTH",
"516 266 OFFCURVE",
"453 232 OFFCURVE",
"364 233 CURVE",
"359 243 OFFCURVE",
"341 260 OFFCURVE",
"325 260 CURVE SMOOTH",
"313 260 OFFCURVE",
"305 252 OFFCURVE",
"305 242 CURVE SMOOTH",
"305 234 OFFCURVE",
"312 226 OFFCURVE",
"323 221 CURVE",
"271 151 OFFCURVE",
"208 85 OFFCURVE",
"146 38 CURVE SMOOTH",
"82 -11 OFFCURVE",
"18 -35 OFFCURVE",
"-21 -47 CURVE SMOOTH",
"-38 -52 OFFCURVE",
"-44 -56 OFFCURVE",
"-44 -66 CURVE SMOOTH",
"-44 -72 OFFCURVE",
"-40 -80 OFFCURVE",
"-29 -80 CURVE SMOOTH"
);
}
);
width = 623;
},
{
layerId = "C1B76EF4-5E0A-4C02-BFBB-E14F816E0475";
paths = (
{
closed = 1;
nodes = (
"52 -77 OFFCURVE",
"80 -67 OFFCURVE",
"135 -30 CURVE SMOOTH",
"210 20 OFFCURVE",
"265 75 OFFCURVE",
"368 193 CURVE",
"376 193 OFFCURVE",
"380 193 OFFCURVE",
"404 193 CURVE SMOOTH",
"442 193 OFFCURVE",
"509 201 OFFCURVE",
"603 258 CURVE SMOOTH",
"658 291 OFFCURVE",
"686 327 OFFCURVE",
"686 375 CURVE SMOOTH",
"686 402 OFFCURVE",
"664 427 OFFCURVE",
"626 427 CURVE SMOOTH",
"606 427 OFFCURVE",
"584 415 OFFCURVE",
"559 391 CURVE SMOOTH",
"531 364 OFFCURVE",
"495 350 OFFCURVE",
"466 346 CURVE",
"439 384 OFFCURVE",
"395 409 OFFCURVE",
"335 409 CURVE SMOOTH",
"267 409 OFFCURVE",
"214 364 OFFCURVE",
"214 300 CURVE SMOOTH",
"214 283 OFFCURVE",
"219 256 OFFCURVE",
"230 239 CURVE",
"208 209 OFFCURVE",
"155 152 OFFCURVE",
"91 120 CURVE SMOOTH",
"46 97 OFFCURVE",
"26 87 OFFCURVE",
"1 79 CURVE SMOOTH",
"-41 65 OFFCURVE",
"-62 40 OFFCURVE",
"-62 3 CURVE SMOOTH",
"-62 -49 OFFCURVE",
"-31 -77 OFFCURVE",
"15 -77 CURVE SMOOTH"
);
}
);
width = 701;
}
);
unicode = 0781;
category = Letter;
},
{
glyphname = uni0782;
lastChange = "2018-10-11 13:36:43 +0000";
layers = (
{
layerId = UUID0;
paths = (
{
closed = 1;
nodes = (
"17 -78 OFFCURVE",
"71 -61 OFFCURVE",
"144 -10 CURVE SMOOTH",
"209 35 OFFCURVE",
"287 114 OFFCURVE",
"353 195 CURVE",
"358 195 OFFCURVE",
"362 195 OFFCURVE",
"367 195 CURVE SMOOTH",
"427 195 OFFCURVE",
"469 206 OFFCURVE",
"503 218 CURVE",
"533 197 OFFCURVE",
"562 187 OFFCURVE",
"596 187 CURVE SMOOTH",
"670 187 OFFCURVE",
"737 232 OFFCURVE",
"771 284 CURVE SMOOTH",
"786 306 OFFCURVE",
"794 329 OFFCURVE",
"794 350 CURVE SMOOTH",
"794 372 OFFCURVE",
"787 391 OFFCURVE",
"759 391 CURVE SMOOTH",
"737 391 OFFCURVE",
"724 371 OFFCURVE",
"702 344 CURVE SMOOTH",
"663 296 OFFCURVE",
"637 271 OFFCURVE",
"610 271 CURVE SMOOTH",
"603 271 OFFCURVE",
"596 272 OFFCURVE",
"587 274 CURVE",
"593 285 OFFCURVE",
"599 308 OFFCURVE",
"599 325 CURVE SMOOTH",
"599 355 OFFCURVE",
"590 376 OFFCURVE",
"559 376 CURVE SMOOTH",
"542 376 OFFCURVE",
"528 362 OFFCURVE",
"511 341 CURVE SMOOTH",
"494 321 OFFCURVE",
"476 301 OFFCURVE",
"446 297 CURVE",
"428 329 OFFCURVE",
"393 352 OFFCURVE",
"354 352 CURVE SMOOTH",
"292 352 OFFCURVE",
"256 316 OFFCURVE",
"256 273 CURVE SMOOTH",
"256 257 OFFCURVE",
"262 243 OFFCURVE",
"273 231 CURVE",
"187 133 OFFCURVE",
"101 68 OFFCURVE",
"-18 31 CURVE SMOOTH",
"-45 23 OFFCURVE",
"-59 4 OFFCURVE",
"-59 -21 CURVE SMOOTH",
"-59 -57 OFFCURVE",
"-39 -78 OFFCURVE",
"-1 -78 CURVE SMOOTH"
);
}
);
width = 809;
},
{
layerId = "20DCAE03-7ADA-4AB6-8D13-19ECCD31BD40";
paths = (
{
closed = 1;
nodes = (
"37 -78 OFFCURVE",
"65 -70 OFFCURVE",
"109 -43 CURVE SMOOTH",
"181 2 OFFCURVE",
"285 101 OFFCURVE",
"352 200 CURVE",
"358 199 OFFCURVE",
"369 196 OFFCURVE",
"390 196 CURVE SMOOTH",
"422 196 OFFCURVE",
"460 206 OFFCURVE",
"496 223 CURVE",
"521 199 OFFCURVE",
"546 188 OFFCURVE",
"593 188 CURVE SMOOTH",
"675 188 OFFCURVE",
"745 228 OFFCURVE",
"785 294 CURVE SMOOTH",
"797 314 OFFCURVE",
"805 334 OFFCURVE",
"805 354 CURVE SMOOTH",
"805 390 OFFCURVE",
"787 405 OFFCURVE",
"756 405 CURVE SMOOTH",
"736 405 OFFCURVE",
"720 398 OFFCURVE",
"702 373 CURVE SMOOTH",
"665 322 OFFCURVE",
"647 293 OFFCURVE",
"618 293 CURVE SMOOTH",
"614 293 OFFCURVE",
"605 293 OFFCURVE",
"601 293 CURVE",
"604 303 OFFCURVE",
"607 316 OFFCURVE",
"607 333 CURVE SMOOTH",
"607 374 OFFCURVE",
"585 391 OFFCURVE",
"553 391 CURVE SMOOTH",
"531 391 OFFCURVE",
"516 375 OFFCURVE",
"500 356 CURVE SMOOTH",
"484 337 OFFCURVE",
"469 316 OFFCURVE",
"448 310 CURVE",
"434 343 OFFCURVE",
"391 376 OFFCURVE",
"339 376 CURVE SMOOTH",
"276 376 OFFCURVE",
"235 333 OFFCURVE",
"235 287 CURVE SMOOTH",
"235 272 OFFCURVE",
"240 247 OFFCURVE",
"250 233 CURVE",
"176 157 OFFCURVE",
"96 92 OFFCURVE",
"18 59 CURVE SMOOTH",
"-38 35 OFFCURVE",
"-57 19 OFFCURVE",
"-57 -12 CURVE SMOOTH",
"-57 -54 OFFCURVE",
"-32 -78 OFFCURVE",
"16 -78 CURVE SMOOTH"
);
}
);
width = 820;
},
{
layerId = "474759B3-6A21-45C1-BBBC-641F1925F03A";
paths = (
{
closed = 1;
nodes = (
"-13 -80 OFFCURVE",
"18 -69 OFFCURVE",
"54 -50 CURVE SMOOTH",
"169 12 OFFCURVE",
"262 99 OFFCURVE",
"345 215 CURVE",
"356 213 OFFCURVE",
"366 213 OFFCURVE",
"376 213 CURVE SMOOTH",
"428 213 OFFCURVE",
"467 235 OFFCURVE",
"504 260 CURVE",
"520 218 OFFCURVE",
"553 203 OFFCURVE",
"592 203 CURVE SMOOTH",
"677 203 OFFCURVE",
"766 274 OFFCURVE",
"807 315 CURVE SMOOTH",
"818 326 OFFCURVE",
"825 333 OFFCURVE",
"825 340 CURVE SMOOTH",
"825 345 OFFCURVE",
"822 349 OFFCURVE",
"815 349 CURVE SMOOTH",
"809 349 OFFCURVE",
"803 344 OFFCURVE",
"796 338 CURVE SMOOTH",
"749 293 OFFCURVE",
"678 223 OFFCURVE",
"591 223 CURVE SMOOTH",
"561 223 OFFCURVE",
"535 232 OFFCURVE",
"519 272 CURVE",
"528 280 OFFCURVE",
"534 286 OFFCURVE",
"534 292 CURVE SMOOTH",
"534 297 OFFCURVE",
"531 301 OFFCURVE",
"524 301 CURVE SMOOTH",
"518 301 OFFCURVE",
"512 295 OFFCURVE",
"503 287 CURVE SMOOTH",
"464 252 OFFCURVE",
"421 232 OFFCURVE",
"364 233 CURVE",
"357 246 OFFCURVE",
"338 260 OFFCURVE",
"324 260 CURVE SMOOTH",
"313 260 OFFCURVE",
"305 252 OFFCURVE",
"305 242 CURVE SMOOTH",
"305 234 OFFCURVE",
"312 226 OFFCURVE",
"323 221 CURVE",
"232 98 OFFCURVE",
"122 -2 OFFCURVE",
"-21 -47 CURVE SMOOTH",
"-38 -52 OFFCURVE",
"-44 -56 OFFCURVE",
"-44 -66 CURVE SMOOTH",
"-44 -72 OFFCURVE",
"-40 -80 OFFCURVE",
"-29 -80 CURVE SMOOTH"
);
}
);
width = 809;
},
{
layerId = "C1B76EF4-5E0A-4C02-BFBB-E14F816E0475";
paths = (
{
closed = 1;
nodes = (
"51 -77 OFFCURVE",
"80 -69 OFFCURVE",
"106 -53 CURVE SMOOTH",
"173 -13 OFFCURVE",
"283 90 OFFCURVE",
"354 196 CURVE",
"359 195 OFFCURVE",
"366 194 OFFCURVE",
"390 194 CURVE SMOOTH",
"419 194 OFFCURVE",
"453 199 OFFCURVE",
"495 217 CURVE",
"521 193 OFFCURVE",
"545 184 OFFCURVE",
"593 184 CURVE SMOOTH",
"683 184 OFFCURVE",
"747 215 OFFCURVE",
"799 288 CURVE SMOOTH",
"816 312 OFFCURVE",
"824 339 OFFCURVE",
"824 368 CURVE SMOOTH",
"824 408 OFFCURVE",
"800 431 OFFCURVE",
"767 431 CURVE SMOOTH",
"733 431 OFFCURVE",
"715 419 OFFCURVE",
"695 383 CURVE SMOOTH",
"676 349 OFFCURVE",
"658 324 OFFCURVE",
"641 324 CURVE SMOOTH",
"637 324 OFFCURVE",
"628 324 OFFCURVE",
"626 324 CURVE",
"627 330 OFFCURVE",
"628 337 OFFCURVE",
"628 345 CURVE SMOOTH",
"628 396 OFFCURVE",
"600 417 OFFCURVE",
"561 417 CURVE SMOOTH",
"532 417 OFFCURVE",
"512 399 OFFCURVE",
"501 376 CURVE SMOOTH",
"494 362 OFFCURVE",
"483 340 OFFCURVE",
"472 332 CURVE",
"456 371 OFFCURVE",
"406 409 OFFCURVE",
"342 409 CURVE SMOOTH",
"271 409 OFFCURVE",
"215 356 OFFCURVE",
"215 300 CURVE SMOOTH",
"215 283 OFFCURVE",
"219 253 OFFCURVE",
"229 236 CURVE",
"147 161 OFFCURVE",
"110 126 OFFCURVE",
"2 79 CURVE SMOOTH",
"-37 62 OFFCURVE",
"-61 40 OFFCURVE",
"-61 3 CURVE SMOOTH",
"-61 -49 OFFCURVE",
"-30 -77 OFFCURVE",
"29 -77 CURVE SMOOTH"
);
}
);
width = 839;
}
);
unicode = 0782;
category = Letter;
},
{
glyphname = uni0783;
lastChange = "2018-10-11 13:36:43 +0000";
layers = (
{
layerId = UUID0;
paths = (
{
closed = 1;
nodes = (
"25 -78 OFFCURVE",
"86 -56 OFFCURVE",
"150 -19 CURVE SMOOTH",
"231 28 OFFCURVE",
"308 109 OFFCURVE",
"389 178 CURVE",
"434 163 OFFCURVE",
"483 154 OFFCURVE",
"524 154 CURVE SMOOTH",
"568 154 OFFCURVE",
"604 166 OFFCURVE",
"604 193 CURVE SMOOTH",
"604 223 OFFCURVE",
"582 238 OFFCURVE",
"544 238 CURVE SMOOTH",
"517 238 OFFCURVE",
"495 242 OFFCURVE",
"477 248 CURVE",
"528 289 OFFCURVE",
"544 303 OFFCURVE",
"576 320 CURVE SMOOTH",
"606 336 OFFCURVE",
"634 355 OFFCURVE",
"634 372 CURVE SMOOTH",
"634 401 OFFCURVE",
"609 405 OFFCURVE",
"595 405 CURVE SMOOTH",
"548 405 OFFCURVE",
"480 368 OFFCURVE",
"401 303 CURVE",
"382 324 OFFCURVE",
"360 340 OFFCURVE",
"323 340 CURVE SMOOTH",
"279 340 OFFCURVE",
"265 307 OFFCURVE",
"265 284 CURVE SMOOTH",
"265 259 OFFCURVE",
"281 237 OFFCURVE",
"307 218 CURVE",
"243 159 OFFCURVE",
"176 108 OFFCURVE",
"93 70 CURVE SMOOTH",
"61 55 OFFCURVE",
"25 42 OFFCURVE",
"-13 32 CURVE SMOOTH",
"-42 24 OFFCURVE",
"-59 8 OFFCURVE",
"-59 -21 CURVE SMOOTH",
"-59 -55 OFFCURVE",
"-38 -78 OFFCURVE",
"3 -78 CURVE SMOOTH"
);
}
);
width = 649;
},
{
layerId = "20DCAE03-7ADA-4AB6-8D13-19ECCD31BD40";
paths = (
{
closed = 1;
nodes = (
"49 -78 OFFCURVE",
"113 -51 OFFCURVE",
"188 2 CURVE SMOOTH",
"256 50 OFFCURVE",
"312 101 OFFCURVE",
"388 171 CURVE",
"433 157 OFFCURVE",
"480 149 OFFCURVE",
"522 149 CURVE SMOOTH",
"582 149 OFFCURVE",
"617 168 OFFCURVE",
"617 198 CURVE SMOOTH",
"617 234 OFFCURVE",
"582 248 OFFCURVE",
"536 248 CURVE SMOOTH",
"519 248 OFFCURVE",
"502 249 OFFCURVE",
"490 252 CURVE",
"523 279 OFFCURVE",
"559 302 OFFCURVE",
"589 325 CURVE SMOOTH",
"616 346 OFFCURVE",
"637 363 OFFCURVE",
"637 377 CURVE SMOOTH",
"637 403 OFFCURVE",
"620 420 OFFCURVE",
"583 420 CURVE SMOOTH",
"533 420 OFFCURVE",
"468 377 OFFCURVE",
"390 314 CURVE",
"373 328 OFFCURVE",
"340 349 OFFCURVE",
"311 349 CURVE SMOOTH",
"264 349 OFFCURVE",
"246 324 OFFCURVE",
"246 290 CURVE SMOOTH",
"246 265 OFFCURVE",
"259 243 OFFCURVE",
"284 223 CURVE",
"201 148 OFFCURVE",
"140 107 OFFCURVE",
"90 83 CURVE SMOOTH",
"58 68 OFFCURVE",
"30 59 OFFCURVE",
"5 53 CURVE SMOOTH",
"-37 43 OFFCURVE",
"-59 21 OFFCURVE",
"-59 -12 CURVE SMOOTH",
"-59 -52 OFFCURVE",
"-33 -78 OFFCURVE",
"18 -78 CURVE SMOOTH"
);
}
);
width = 652;
},
{
layerId = "474759B3-6A21-45C1-BBBC-641F1925F03A";
paths = (
{
closed = 1;
nodes = (
"-12 -72 OFFCURVE",
"67 -47 OFFCURVE",
"148 1 CURVE SMOOTH",
"217 42 OFFCURVE",
"320 131 OFFCURVE",
"409 220 CURVE",
"457 198 OFFCURVE",
"521 180 OFFCURVE",
"577 180 CURVE SMOOTH",
"588 180 OFFCURVE",
"594 185 OFFCURVE",
"594 192 CURVE SMOOTH",
"594 200 OFFCURVE",
"584 202 OFFCURVE",
"551 205 CURVE SMOOTH",
"511 209 OFFCURVE",
"460 224 OFFCURVE",
"428 236 CURVE",
"477 282 OFFCURVE",
"550 334 OFFCURVE",
"608 358 CURVE SMOOTH",
"618 362 OFFCURVE",
"625 365 OFFCURVE",
"625 372 CURVE SMOOTH",
"625 374 OFFCURVE",
"623 376 OFFCURVE",
"617 376 CURVE SMOOTH",
"592 376 OFFCURVE",
"496 331 OFFCURVE",
"407 246 CURVE",
"346 276 OFFCURVE",
"336 287 OFFCURVE",
"328 287 CURVE SMOOTH",
"321 287 OFFCURVE",
"317 282 OFFCURVE",
"317 276 CURVE SMOOTH",
"317 271 OFFCURVE",
"332 260 OFFCURVE",
"390 230 CURVE",
"314 159 OFFCURVE",
"237 82 OFFCURVE",
"133 22 CURVE SMOOTH",
"60 -20 OFFCURVE",
"17 -31 OFFCURVE",
"-38 -42 CURVE SMOOTH",
"-48 -44 OFFCURVE",
"-53 -49 OFFCURVE",
"-53 -57 CURVE SMOOTH",
"-53 -67 OFFCURVE",
"-45 -72 OFFCURVE",
"-37 -72 CURVE SMOOTH"
);
}
);
width = 649;
},
{
layerId = "C1B76EF4-5E0A-4C02-BFBB-E14F816E0475";
paths = (
{
closed = 1;
nodes = (
"66 -80 OFFCURVE",
"126 -52 OFFCURVE",
"199 2 CURVE SMOOTH",
"266 52 OFFCURVE",
"302 88 OFFCURVE",
"382 157 CURVE",
"426 145 OFFCURVE",
"468 140 OFFCURVE",
"506 140 CURVE SMOOTH",
"580 140 OFFCURVE",
"624 163 OFFCURVE",
"624 200 CURVE SMOOTH",
"624 244 OFFCURVE",
"584 255 OFFCURVE",
"532 260 CURVE SMOOTH",
"524 261 OFFCURVE",
"519 262 OFFCURVE",
"515 263 CURVE",
"539 282 OFFCURVE",
"561 299 OFFCURVE",
"584 316 CURVE SMOOTH",
"617 341 OFFCURVE",
"640 362 OFFCURVE",
"640 385 CURVE SMOOTH",
"640 411 OFFCURVE",
"619 433 OFFCURVE",
"573 433 CURVE SMOOTH",
"516 433 OFFCURVE",
"460 390 OFFCURVE",
"385 333 CURVE",
"381 343 OFFCURVE",
"341 367 OFFCURVE",
"306 367 CURVE SMOOTH",
"256 367 OFFCURVE",
"226 337 OFFCURVE",
"226 294 CURVE SMOOTH",
"226 263 OFFCURVE",
"238 238 OFFCURVE",
"254 221 CURVE",
"169 145 OFFCURVE",
"112 113 OFFCURVE",
"78 100 CURVE SMOOTH",
"57 92 OFFCURVE",
"34 84 OFFCURVE",
"17 80 CURVE SMOOTH",
"-34 68 OFFCURVE",
"-61 41 OFFCURVE",
"-61 1 CURVE SMOOTH",
"-61 -48 OFFCURVE",
"-30 -80 OFFCURVE",
"24 -80 CURVE SMOOTH"
);
}
);
width = 653;
}
);
unicode = 0783;
category = Letter;
},
{
glyphname = uni0784;
lastChange = "2018-10-11 13:36:43 +0000";
layers = (
{
layerId = UUID0;
paths = (
{
closed = 1;
nodes = (
"494 -10 OFFCURVE",
"653 120 OFFCURVE",
"653 264 CURVE SMOOTH",
"653 313 OFFCURVE",
"618 361 OFFCURVE",
"544 361 CURVE SMOOTH",
"483 361 OFFCURVE",
"426 336 OFFCURVE",
"375 299 CURVE",
"346 318 OFFCURVE",
"312 331 OFFCURVE",
"266 331 CURVE SMOOTH",
"139 331 OFFCURVE",
"59 254 OFFCURVE",
"59 146 CURVE SMOOTH",
"59 49 OFFCURVE",
"151 -10 OFFCURVE",
"273 -10 CURVE SMOOTH"
);
},
{
closed = 1;
nodes = (
"175 100 OFFCURVE",
"156 120 OFFCURVE",
"156 155 CURVE SMOOTH",
"156 202 OFFCURVE",
"199 243 OFFCURVE",
"260 243 CURVE SMOOTH",
"274 243 OFFCURVE",
"289 241 OFFCURVE",
"304 236 CURVE",
"257 187 OFFCURVE",
"222 130 OFFCURVE",
"199 89 CURVE"
);
},
{
closed = 1;
nodes = (
"337 170 OFFCURVE",
"446 273 OFFCURVE",
"522 273 CURVE SMOOTH",
"544 273 OFFCURVE",
"556 264 OFFCURVE",
"556 244 CURVE SMOOTH",
"556 189 OFFCURVE",
"478 88 OFFCURVE",
"291 78 CURVE"
);
}
);
width = 712;
},
{
layerId = "20DCAE03-7ADA-4AB6-8D13-19ECCD31BD40";
paths = (
{
closed = 1;
nodes = (
"489 -15 OFFCURVE",
"686 101 OFFCURVE",
"686 268 CURVE SMOOTH",
"686 328 OFFCURVE",
"646 376 OFFCURVE",
"561 376 CURVE SMOOTH",
"498 376 OFFCURVE",
"431 341 OFFCURVE",
"399 314 CURVE",
"376 331 OFFCURVE",
"328 346 OFFCURVE",
"284 346 CURVE SMOOTH",
"139 346 OFFCURVE",
"55 261 OFFCURVE",
"55 149 CURVE SMOOTH",
"55 53 OFFCURVE",
"155 -15 OFFCURVE",
"298 -15 CURVE SMOOTH"
);
},
{
closed = 1;
nodes = (
"204 109 OFFCURVE",
"179 126 OFFCURVE",
"179 157 CURVE SMOOTH",
"179 207 OFFCURVE",
"225 240 OFFCURVE",
"276 240 CURVE SMOOTH",
"283 240 OFFCURVE",
"308 236 OFFCURVE",
"314 233 CURVE",
"288 208 OFFCURVE",
"235 125 OFFCURVE",
"228 96 CURVE"
);
},
{
closed = 1;
nodes = (
"364 165 OFFCURVE",
"461 270 OFFCURVE",
"534 270 CURVE SMOOTH",
"549 270 OFFCURVE",
"561 263 OFFCURVE",
"561 250 CURVE SMOOTH",
"561 174 OFFCURVE",
"468 102 OFFCURVE",
"327 86 CURVE"
);
}
);
width = 745;
},
{
layerId = "474759B3-6A21-45C1-BBBC-641F1925F03A";
paths = (
{
closed = 1;
nodes = (
"497 -11 OFFCURVE",
"675 127 OFFCURVE",
"675 235 CURVE SMOOTH",
"675 287 OFFCURVE",
"635 329 OFFCURVE",
"555 329 CURVE SMOOTH",
"482 329 OFFCURVE",
"433 291 OFFCURVE",
"392 249 CURVE",
"356 274 OFFCURVE",
"310 291 OFFCURVE",
"255 291 CURVE SMOOTH",
"145 291 OFFCURVE",
"70 218 OFFCURVE",
"70 136 CURVE SMOOTH",
"70 49 OFFCURVE",
"153 -11 OFFCURVE",
"274 -11 CURVE SMOOTH"
);
},
{
closed = 1;
nodes = (
"173 17 OFFCURVE",
"95 60 OFFCURVE",
"95 136 CURVE SMOOTH",
"95 206 OFFCURVE",
"159 269 OFFCURVE",
"253 269 CURVE SMOOTH",
"296 269 OFFCURVE",
"346 257 OFFCURVE",
"378 233 CURVE",
"328 171 OFFCURVE",
"275 82 OFFCURVE",
"243 11 CURVE"
);
},
{
closed = 1;
nodes = (
"376 233 OFFCURVE",
"460 308 OFFCURVE",
"555 308 CURVE SMOOTH",
"622 308 OFFCURVE",
"650 274 OFFCURVE",
"650 235 CURVE SMOOTH",
"650 147 OFFCURVE",
"499 10 OFFCURVE",
"265 10 CURVE"
);
}
);
width = 712;
},
{
layerId = "C1B76EF4-5E0A-4C02-BFBB-E14F816E0475";
paths = (
{
closed = 1;
nodes = (
"493 -16 OFFCURVE",
"701 94 OFFCURVE",
"701 277 CURVE SMOOTH",
"701 340 OFFCURVE",
"657 389 OFFCURVE",
"563 389 CURVE SMOOTH",
"503 389 OFFCURVE",
"430 355 OFFCURVE",
"401 333 CURVE",
"375 348 OFFCURVE",
"330 362 OFFCURVE",
"281 362 CURVE SMOOTH",
"134 362 OFFCURVE",
"46 284 OFFCURVE",
"46 186 CURVE SMOOTH",
"46 56 OFFCURVE",
"153 -16 OFFCURVE",
"305 -16 CURVE SMOOTH"
);
},
{
closed = 1;
nodes = (
"213 128 OFFCURVE",
"203 145 OFFCURVE",
"203 163 CURVE SMOOTH",
"203 207 OFFCURVE",
"239 233 OFFCURVE",
"278 233 CURVE SMOOTH",
"284 233 OFFCURVE",
"290 232 OFFCURVE",
"294 231 CURVE",
"274 214 OFFCURVE",
"232 145 OFFCURVE",
"224 120 CURVE"
);
},
{
closed = 1;
nodes = (
"361 146 OFFCURVE",
"451 263 OFFCURVE",
"519 263 CURVE SMOOTH",
"530 263 OFFCURVE",
"536 259 OFFCURVE",
"536 245 CURVE SMOOTH",
"536 199 OFFCURVE",
"459 128 OFFCURVE",
"345 108 CURVE"
);
}
);
width = 754;
}
);
unicode = 0784;
category = Letter;
},
{
glyphname = uni0785;
lastChange = "2018-10-11 13:36:43 +0000";
layers = (
{
layerId = UUID0;
paths = (
{
closed = 1;
nodes = (
"72 -78 OFFCURVE",
"208 2 OFFCURVE",
"333 92 CURVE SMOOTH",
"412 149 OFFCURVE",
"477 203 OFFCURVE",
"509 246 CURVE SMOOTH",
"523 265 OFFCURVE",
"531 282 OFFCURVE",
"531 296 CURVE SMOOTH",
"531 309 OFFCURVE",
"530 327 OFFCURVE",
"501 327 CURVE SMOOTH",
"489 327 OFFCURVE",
"474 316 OFFCURVE",
"455 299 CURVE SMOOTH",
"434 281 OFFCURVE",
"408 253 OFFCURVE",
"378 228 CURVE",
"347 231 OFFCURVE",
"323 246 OFFCURVE",
"323 277 CURVE SMOOTH",
"323 302 OFFCURVE",
"333 318 OFFCURVE",
"343 328 CURVE SMOOTH",
"358 343 OFFCURVE",
"374 355 OFFCURVE",
"374 370 CURVE SMOOTH",
"374 396 OFFCURVE",
"352 405 OFFCURVE",
"330 405 CURVE SMOOTH",
"313 405 OFFCURVE",
"294 398 OFFCURVE",
"279 386 CURVE SMOOTH",
"250 363 OFFCURVE",
"229 324 OFFCURVE",
"229 280 CURVE SMOOTH",
"229 227 OFFCURVE",
"257 187 OFFCURVE",
"298 169 CURVE",
"259 144 OFFCURVE",
"212 116 OFFCURVE",
"163 92 CURVE SMOOTH",
"104 63 OFFCURVE",
"44 41 OFFCURVE",
"-4 34 CURVE",
"-34 30 OFFCURVE",
"-59 10 OFFCURVE",
"-59 -20 CURVE SMOOTH",
"-59 -55 OFFCURVE",
"-39 -78 OFFCURVE",
"0 -78 CURVE SMOOTH"
);
}
);
width = 545;
},
{
layerId = "20DCAE03-7ADA-4AB6-8D13-19ECCD31BD40";
paths = (
{
closed = 1;
nodes = (
"79 -78 OFFCURVE",
"168 -27 OFFCURVE",
"318 79 CURVE SMOOTH",
"419 150 OFFCURVE",
"482 204 OFFCURVE",
"514 247 CURVE SMOOTH",
"531 269 OFFCURVE",
"539 288 OFFCURVE",
"539 304 CURVE SMOOTH",
"539 327 OFFCURVE",
"523 344 OFFCURVE",
"495 344 CURVE SMOOTH",
"478 344 OFFCURVE",
"454 330 OFFCURVE",
"426 302 CURVE SMOOTH",
"401 277 OFFCURVE",
"377 254 OFFCURVE",
"360 239 CURVE",
"340 244 OFFCURVE",
"328 262 OFFCURVE",
"328 284 CURVE SMOOTH",
"328 309 OFFCURVE",
"336 323 OFFCURVE",
"348 335 CURVE SMOOTH",
"375 360 OFFCURVE",
"375 366 OFFCURVE",
"375 375 CURVE SMOOTH",
"375 404 OFFCURVE",
"354 420 OFFCURVE",
"320 420 CURVE SMOOTH",
"302 420 OFFCURVE",
"286 415 OFFCURVE",
"271 406 CURVE SMOOTH",
"232 383 OFFCURVE",
"206 335 OFFCURVE",
"206 287 CURVE SMOOTH",
"206 236 OFFCURVE",
"233 197 OFFCURVE",
"271 174 CURVE",
"227 146 OFFCURVE",
"192 125 OFFCURVE",
"145 103 CURVE SMOOTH",
"92 78 OFFCURVE",
"54 61 OFFCURVE",
"15 55 CURVE SMOOTH",
"-34 47 OFFCURVE",
"-59 25 OFFCURVE",
"-59 -10 CURVE SMOOTH",
"-59 -52 OFFCURVE",
"-35 -78 OFFCURVE",
"15 -78 CURVE SMOOTH"
);
}
);
width = 553;
},
{
layerId = "474759B3-6A21-45C1-BBBC-641F1925F03A";
paths = (
{
closed = 1;
nodes = (
"40 -67 OFFCURVE",
"146 -22 OFFCURVE",
"232 29 CURVE SMOOTH",
"324 84 OFFCURVE",
"456 200 OFFCURVE",
"502 261 CURVE SMOOTH",
"509 271 OFFCURVE",
"512 275 OFFCURVE",
"512 280 CURVE SMOOTH",
"512 285 OFFCURVE",
"508 288 OFFCURVE",
"504 288 CURVE SMOOTH",
"497 288 OFFCURVE",
"491 282 OFFCURVE",
"480 268 CURVE SMOOTH",
"461 245 OFFCURVE",
"432 214 OFFCURVE",
"397 183 CURVE",
"344 195 OFFCURVE",
"295 230 OFFCURVE",
"295 276 CURVE SMOOTH",
"295 315 OFFCURVE",
"323 338 OFFCURVE",
"355 349 CURVE SMOOTH",
"373 355 OFFCURVE",
"376 359 OFFCURVE",
"376 365 CURVE SMOOTH",
"376 371 OFFCURVE",
"372 375 OFFCURVE",
"367 375 CURVE SMOOTH",
"361 375 OFFCURVE",
"353 374 OFFCURVE",
"339 368 CURVE SMOOTH",
"309 355 OFFCURVE",
"272 332 OFFCURVE",
"272 275 CURVE SMOOTH",
"272 217 OFFCURVE",
"331 178 OFFCURVE",
"378 165 CURVE",
"325 121 OFFCURVE",
"274 83 OFFCURVE",
"221 51 CURVE SMOOTH",
"135 0 OFFCURVE",
"78 -22 OFFCURVE",
"1 -37 CURVE SMOOTH",
"-9 -39 OFFCURVE",
"-14 -44 OFFCURVE",
"-14 -52 CURVE SMOOTH",
"-14 -62 OFFCURVE",
"-6 -67 OFFCURVE",
"2 -67 CURVE SMOOTH"
);
}
);
width = 545;
},
{
layerId = "C1B76EF4-5E0A-4C02-BFBB-E14F816E0475";
paths = (
{
closed = 1;
nodes = (
"90 -81 OFFCURVE",
"174 -28 OFFCURVE",
"343 93 CURVE SMOOTH",
"447 167 OFFCURVE",
"485 208 OFFCURVE",
"517 243 CURVE SMOOTH",
"536 264 OFFCURVE",
"547 289 OFFCURVE",
"547 311 CURVE SMOOTH",
"547 339 OFFCURVE",
"527 360 OFFCURVE",
"492 360 CURVE SMOOTH",
"473 360 OFFCURVE",
"444 344 OFFCURVE",
"411 312 CURVE SMOOTH",
"385 286 OFFCURVE",
"361 265 OFFCURVE",
"349 255 CURVE",
"341 262 OFFCURVE",
"334 276 OFFCURVE",
"334 290 CURVE SMOOTH",
"334 308 OFFCURVE",
"340 319 OFFCURVE",
"357 339 CURVE SMOOTH",
"369 353 OFFCURVE",
"375 364 OFFCURVE",
"375 378 CURVE SMOOTH",
"375 413 OFFCURVE",
"349 433 OFFCURVE",
"307 433 CURVE SMOOTH",
"285 433 OFFCURVE",
"267 426 OFFCURVE",
"252 417 CURVE SMOOTH",
"210 391 OFFCURVE",
"187 336 OFFCURVE",
"187 290 CURVE SMOOTH",
"187 241 OFFCURVE",
"205 202 OFFCURVE",
"240 177 CURVE",
"198 153 OFFCURVE",
"170 139 OFFCURVE",
"123 118 CURVE SMOOTH",
"80 99 OFFCURVE",
"47 85 OFFCURVE",
"3 77 CURVE SMOOTH",
"-41 69 OFFCURVE",
"-72 45 OFFCURVE",
"-72 2 CURVE SMOOTH",
"-72 -49 OFFCURVE",
"-43 -81 OFFCURVE",
"19 -81 CURVE SMOOTH"
);
}
);
width = 555;
}
);
unicode = 0785;
category = Letter;
},
{
glyphname = uni0786;
lastChange = "2018-10-11 13:36:43 +0000";
layers = (
{
layerId = UUID0;
paths = (
{
closed = 1;
nodes = (
"124 -10 OFFCURVE",
"217 24 OFFCURVE",
"295 79 CURVE SMOOTH",
"355 121 OFFCURVE",
"453 197 OFFCURVE",
"498 262 CURVE SMOOTH",
"513 283 OFFCURVE",
"521 303 OFFCURVE",
"521 319 CURVE SMOOTH",
"521 344 OFFCURVE",
"510 361 OFFCURVE",
"484 361 CURVE SMOOTH",
"460 361 OFFCURVE",
"441 346 OFFCURVE",
"425 321 CURVE SMOOTH",
"404 289 OFFCURVE",
"329 195 OFFCURVE",
"242 142 CURVE SMOOTH",
"223 130 OFFCURVE",
"202 120 OFFCURVE",
"182 114 CURVE",
"233 209 OFFCURVE",
"247 241 OFFCURVE",
"247 268 CURVE SMOOTH",
"247 309 OFFCURVE",
"231 327 OFFCURVE",
"196 327 CURVE SMOOTH",
"149 327 OFFCURVE",
"140 286 OFFCURVE",
"136 261 CURVE SMOOTH",
"126 202 OFFCURVE",
"117 175 OFFCURVE",
"50 76 CURVE SMOOTH",
"34 53 OFFCURVE",
"29 44 OFFCURVE",
"29 27 CURVE SMOOTH",
"29 8 OFFCURVE",
"50 -10 OFFCURVE",
"78 -10 CURVE SMOOTH"
);
}
);
width = 550;
},
{
layerId = "20DCAE03-7ADA-4AB6-8D13-19ECCD31BD40";
paths = (
{
closed = 1;
nodes = (
"164 -10 OFFCURVE",
"260 31 OFFCURVE",
"410 161 CURVE SMOOTH",
"453 198 OFFCURVE",
"485 231 OFFCURVE",
"505 260 CURVE SMOOTH",
"522 285 OFFCURVE",
"531 306 OFFCURVE",
"531 324 CURVE SMOOTH",
"531 355 OFFCURVE",
"517 376 OFFCURVE",
"481 376 CURVE SMOOTH",
"453 376 OFFCURVE",
"426 359 OFFCURVE",
"404 325 CURVE SMOOTH",
"376 281 OFFCURVE",
"293 189 OFFCURVE",
"225 146 CURVE SMOOTH",
"214 139 OFFCURVE",
"200 131 OFFCURVE",
"190 126 CURVE",
"231 171 OFFCURVE",
"267 231 OFFCURVE",
"267 275 CURVE SMOOTH",
"267 317 OFFCURVE",
"253 345 OFFCURVE",
"208 345 CURVE SMOOTH",
"167 345 OFFCURVE",
"140 328 OFFCURVE",
"128 255 CURVE SMOOTH",
"122 220 OFFCURVE",
"112 187 OFFCURVE",
"90 153 CURVE SMOOTH",
"38 70 OFFCURVE",
"30 69 OFFCURVE",
"30 37 CURVE SMOOTH",
"30 12 OFFCURVE",
"58 -10 OFFCURVE",
"94 -10 CURVE SMOOTH"
);
}
);
width = 563;
},
{
layerId = "474759B3-6A21-45C1-BBBC-641F1925F03A";
paths = (
{
closed = 1;
nodes = (
"84 -7 OFFCURVE",
"168 21 OFFCURVE",
"252 71 CURVE SMOOTH",
"348 128 OFFCURVE",
"460 228 OFFCURVE",
"520 301 CURVE SMOOTH",
"527 310 OFFCURVE",
"531 316 OFFCURVE",
"531 321 CURVE SMOOTH",
"531 326 OFFCURVE",
"526 328 OFFCURVE",
"522 328 CURVE SMOOTH",
"515 328 OFFCURVE",
"511 321 OFFCURVE",
"499 308 CURVE SMOOTH",
"422 224 OFFCURVE",
"338 149 OFFCURVE",
"239 92 CURVE SMOOTH",
"165 50 OFFCURVE",
"124 36 OFFCURVE",
"78 26 CURVE",
"159 155 OFFCURVE",
"188 229 OFFCURVE",
"188 287 CURVE SMOOTH",
"188 299 OFFCURVE",
"183 302 OFFCURVE",
"175 302 CURVE SMOOTH",
"168 302 OFFCURVE",
"164 298 OFFCURVE",
"163 287 CURVE SMOOTH",
"160 237 OFFCURVE",
"141 169 OFFCURVE",
"61 43 CURVE SMOOTH",
"47 21 OFFCURVE",
"43 14 OFFCURVE",
"43 9 CURVE SMOOTH",
"43 -2 OFFCURVE",
"51 -7 OFFCURVE",
"59 -7 CURVE SMOOTH"
);
}
);
width = 550;
},
{
layerId = "C1B76EF4-5E0A-4C02-BFBB-E14F816E0475";
paths = (
{
closed = 1;
nodes = (
"180 -18 OFFCURVE",
"282 29 OFFCURVE",
"428 166 CURVE SMOOTH",
"483 218 OFFCURVE",
"494 232 OFFCURVE",
"512 256 CURVE SMOOTH",
"529 278 OFFCURVE",
"541 303 OFFCURVE",
"541 325 CURVE SMOOTH",
"541 363 OFFCURVE",
"521 390 OFFCURVE",
"469 390 CURVE SMOOTH",
"435 390 OFFCURVE",
"402 367 OFFCURVE",
"377 330 CURVE SMOOTH",
"364 311 OFFCURVE",
"331 266 OFFCURVE",
"294 225 CURVE SMOOTH",
"278 208 OFFCURVE",
"261 191 OFFCURVE",
"245 177 CURVE",
"258 205 OFFCURVE",
"273 261 OFFCURVE",
"273 295 CURVE SMOOTH",
"273 338 OFFCURVE",
"256 367 OFFCURVE",
"200 367 CURVE SMOOTH",
"150 367 OFFCURVE",
"120 347 OFFCURVE",
"105 277 CURVE SMOOTH",
"93 220 OFFCURVE",
"88 201 OFFCURVE",
"64 144 CURVE SMOOTH",
"39 86 OFFCURVE",
"26 67 OFFCURVE",
"26 45 CURVE SMOOTH",
"26 13 OFFCURVE",
"56 -18 OFFCURVE",
"94 -18 CURVE SMOOTH"
);
}
);
width = 567;
}
);
unicode = 0786;
category = Letter;
},
{
glyphname = uni0787;
lastChange = "2018-10-11 13:36:43 +0000";
layers = (
{
layerId = UUID0;
paths = (
{
closed = 1;
nodes = (
"32 -10 OFFCURVE",
"83 13 OFFCURVE",
"141 49 CURVE SMOOTH",
"222 99 OFFCURVE",
"317 176 OFFCURVE",
"384 257 CURVE",
"379 183 OFFCURVE",
"355 142 OFFCURVE",
"316 89 CURVE SMOOTH",
"300 67 OFFCURVE",
"293 56 OFFCURVE",
"293 38 CURVE SMOOTH",
"293 14 OFFCURVE",
"311 -1 OFFCURVE",
"339 -1 CURVE SMOOTH",
"358 -1 OFFCURVE",
"378 12 OFFCURVE",
"389 26 CURVE SMOOTH",
"441 90 OFFCURVE",
"474 171 OFFCURVE",
"474 266 CURVE SMOOTH",
"474 318 OFFCURVE",
"461 361 OFFCURVE",
"409 361 CURVE SMOOTH",
"364 361 OFFCURVE",
"318 312 OFFCURVE",
"296 288 CURVE SMOOTH",
"236 224 OFFCURVE",
"175 177 OFFCURVE",
"101 141 CURVE SMOOTH",
"66 124 OFFCURVE",
"29 110 OFFCURVE",
"-13 97 CURVE SMOOTH",
"-42 88 OFFCURVE",
"-59 71 OFFCURVE",
"-59 42 CURVE SMOOTH",
"-59 9 OFFCURVE",
"-38 -10 OFFCURVE",
"3 -10 CURVE SMOOTH"
);
}
);
width = 533;
},
{
layerId = "20DCAE03-7ADA-4AB6-8D13-19ECCD31BD40";
paths = (
{
closed = 1;
nodes = (
"49 -10 OFFCURVE",
"99 20 OFFCURVE",
"180 74 CURVE SMOOTH",
"230 108 OFFCURVE",
"336 203 OFFCURVE",
"362 237 CURVE",
"362 205 OFFCURVE",
"344 169 OFFCURVE",
"320 130 CURVE SMOOTH",
"300 98 OFFCURVE",
"281 73 OFFCURVE",
"281 48 CURVE SMOOTH",
"281 19 OFFCURVE",
"305 0 OFFCURVE",
"342 0 CURVE SMOOTH",
"371 0 OFFCURVE",
"398 20 OFFCURVE",
"430 73 CURVE SMOOTH",
"466 132 OFFCURVE",
"486 194 OFFCURVE",
"486 270 CURVE SMOOTH",
"486 344 OFFCURVE",
"458 376 OFFCURVE",
"405 376 CURVE SMOOTH",
"370 376 OFFCURVE",
"331 353 OFFCURVE",
"288 306 CURVE SMOOTH",
"248 262 OFFCURVE",
"193 217 OFFCURVE",
"134 180 CURVE SMOOTH",
"89 152 OFFCURVE",
"41 130 OFFCURVE",
"-3 117 CURVE SMOOTH",
"-39 106 OFFCURVE",
"-59 83 OFFCURVE",
"-59 50 CURVE SMOOTH",
"-59 11 OFFCURVE",
"-35 -10 OFFCURVE",
"11 -10 CURVE SMOOTH"
);
}
);
width = 544;
},
{
layerId = "474759B3-6A21-45C1-BBBC-641F1925F03A";
paths = (
{
closed = 1;
nodes = (
"3 -7 OFFCURVE",
"75 20 OFFCURVE",
"157 66 CURVE SMOOTH",
"258 123 OFFCURVE",
"395 237 OFFCURVE",
"446 299 CURVE",
"438 227 OFFCURVE",
"420 141 OFFCURVE",
"375 54 CURVE SMOOTH",
"359 23 OFFCURVE",
"352 15 OFFCURVE",
"352 10 CURVE SMOOTH",
"352 3 OFFCURVE",
"358 -1 OFFCURVE",
"365 -1 CURVE SMOOTH",
"374 -1 OFFCURVE",
"383 8 OFFCURVE",
"402 47 CURVE SMOOTH",
"430 103 OFFCURVE",
"470 237 OFFCURVE",
"470 325 CURVE SMOOTH",
"470 335 OFFCURVE",
"463 337 OFFCURVE",
"458 337 CURVE SMOOTH",
"451 337 OFFCURVE",
"436 321 OFFCURVE",
"424 308 CURVE SMOOTH",
"334 215 OFFCURVE",
"252 147 OFFCURVE",
"142 87 CURVE SMOOTH",
"56 40 OFFCURVE",
"26 34 OFFCURVE",
"-29 23 CURVE SMOOTH",
"-39 21 OFFCURVE",
"-44 16 OFFCURVE",
"-44 8 CURVE SMOOTH",
"-44 -2 OFFCURVE",
"-36 -7 OFFCURVE",
"-28 -7 CURVE SMOOTH"
);
}
);
width = 533;
},
{
layerId = "C1B76EF4-5E0A-4C02-BFBB-E14F816E0475";
paths = (
{
closed = 1;
nodes = (
"64 -11 OFFCURVE",
"106 21 OFFCURVE",
"169 66 CURVE SMOOTH",
"221 103 OFFCURVE",
"319 193 OFFCURVE",
"359 234 CURVE",
"347 193 OFFCURVE",
"327 160 OFFCURVE",
"309 132 CURVE SMOOTH",
"294 108 OFFCURVE",
"282 86 OFFCURVE",
"282 55 CURVE SMOOTH",
"282 21 OFFCURVE",
"312 -1 OFFCURVE",
"352 -1 CURVE SMOOTH",
"384 -1 OFFCURVE",
"408 21 OFFCURVE",
"443 80 CURVE SMOOTH",
"479 140 OFFCURVE",
"497 213 OFFCURVE",
"497 272 CURVE SMOOTH",
"497 347 OFFCURVE",
"461 387 OFFCURVE",
"399 387 CURVE SMOOTH",
"347 387 OFFCURVE",
"303 360 OFFCURVE",
"262 319 CURVE SMOOTH",
"219 275 OFFCURVE",
"176 237 OFFCURVE",
"132 207 CURVE SMOOTH",
"95 182 OFFCURVE",
"45 157 OFFCURVE",
"4 144 CURVE SMOOTH",
"-39 130 OFFCURVE",
"-63 102 OFFCURVE",
"-63 62 CURVE SMOOTH",
"-63 15 OFFCURVE",
"-35 -11 OFFCURVE",
"8 -11 CURVE SMOOTH"
);
}
);
width = 547;
}
);
unicode = 0787;
category = Letter;
},
{
glyphname = uni0788;
lastChange = "2018-10-11 13:36:43 +0000";
layers = (
{
layerId = UUID0;
paths = (
{
closed = 1;
nodes = (
"29 -78 OFFCURVE",
"126 -38 OFFCURVE",
"187 2 CURVE SMOOTH",
"264 52 OFFCURVE",
"370 137 OFFCURVE",
"429 202 CURVE SMOOTH",
"464 241 OFFCURVE",
"483 284 OFFCURVE",
"483 329 CURVE SMOOTH",
"483 382 OFFCURVE",
"442 405 OFFCURVE",
"383 405 CURVE SMOOTH",
"276 405 OFFCURVE",
"175 318 OFFCURVE",
"175 234 CURVE SMOOTH",
"175 197 OFFCURVE",
"194 165 OFFCURVE",
"229 144 CURVE",
"192 121 OFFCURVE",
"141 93 OFFCURVE",
"90 69 CURVE SMOOTH",
"55 53 OFFCURVE",
"19 39 OFFCURVE",
"-13 32 CURVE SMOOTH",
"-43 25 OFFCURVE",
"-59 6 OFFCURVE",
"-59 -23 CURVE SMOOTH",
"-59 -56 OFFCURVE",
"-38 -78 OFFCURVE",
"3 -78 CURVE SMOOTH"
);
},
{
closed = 1;
nodes = (
"292 208 OFFCURVE",
"268 215 OFFCURVE",
"268 241 CURVE SMOOTH",
"268 284 OFFCURVE",
"324 325 OFFCURVE",
"364 325 CURVE SMOOTH",
"387 325 OFFCURVE",
"392 316 OFFCURVE",
"392 305 CURVE SMOOTH",
"392 271 OFFCURVE",
"354 234 OFFCURVE",
"318 206 CURVE"
);
}
);
width = 538;
},
{
layerId = "20DCAE03-7ADA-4AB6-8D13-19ECCD31BD40";
paths = (
{
closed = 1;
nodes = (
"41 -78 OFFCURVE",
"96 -61 OFFCURVE",
"170 -17 CURVE SMOOTH",
"259 36 OFFCURVE",
"411 153 OFFCURVE",
"461 221 CURVE SMOOTH",
"487 257 OFFCURVE",
"503 295 OFFCURVE",
"503 333 CURVE SMOOTH",
"503 390 OFFCURVE",
"453 420 OFFCURVE",
"378 420 CURVE SMOOTH",
"270 420 OFFCURVE",
"138 325 OFFCURVE",
"138 227 CURVE SMOOTH",
"138 188 OFFCURVE",
"157 152 OFFCURVE",
"202 137 CURVE",
"191 129 OFFCURVE",
"170 117 OFFCURVE",
"154 109 CURVE SMOOTH",
"93 78 OFFCURVE",
"29 55 OFFCURVE",
"3 47 CURVE SMOOTH",
"-35 35 OFFCURVE",
"-59 20 OFFCURVE",
"-59 -14 CURVE SMOOTH",
"-59 -53 OFFCURVE",
"-34 -78 OFFCURVE",
"17 -78 CURVE SMOOTH"
);
},
{
closed = 1;
nodes = (
"284 214 OFFCURVE",
"262 224 OFFCURVE",
"262 239 CURVE SMOOTH",
"262 279 OFFCURVE",
"316 324 OFFCURVE",
"359 324 CURVE SMOOTH",
"375 324 OFFCURVE",
"378 314 OFFCURVE",
"378 308 CURVE SMOOTH",
"378 279 OFFCURVE",
"359 251 OFFCURVE",
"309 210 CURVE"
);
}
);
width = 558;
},
{
layerId = "474759B3-6A21-45C1-BBBC-641F1925F03A";
paths = (
{
closed = 1;
nodes = (
"-6 -91 OFFCURVE",
"73 -64 OFFCURVE",
"180 -1 CURVE SMOOTH",
"272 53 OFFCURVE",
"399 165 OFFCURVE",
"442 216 CURVE SMOOTH",
"477 257 OFFCURVE",
"492 288 OFFCURVE",
"492 316 CURVE SMOOTH",
"492 362 OFFCURVE",
"452 377 OFFCURVE",
"406 377 CURVE SMOOTH",
"301 377 OFFCURVE",
"203 298 OFFCURVE",
"203 223 CURVE SMOOTH",
"203 179 OFFCURVE",
"252 147 OFFCURVE",
"335 143 CURVE",
"313 124 OFFCURVE",
"245 67 OFFCURVE",
"172 24 CURVE SMOOTH",
"66 -39 OFFCURVE",
"23 -50 OFFCURVE",
"-32 -61 CURVE SMOOTH",
"-42 -63 OFFCURVE",
"-47 -68 OFFCURVE",
"-47 -76 CURVE SMOOTH",
"-47 -86 OFFCURVE",
"-39 -91 OFFCURVE",
"-31 -91 CURVE SMOOTH"
);
},
{
closed = 1;
nodes = (
"296 163 OFFCURVE",
"226 175 OFFCURVE",
"226 226 CURVE SMOOTH",
"226 292 OFFCURVE",
"320 355 OFFCURVE",
"404 355 CURVE SMOOTH",
"451 355 OFFCURVE",
"469 335 OFFCURVE",
"469 311 CURVE SMOOTH",
"469 279 OFFCURVE",
"425 218 OFFCURVE",
"351 159 CURVE"
);
}
);
width = 538;
},
{
layerId = "C1B76EF4-5E0A-4C02-BFBB-E14F816E0475";
paths = (
{
closed = 1;
nodes = (
"54 -78 OFFCURVE",
"103 -60 OFFCURVE",
"167 -22 CURVE SMOOTH",
"255 30 OFFCURVE",
"414 150 OFFCURVE",
"466 222 CURVE SMOOTH",
"491 257 OFFCURVE",
"506 297 OFFCURVE",
"506 338 CURVE SMOOTH",
"506 398 OFFCURVE",
"453 432 OFFCURVE",
"370 432 CURVE SMOOTH",
"264 432 OFFCURVE",
"119 333 OFFCURVE",
"119 218 CURVE SMOOTH",
"119 181 OFFCURVE",
"140 151 OFFCURVE",
"176 140 CURVE",
"156 130 OFFCURVE",
"146 124 OFFCURVE",
"120 112 CURVE SMOOTH",
"90 98 OFFCURVE",
"31 86 OFFCURVE",
"-2 74 CURVE SMOOTH",
"-33 63 OFFCURVE",
"-62 45 OFFCURVE",
"-62 4 CURVE SMOOTH",
"-62 -44 OFFCURVE",
"-33 -78 OFFCURVE",
"14 -78 CURVE SMOOTH"
);
},
{
closed = 1;
nodes = (
"281 229 OFFCURVE",
"272 238 OFFCURVE",
"272 248 CURVE SMOOTH",
"272 275 OFFCURVE",
"313 315 OFFCURVE",
"339 315 CURVE SMOOTH",
"351 315 OFFCURVE",
"354 311 OFFCURVE",
"354 306 CURVE SMOOTH",
"354 288 OFFCURVE",
"340 260 OFFCURVE",
"297 225 CURVE"
);
}
);
width = 551;
}
);
unicode = 0788;
category = Letter;
},
{
glyphname = uni0789;
lastChange = "2018-10-11 13:36:43 +0000";
layers = (
{
layerId = UUID0;
paths = (
{
closed = 1;
nodes = (
"36 -20 OFFCURVE",
"62 -14 OFFCURVE",
"93 -4 CURVE SMOOTH",
"134 9 OFFCURVE",
"181 29 OFFCURVE",
"218 50 CURVE SMOOTH",
"289 90 OFFCURVE",
"395 160 OFFCURVE",
"447 231 CURVE SMOOTH",
"467 258 OFFCURVE",
"479 284 OFFCURVE",
"479 309 CURVE SMOOTH",
"479 377 OFFCURVE",
"391 391 OFFCURVE",
"303 391 CURVE SMOOTH",
"245 391 OFFCURVE",
"199 386 OFFCURVE",
"167 377 CURVE SMOOTH",
"124 365 OFFCURVE",
"103 346 OFFCURVE",
"103 323 CURVE SMOOTH",
"103 302 OFFCURVE",
"117 280 OFFCURVE",
"146 280 CURVE SMOOTH",
"170 280 OFFCURVE",
"194 289 OFFCURVE",
"223 297 CURVE SMOOTH",
"248 304 OFFCURVE",
"276 310 OFFCURVE",
"310 310 CURVE SMOOTH",
"337 310 OFFCURVE",
"364 305 OFFCURVE",
"364 295 CURVE SMOOTH",
"364 283 OFFCURVE",
"361 268 OFFCURVE",
"331 238 CURVE SMOOTH",
"252 161 OFFCURVE",
"166 126 OFFCURVE",
"73 100 CURVE SMOOTH",
"51 94 OFFCURVE",
"29 88 OFFCURVE",
"6 83 CURVE SMOOTH",
"-24 76 OFFCURVE",
"-39 58 OFFCURVE",
"-39 30 CURVE SMOOTH",
"-39 -3 OFFCURVE",
"-19 -20 OFFCURVE",
"22 -20 CURVE SMOOTH"
);
}
);
width = 518;
},
{
layerId = "20DCAE03-7ADA-4AB6-8D13-19ECCD31BD40";
paths = (
{
closed = 1;
nodes = (
"52 -20 OFFCURVE",
"75 -17 OFFCURVE",
"105 -7 CURVE SMOOTH",
"138 4 OFFCURVE",
"178 21 OFFCURVE",
"224 46 CURVE SMOOTH",
"293 83 OFFCURVE",
"396 158 OFFCURVE",
"446 219 CURVE SMOOTH",
"475 255 OFFCURVE",
"482 286 OFFCURVE",
"482 313 CURVE SMOOTH",
"482 374 OFFCURVE",
"405 405 OFFCURVE",
"291 405 CURVE SMOOTH",
"231 405 OFFCURVE",
"188 400 OFFCURVE",
"158 390 CURVE SMOOTH",
"117 377 OFFCURVE",
"102 355 OFFCURVE",
"102 328 CURVE SMOOTH",
"102 298 OFFCURVE",
"123 274 OFFCURVE",
"160 274 CURVE SMOOTH",
"176 274 OFFCURVE",
"198 281 OFFCURVE",
"225 290 CURVE SMOOTH",
"250 298 OFFCURVE",
"280 305 OFFCURVE",
"308 305 CURVE SMOOTH",
"330 305 OFFCURVE",
"354 303 OFFCURVE",
"354 294 CURVE SMOOTH",
"354 278 OFFCURVE",
"326 251 OFFCURVE",
"282 216 CURVE SMOOTH",
"213 162 OFFCURVE",
"142 137 OFFCURVE",
"86 122 CURVE SMOOTH",
"63 116 OFFCURVE",
"43 111 OFFCURVE",
"27 107 CURVE SMOOTH",
"-17 96 OFFCURVE",
"-40 75 OFFCURVE",
"-40 40 CURVE SMOOTH",
"-40 0 OFFCURVE",
"-15 -20 OFFCURVE",
"37 -20 CURVE SMOOTH"
);
}
);
width = 521;
},
{
layerId = "474759B3-6A21-45C1-BBBC-641F1925F03A";
paths = (
{
closed = 1;
nodes = (
"22 -20 OFFCURVE",
"38 -17 OFFCURVE",
"66 -10 CURVE SMOOTH",
"110 1 OFFCURVE",
"178 27 OFFCURVE",
"247 67 CURVE SMOOTH",
"326 113 OFFCURVE",
"424 188 OFFCURVE",
"457 232 CURVE SMOOTH",
"480 262 OFFCURVE",
"491 285 OFFCURVE",
"491 305 CURVE SMOOTH",
"491 342 OFFCURVE",
"419 361 OFFCURVE",
"321 361 CURVE SMOOTH",
"242 361 OFFCURVE",
"184 348 OFFCURVE",
"159 342 CURVE SMOOTH",
"131 335 OFFCURVE",
"124 330 OFFCURVE",
"124 323 CURVE SMOOTH",
"124 312 OFFCURVE",
"130 310 OFFCURVE",
"137 310 CURVE SMOOTH",
"145 310 OFFCURVE",
"173 319 OFFCURVE",
"200 324 CURVE SMOOTH",
"236 331 OFFCURVE",
"278 338 OFFCURVE",
"321 338 CURVE SMOOTH",
"424 338 OFFCURVE",
"467 324 OFFCURVE",
"467 301 CURVE SMOOTH",
"467 275 OFFCURVE",
"431 221 OFFCURVE",
"349 162 CURVE SMOOTH",
"236 80 OFFCURVE",
"145 39 OFFCURVE",
"80 22 CURVE SMOOTH",
"42 12 OFFCURVE",
"24 11 OFFCURVE",
"6 7 CURVE SMOOTH",
"-4 5 OFFCURVE",
"-8 -2 OFFCURVE",
"-8 -8 CURVE SMOOTH",
"-8 -15 OFFCURVE",
"-3 -20 OFFCURVE",
"8 -20 CURVE SMOOTH"
);
}
);
width = 518;
},
{
layerId = "C1B76EF4-5E0A-4C02-BFBB-E14F816E0475";
paths = (
{
closed = 1;
nodes = (
"61 -20 OFFCURVE",
"86 -17 OFFCURVE",
"116 -6 CURVE SMOOTH",
"146 5 OFFCURVE",
"178 20 OFFCURVE",
"217 40 CURVE SMOOTH",
"283 74 OFFCURVE",
"388 149 OFFCURVE",
"443 215 CURVE SMOOTH",
"477 255 OFFCURVE",
"485 286 OFFCURVE",
"485 315 CURVE SMOOTH",
"485 383 OFFCURVE",
"405 418 OFFCURVE",
"282 418 CURVE SMOOTH",
"228 418 OFFCURVE",
"189 415 OFFCURVE",
"158 404 CURVE SMOOTH",
"113 388 OFFCURVE",
"96 362 OFFCURVE",
"96 329 CURVE SMOOTH",
"96 294 OFFCURVE",
"121 264 OFFCURVE",
"167 264 CURVE SMOOTH",
"185 264 OFFCURVE",
"205 270 OFFCURVE",
"232 280 CURVE SMOOTH",
"254 288 OFFCURVE",
"281 296 OFFCURVE",
"304 296 CURVE SMOOTH",
"314 296 OFFCURVE",
"322 295 OFFCURVE",
"322 290 CURVE SMOOTH",
"322 277 OFFCURVE",
"296 255 OFFCURVE",
"263 231 CURVE SMOOTH",
"203 188 OFFCURVE",
"141 165 OFFCURVE",
"88 151 CURVE SMOOTH",
"70 146 OFFCURVE",
"51 140 OFFCURVE",
"33 136 CURVE SMOOTH",
"-21 123 OFFCURVE",
"-49 97 OFFCURVE",
"-49 54 CURVE SMOOTH",
"-49 4 OFFCURVE",
"-18 -20 OFFCURVE",
"45 -20 CURVE SMOOTH"
);
}
);
width = 522;
}
);
unicode = 0789;
category = Letter;
},
{
glyphname = uni078A;
lastChange = "2018-10-11 13:36:43 +0000";
layers = (
{
layerId = UUID0;
paths = (
{
closed = 1;
nodes = (
"24 -78 OFFCURVE",
"88 -55 OFFCURVE",
"150 -19 CURVE SMOOTH",
"209 15 OFFCURVE",
"367 117 OFFCURVE",
"367 180 CURVE SMOOTH",
"367 202 OFFCURVE",
"354 210 OFFCURVE",
"331 222 CURVE",
"348 231 OFFCURVE",
"366 241 OFFCURVE",
"381 253 CURVE SMOOTH",
"406 272 OFFCURVE",
"425 294 OFFCURVE",
"425 321 CURVE SMOOTH",
"425 352 OFFCURVE",
"389 362 OFFCURVE",
"346 374 CURVE",
"367 384 OFFCURVE",
"383 395 OFFCURVE",
"395 404 CURVE SMOOTH",
"410 416 OFFCURVE",
"418 429 OFFCURVE",
"418 439 CURVE SMOOTH",
"418 461 OFFCURVE",
"401 479 OFFCURVE",
"380 479 CURVE SMOOTH",
"355 479 OFFCURVE",
"343 458 OFFCURVE",
"299 430 CURVE SMOOTH",
"248 398 OFFCURVE",
"223 396 OFFCURVE",
"223 365 CURVE SMOOTH",
"223 346 OFFCURVE",
"233 337 OFFCURVE",
"253 330 CURVE SMOOTH",
"295 315 OFFCURVE",
"315 318 OFFCURVE",
"315 306 CURVE SMOOTH",
"315 299 OFFCURVE",
"293 289 OFFCURVE",
"268 277 CURVE SMOOTH",
"237 262 OFFCURVE",
"203 244 OFFCURVE",
"203 222 CURVE SMOOTH",
"203 204 OFFCURVE",
"212 194 OFFCURVE",
"222 187 CURVE SMOOTH",
"236 177 OFFCURVE",
"253 173 OFFCURVE",
"253 165 CURVE SMOOTH",
"253 140 OFFCURVE",
"211 109 OFFCURVE",
"123 72 CURVE SMOOTH",
"84 56 OFFCURVE",
"46 47 OFFCURVE",
"-2 35 CURVE SMOOTH",
"-31 28 OFFCURVE",
"-59 8 OFFCURVE",
"-59 -21 CURVE SMOOTH",
"-59 -55 OFFCURVE",
"-38 -78 OFFCURVE",
"3 -78 CURVE SMOOTH"
);
}
);
width = 449;
},
{
layerId = "20DCAE03-7ADA-4AB6-8D13-19ECCD31BD40";
paths = (
{
closed = 1;
nodes = (
"45 -79 OFFCURVE",
"97 -60 OFFCURVE",
"155 -26 CURVE SMOOTH",
"242 26 OFFCURVE",
"370 113 OFFCURVE",
"370 182 CURVE SMOOTH",
"370 206 OFFCURVE",
"355 216 OFFCURVE",
"331 226 CURVE",
"338 228 OFFCURVE",
"351 235 OFFCURVE",
"372 248 CURVE SMOOTH",
"404 267 OFFCURVE",
"429 292 OFFCURVE",
"429 324 CURVE SMOOTH",
"429 353 OFFCURVE",
"391 365 OFFCURVE",
"349 376 CURVE",
"356 380 OFFCURVE",
"376 390 OFFCURVE",
"395 402 CURVE SMOOTH",
"411 412 OFFCURVE",
"427 424 OFFCURVE",
"427 439 CURVE SMOOTH",
"427 467 OFFCURVE",
"403 488 OFFCURVE",
"374 488 CURVE SMOOTH",
"345 488 OFFCURVE",
"312 457 OFFCURVE",
"284 441 CURVE SMOOTH",
"256 425 OFFCURVE",
"205 404 OFFCURVE",
"205 372 CURVE SMOOTH",
"205 351 OFFCURVE",
"228 340 OFFCURVE",
"250 332 CURVE SMOOTH",
"274 323 OFFCURVE",
"305 317 OFFCURVE",
"305 311 CURVE",
"305 302 OFFCURVE",
"280 298 OFFCURVE",
"241 281 CURVE SMOOTH",
"194 260 OFFCURVE",
"175 245 OFFCURVE",
"175 225 CURVE SMOOTH",
"175 212 OFFCURVE",
"184 201 OFFCURVE",
"196 191 CURVE SMOOTH",
"207 182 OFFCURVE",
"230 172 OFFCURVE",
"251 169 CURVE",
"251 144 OFFCURVE",
"188 112 OFFCURVE",
"121 87 CURVE SMOOTH",
"87 74 OFFCURVE",
"52 65 OFFCURVE",
"23 59 CURVE SMOOTH",
"-31 47 OFFCURVE",
"-59 20 OFFCURVE",
"-59 -13 CURVE SMOOTH",
"-59 -53 OFFCURVE",
"-35 -79 OFFCURVE",
"16 -79 CURVE SMOOTH"
);
}
);
width = 458;
},
{
layerId = "474759B3-6A21-45C1-BBBC-641F1925F03A";
paths = (
{
closed = 1;
nodes = (
"-7 -85 OFFCURVE",
"79 -46 OFFCURVE",
"144 -15 CURVE SMOOTH",
"230 26 OFFCURVE",
"365 112 OFFCURVE",
"365 162 CURVE SMOOTH",
"365 178 OFFCURVE",
"340 194 OFFCURVE",
"264 208 CURVE",
"300 224 OFFCURVE",
"330 236 OFFCURVE",
"353 247 CURVE SMOOTH",
"409 274 OFFCURVE",
"427 288 OFFCURVE",
"427 306 CURVE SMOOTH",
"427 328 OFFCURVE",
"363 345 OFFCURVE",
"280 368 CURVE",
"334 397 OFFCURVE",
"390 423 OFFCURVE",
"416 439 CURVE SMOOTH",
"421 442 OFFCURVE",
"422 445 OFFCURVE",
"422 449 CURVE SMOOTH",
"422 452 OFFCURVE",
"419 457 OFFCURVE",
"412 457 CURVE SMOOTH",
"396 457 OFFCURVE",
"379 437 OFFCURVE",
"319 409 CURVE SMOOTH",
"271 386 OFFCURVE",
"257 375 OFFCURVE",
"257 366 CURVE SMOOTH",
"257 360 OFFCURVE",
"261 354 OFFCURVE",
"290 346 CURVE SMOOTH",
"345 331 OFFCURVE",
"404 313 OFFCURVE",
"404 303 CURVE SMOOTH",
"404 290 OFFCURVE",
"365 272 OFFCURVE",
"319 253 CURVE SMOOTH",
"273 234 OFFCURVE",
"233 215 OFFCURVE",
"233 206 CURVE SMOOTH",
"233 200 OFFCURVE",
"236 195 OFFCURVE",
"248 193 CURVE SMOOTH",
"289 186 OFFCURVE",
"340 175 OFFCURVE",
"340 157 CURVE SMOOTH",
"340 121 OFFCURVE",
"221 46 OFFCURVE",
"115 1 CURVE SMOOTH",
"68 -19 OFFCURVE",
"26 -39 OFFCURVE",
"-15 -50 CURVE SMOOTH",
"-39 -56 OFFCURVE",
"-47 -62 OFFCURVE",
"-47 -71 CURVE SMOOTH",
"-47 -82 OFFCURVE",
"-40 -85 OFFCURVE",
"-27 -85 CURVE SMOOTH"
);
}
);
width = 449;
},
{
layerId = "C1B76EF4-5E0A-4C02-BFBB-E14F816E0475";
paths = (
{
closed = 1;
nodes = (
"60 -77 OFFCURVE",
"101 -65 OFFCURVE",
"158 -29 CURVE SMOOTH",
"244 25 OFFCURVE",
"371 113 OFFCURVE",
"371 188 CURVE SMOOTH",
"371 214 OFFCURVE",
"359 222 OFFCURVE",
"350 231 CURVE",
"354 233 OFFCURVE",
"361 237 OFFCURVE",
"377 248 CURVE SMOOTH",
"403 265 OFFCURVE",
"430 293 OFFCURVE",
"430 329 CURVE SMOOTH",
"430 360 OFFCURVE",
"399 371 OFFCURVE",
"369 378 CURVE",
"376 383 OFFCURVE",
"381 386 OFFCURVE",
"399 396 CURVE SMOOTH",
"422 409 OFFCURVE",
"436 418 OFFCURVE",
"436 436 CURVE SMOOTH",
"436 471 OFFCURVE",
"405 497 OFFCURVE",
"369 497 CURVE SMOOTH",
"333 497 OFFCURVE",
"301 470 OFFCURVE",
"272 451 CURVE SMOOTH",
"243 432 OFFCURVE",
"190 412 OFFCURVE",
"190 374 CURVE SMOOTH",
"190 347 OFFCURVE",
"218 336 OFFCURVE",
"239 328 CURVE SMOOTH",
"255 322 OFFCURVE",
"277 317 OFFCURVE",
"277 313 CURVE SMOOTH",
"277 305 OFFCURVE",
"256 305 OFFCURVE",
"219 289 CURVE SMOOTH",
"172 268 OFFCURVE",
"158 254 OFFCURVE",
"158 230 CURVE SMOOTH",
"158 215 OFFCURVE",
"168 198 OFFCURVE",
"181 190 CURVE SMOOTH",
"196 181 OFFCURVE",
"217 176 OFFCURVE",
"226 172 CURVE",
"226 150 OFFCURVE",
"178 131 OFFCURVE",
"123 112 CURVE SMOOTH",
"92 101 OFFCURVE",
"61 96 OFFCURVE",
"34 90 CURVE SMOOTH",
"-29 77 OFFCURVE",
"-62 43 OFFCURVE",
"-62 4 CURVE SMOOTH",
"-62 -45 OFFCURVE",
"-34 -77 OFFCURVE",
"28 -77 CURVE SMOOTH"
);
}
);
width = 461;
}
);
unicode = 078A;
category = Letter;
},
{
glyphname = uni078B;
lastChange = "2018-10-11 13:36:43 +0000";
layers = (
{
layerId = UUID0;
paths = (
{
closed = 1;
nodes = (
"17 -78 OFFCURVE",
"76 -60 OFFCURVE",
"147 -10 CURVE SMOOTH",
"205 31 OFFCURVE",
"257 80 OFFCURVE",
"318 152 CURVE",
"338 149 OFFCURVE",
"355 148 OFFCURVE",
"369 148 CURVE SMOOTH",
"474 148 OFFCURVE",
"581 203 OFFCURVE",
"581 308 CURVE SMOOTH",
"581 350 OFFCURVE",
"554 381 OFFCURVE",
"539 386 CURVE",
"575 399 OFFCURVE",
"604 412 OFFCURVE",
"604 439 CURVE SMOOTH",
"604 461 OFFCURVE",
"588 479 OFFCURVE",
"564 479 CURVE SMOOTH",
"542 479 OFFCURVE",
"528 460 OFFCURVE",
"503 450 CURVE SMOOTH",
"465 435 OFFCURVE",
"410 435 OFFCURVE",
"410 391 CURVE SMOOTH",
"410 372 OFFCURVE",
"424 364 OFFCURVE",
"437 358 CURVE SMOOTH",
"458 348 OFFCURVE",
"483 341 OFFCURVE",
"483 306 CURVE SMOOTH",
"483 261 OFFCURVE",
"436 238 OFFCURVE",
"395 238 CURVE SMOOTH",
"376 238 OFFCURVE",
"359 240 OFFCURVE",
"346 245 CURVE",
"339 268 OFFCURVE",
"316 298 OFFCURVE",
"278 298 CURVE SMOOTH",
"243 298 OFFCURVE",
"215 271 OFFCURVE",
"215 235 CURVE SMOOTH",
"215 217 OFFCURVE",
"223 198 OFFCURVE",
"235 187 CURVE",
"193 144 OFFCURVE",
"165 119 OFFCURVE",
"104 80 CURVE SMOOTH",
"68 57 OFFCURVE",
"20 43 OFFCURVE",
"-18 31 CURVE SMOOTH",
"-45 22 OFFCURVE",
"-59 4 OFFCURVE",
"-59 -21 CURVE SMOOTH",
"-59 -57 OFFCURVE",
"-39 -78 OFFCURVE",
"-1 -78 CURVE SMOOTH"
);
}
);
width = 634;
},
{
layerId = "20DCAE03-7ADA-4AB6-8D13-19ECCD31BD40";
paths = (
{
closed = 1;
nodes = (
"41 -78 OFFCURVE",
"79 -68 OFFCURVE",
"138 -25 CURVE SMOOTH",
"234 45 OFFCURVE",
"247 56 OFFCURVE",
"313 135 CURVE",
"329 132 OFFCURVE",
"345 132 OFFCURVE",
"357 132 CURVE SMOOTH",
"492 132 OFFCURVE",
"589 208 OFFCURVE",
"589 307 CURVE SMOOTH",
"589 336 OFFCURVE",
"571 371 OFFCURVE",
"546 384 CURVE",
"570 394 OFFCURVE",
"604 409 OFFCURVE",
"604 440 CURVE SMOOTH",
"604 468 OFFCURVE",
"585 488 OFFCURVE",
"557 488 CURVE SMOOTH",
"537 488 OFFCURVE",
"517 480 OFFCURVE",
"492 464 CURVE SMOOTH",
"458 443 OFFCURVE",
"390 446 OFFCURVE",
"390 392 CURVE SMOOTH",
"390 372 OFFCURVE",
"406 355 OFFCURVE",
"439 345 CURVE SMOOTH",
"455 340 OFFCURVE",
"465 325 OFFCURVE",
"465 305 CURVE SMOOTH",
"465 256 OFFCURVE",
"428 242 OFFCURVE",
"383 242 CURVE SMOOTH",
"370 242 OFFCURVE",
"357 243 OFFCURVE",
"346 246 CURVE",
"335 279 OFFCURVE",
"308 302 OFFCURVE",
"276 302 CURVE SMOOTH",
"229 302 OFFCURVE",
"193 274 OFFCURVE",
"193 223 CURVE SMOOTH",
"193 207 OFFCURVE",
"199 193 OFFCURVE",
"211 180 CURVE",
"168 136 OFFCURVE",
"133 110 OFFCURVE",
"98 91 CURVE SMOOTH",
"68 75 OFFCURVE",
"39 63 OFFCURVE",
"6 53 CURVE SMOOTH",
"-35 40 OFFCURVE",
"-59 20 OFFCURVE",
"-59 -12 CURVE SMOOTH",
"-59 -54 OFFCURVE",
"-34 -78 OFFCURVE",
"14 -78 CURVE SMOOTH"
);
}
);
width = 633;
},
{
layerId = "474759B3-6A21-45C1-BBBC-641F1925F03A";
paths = (
{
closed = 1;
nodes = (
"-1 -80 OFFCURVE",
"114 -26 OFFCURVE",
"153 0 CURVE SMOOTH",
"192 26 OFFCURVE",
"282 92 OFFCURVE",
"335 176 CURVE",
"346 172 OFFCURVE",
"359 170 OFFCURVE",
"392 170 CURVE SMOOTH",
"487 170 OFFCURVE",
"583 243 OFFCURVE",
"583 313 CURVE SMOOTH",
"583 348 OFFCURVE",
"566 373 OFFCURVE",
"515 393 CURVE",
"560 403 OFFCURVE",
"615 430 OFFCURVE",
"615 441 CURVE SMOOTH",
"615 449 OFFCURVE",
"613 452 OFFCURVE",
"603 452 CURVE SMOOTH",
"596 452 OFFCURVE",
"577 432 OFFCURVE",
"542 421 CURVE SMOOTH",
"511 411 OFFCURVE",
"480 403 OFFCURVE",
"480 394 CURVE SMOOTH",
"480 388 OFFCURVE",
"483 386 OFFCURVE",
"494 381 CURVE SMOOTH",
"536 364 OFFCURVE",
"561 347 OFFCURVE",
"561 310 CURVE SMOOTH",
"561 253 OFFCURVE",
"474 190 OFFCURVE",
"394 190 CURVE SMOOTH",
"377 190 OFFCURVE",
"361 192 OFFCURVE",
"354 193 CURVE",
"347 206 OFFCURVE",
"328 220 OFFCURVE",
"314 220 CURVE SMOOTH",
"303 220 OFFCURVE",
"295 212 OFFCURVE",
"295 202 CURVE SMOOTH",
"295 194 OFFCURVE",
"302 187 OFFCURVE",
"313 182 CURVE",
"262 99 OFFCURVE",
"162 34 OFFCURVE",
"135 17 CURVE SMOOTH",
"100 -5 OFFCURVE",
"24 -35 OFFCURVE",
"-31 -47 CURVE SMOOTH",
"-47 -51 OFFCURVE",
"-54 -56 OFFCURVE",
"-54 -66 CURVE SMOOTH",
"-54 -72 OFFCURVE",
"-50 -80 OFFCURVE",
"-39 -80 CURVE SMOOTH"
);
}
);
width = 634;
},
{
layerId = "C1B76EF4-5E0A-4C02-BFBB-E14F816E0475";
paths = (
{
closed = 1;
nodes = (
"54 -77 OFFCURVE",
"75 -73 OFFCURVE",
"134 -32 CURVE SMOOTH",
"193 9 OFFCURVE",
"237 46 OFFCURVE",
"307 123 CURVE",
"324 121 OFFCURVE",
"341 121 OFFCURVE",
"347 121 CURVE SMOOTH",
"493 121 OFFCURVE",
"591 198 OFFCURVE",
"591 305 CURVE SMOOTH",
"591 333 OFFCURVE",
"572 370 OFFCURVE",
"555 381 CURVE",
"567 386 OFFCURVE",
"607 403 OFFCURVE",
"607 440 CURVE SMOOTH",
"607 473 OFFCURVE",
"577 498 OFFCURVE",
"544 498 CURVE SMOOTH",
"520 498 OFFCURVE",
"503 484 OFFCURVE",
"468 472 CURVE SMOOTH",
"428 458 OFFCURVE",
"364 447 OFFCURVE",
"364 391 CURVE SMOOTH",
"364 367 OFFCURVE",
"384 345 OFFCURVE",
"414 335 CURVE SMOOTH",
"432 329 OFFCURVE",
"438 319 OFFCURVE",
"438 304 CURVE SMOOTH",
"438 277 OFFCURVE",
"419 257 OFFCURVE",
"380 257 CURVE SMOOTH",
"368 257 OFFCURVE",
"356 258 OFFCURVE",
"344 261 CURVE",
"332 300 OFFCURVE",
"302 325 OFFCURVE",
"259 325 CURVE SMOOTH",
"208 325 OFFCURVE",
"164 292 OFFCURVE",
"164 229 CURVE SMOOTH",
"164 211 OFFCURVE",
"170 195 OFFCURVE",
"182 179 CURVE",
"141 146 OFFCURVE",
"114 125 OFFCURVE",
"87 112 CURVE SMOOTH",
"67 102 OFFCURVE",
"49 93 OFFCURVE",
"17 82 CURVE SMOOTH",
"-33 65 OFFCURVE",
"-60 42 OFFCURVE",
"-60 3 CURVE SMOOTH",
"-60 -49 OFFCURVE",
"-29 -77 OFFCURVE",
"24 -77 CURVE SMOOTH"
);
}
);
width = 633;
}
);
unicode = 078B;
category = Letter;
},
{
glyphname = uni078C;
lastChange = "2018-10-11 13:36:43 +0000";
layers = (
{
layerId = UUID0;
paths = (
{
closed = 1;
nodes = (
"173 -44 OFFCURVE",
"296 5 OFFCURVE",
"296 81 CURVE SMOOTH",
"296 106 OFFCURVE",
"281 125 OFFCURVE",
"266 140 CURVE SMOOTH",
"252 154 OFFCURVE",
"239 164 OFFCURVE",
"239 171 CURVE SMOOTH",
"239 181 OFFCURVE",
"257 194 OFFCURVE",
"278 208 CURVE",
"322 168 OFFCURVE",
"380 153 OFFCURVE",
"415 153 CURVE SMOOTH",
"492 153 OFFCURVE",
"587 205 OFFCURVE",
"587 300 CURVE SMOOTH",
"587 357 OFFCURVE",
"560 391 OFFCURVE",
"499 391 CURVE SMOOTH",
"372 391 OFFCURVE",
"140 241 OFFCURVE",
"140 151 CURVE SMOOTH",
"140 137 OFFCURVE",
"157 127 OFFCURVE",
"172 116 CURVE SMOOTH",
"185 106 OFFCURVE",
"196 97 OFFCURVE",
"196 84 CURVE SMOOTH",
"196 55 OFFCURVE",
"150 43 OFFCURVE",
"94 43 CURVE SMOOTH",
"82 43 OFFCURVE",
"64 46 OFFCURVE",
"52 50 CURVE SMOOTH",
"41 54 OFFCURVE",
"31 57 OFFCURVE",
"17 57 CURVE SMOOTH",
"-12 57 OFFCURVE",
"-24 38 OFFCURVE",
"-24 10 CURVE SMOOTH",
"-24 -8 OFFCURVE",
"-12 -22 OFFCURVE",
"6 -30 CURVE SMOOTH",
"29 -40 OFFCURVE",
"60 -44 OFFCURVE",
"91 -44 CURVE SMOOTH"
);
},
{
closed = 1;
nodes = (
"395 236 OFFCURVE",
"375 245 OFFCURVE",
"358 258 CURVE",
"408 287 OFFCURVE",
"462 310 OFFCURVE",
"478 310 CURVE SMOOTH",
"488 310 OFFCURVE",
"494 308 OFFCURVE",
"494 297 CURVE SMOOTH",
"494 264 OFFCURVE",
"475 236 OFFCURVE",
"420 236 CURVE SMOOTH"
);
}
);
width = 649;
},
{
layerId = "20DCAE03-7ADA-4AB6-8D13-19ECCD31BD40";
paths = (
{
closed = 1;
nodes = (
"209 -44 OFFCURVE",
"308 7 OFFCURVE",
"308 80 CURVE SMOOTH",
"308 103 OFFCURVE",
"292 121 OFFCURVE",
"270 141 CURVE SMOOTH",
"253 157 OFFCURVE",
"242 168 OFFCURVE",
"242 171 CURVE SMOOTH",
"242 177 OFFCURVE",
"257 194 OFFCURVE",
"269 204 CURVE",
"295 173 OFFCURVE",
"360 145 OFFCURVE",
"414 145 CURVE SMOOTH",
"502 145 OFFCURVE",
"597 208 OFFCURVE",
"597 305 CURVE SMOOTH",
"597 369 OFFCURVE",
"549 405 OFFCURVE",
"478 405 CURVE SMOOTH",
"367 405 OFFCURVE",
"133 276 OFFCURVE",
"133 163 CURVE SMOOTH",
"133 151 OFFCURVE",
"140 136 OFFCURVE",
"164 120 CURVE SMOOTH",
"178 110 OFFCURVE",
"188 101 OFFCURVE",
"188 94 CURVE SMOOTH",
"188 72 OFFCURVE",
"164 61 OFFCURVE",
"110 61 CURVE SMOOTH",
"94 61 OFFCURVE",
"80 66 OFFCURVE",
"64 70 CURVE SMOOTH",
"54 73 OFFCURVE",
"43 75 OFFCURVE",
"32 75 CURVE SMOOTH",
"-8 75 OFFCURVE",
"-24 54 OFFCURVE",
"-24 20 CURVE SMOOTH",
"-24 -8 OFFCURVE",
"-2 -28 OFFCURVE",
"39 -37 CURVE SMOOTH",
"58 -41 OFFCURVE",
"81 -44 OFFCURVE",
"107 -44 CURVE SMOOTH"
);
},
{
closed = 1;
nodes = (
"372 240 OFFCURVE",
"347 247 OFFCURVE",
"325 263 CURVE",
"360 284 OFFCURVE",
"417 315 OFFCURVE",
"458 315 CURVE SMOOTH",
"465 315 OFFCURVE",
"475 311 OFFCURVE",
"475 304 CURVE SMOOTH",
"475 264 OFFCURVE",
"441 240 OFFCURVE",
"393 240 CURVE SMOOTH"
);
}
);
width = 657;
},
{
layerId = "474759B3-6A21-45C1-BBBC-641F1925F03A";
paths = (
{
closed = 1;
nodes = (
"172 -48 OFFCURVE",
"288 -8 OFFCURVE",
"288 56 CURVE SMOOTH",
"288 75 OFFCURVE",
"276 93 OFFCURVE",
"232 114 CURVE SMOOTH",
"212 123 OFFCURVE",
"185 135 OFFCURVE",
"185 150 CURVE SMOOTH",
"185 182 OFFCURVE",
"235 220 OFFCURVE",
"281 249 CURVE",
"331 198 OFFCURVE",
"401 169 OFFCURVE",
"459 169 CURVE SMOOTH",
"533 169 OFFCURVE",
"606 218 OFFCURVE",
"606 295 CURVE SMOOTH",
"606 336 OFFCURVE",
"582 361 OFFCURVE",
"520 361 CURVE SMOOTH",
"398 361 OFFCURVE",
"162 227 OFFCURVE",
"162 146 CURVE SMOOTH",
"162 132 OFFCURVE",
"172 118 OFFCURVE",
"208 102 CURVE SMOOTH",
"246 85 OFFCURVE",
"266 73 OFFCURVE",
"266 53 CURVE SMOOTH",
"266 0 OFFCURVE",
"154 -25 OFFCURVE",
"97 -25 CURVE SMOOTH",
"74 -25 OFFCURVE",
"49 -21 OFFCURVE",
"35 -18 CURVE SMOOTH",
"19 -15 OFFCURVE",
"7 -8 OFFCURVE",
"-3 -8 CURVE SMOOTH",
"-12 -8 OFFCURVE",
"-17 -13 OFFCURVE",
"-17 -21 CURVE SMOOTH",
"-17 -28 OFFCURVE",
"-11 -35 OFFCURVE",
"4 -39 CURVE SMOOTH",
"22 -44 OFFCURVE",
"51 -48 OFFCURVE",
"91 -48 CURVE SMOOTH"
);
},
{
closed = 1;
nodes = (
"405 192 OFFCURVE",
"347 220 OFFCURVE",
"300 262 CURVE",
"384 311 OFFCURVE",
"474 338 OFFCURVE",
"518 338 CURVE SMOOTH",
"558 338 OFFCURVE",
"583 328 OFFCURVE",
"583 291 CURVE SMOOTH",
"583 238 OFFCURVE",
"522 192 OFFCURVE",
"459 192 CURVE SMOOTH"
);
}
);
width = 649;
},
{
layerId = "C1B76EF4-5E0A-4C02-BFBB-E14F816E0475";
paths = (
{
closed = 1;
nodes = (
"220 -43 OFFCURVE",
"314 11 OFFCURVE",
"314 87 CURVE SMOOTH",
"314 111 OFFCURVE",
"300 124 OFFCURVE",
"285 144 CURVE SMOOTH",
"271 162 OFFCURVE",
"258 172 OFFCURVE",
"258 177 CURVE SMOOTH",
"258 184 OFFCURVE",
"262 188 OFFCURVE",
"266 191 CURVE",
"294 168 OFFCURVE",
"348 138 OFFCURVE",
"401 138 CURVE SMOOTH",
"498 138 OFFCURVE",
"604 205 OFFCURVE",
"604 308 CURVE SMOOTH",
"604 378 OFFCURVE",
"550 418 OFFCURVE",
"476 418 CURVE SMOOTH",
"365 418 OFFCURVE",
"125 290 OFFCURVE",
"125 168 CURVE SMOOTH",
"125 152 OFFCURVE",
"133 141 OFFCURVE",
"152 124 CURVE SMOOTH",
"161 116 OFFCURVE",
"166 108 OFFCURVE",
"166 102 CURVE SMOOTH",
"166 92 OFFCURVE",
"154 86 OFFCURVE",
"124 86 CURVE SMOOTH",
"110 86 OFFCURVE",
"89 91 OFFCURVE",
"78 93 CURVE SMOOTH",
"64 96 OFFCURVE",
"47 99 OFFCURVE",
"28 99 CURVE SMOOTH",
"-20 99 OFFCURVE",
"-36 73 OFFCURVE",
"-36 32 CURVE SMOOTH",
"-36 -2 OFFCURVE",
"-5 -26 OFFCURVE",
"41 -35 CURVE SMOOTH",
"68 -40 OFFCURVE",
"90 -43 OFFCURVE",
"112 -43 CURVE SMOOTH"
);
},
{
closed = 1;
nodes = (
"363 254 OFFCURVE",
"347 257 OFFCURVE",
"332 263 CURVE",
"356 278 OFFCURVE",
"406 309 OFFCURVE",
"442 309 CURVE SMOOTH",
"453 309 OFFCURVE",
"459 305 OFFCURVE",
"459 297 CURVE SMOOTH",
"459 274 OFFCURVE",
"425 254 OFFCURVE",
"374 254 CURVE SMOOTH"
);
}
);
width = 659;
}
);
unicode = 078C;
category = Letter;
},
{
glyphname = uni078D;
lastChange = "2018-10-11 13:36:43 +0000";
layers = (
{
layerId = UUID0;
paths = (
{
closed = 1;
nodes = (
"25 -78 OFFCURVE",
"74 -61 OFFCURVE",
"140 -23 CURVE SMOOTH",
"257 44 OFFCURVE",
"394 172 OFFCURVE",
"484 270 CURVE SMOOTH",
"513 301 OFFCURVE",
"527 319 OFFCURVE",
"527 342 CURVE SMOOTH",
"527 363 OFFCURVE",
"513 374 OFFCURVE",
"493 374 CURVE SMOOTH",
"470 374 OFFCURVE",
"447 371 OFFCURVE",
"425 369 CURVE SMOOTH",
"396 366 OFFCURVE",
"367 363 OFFCURVE",
"338 362 CURVE",
"363 378 OFFCURVE",
"381 392 OFFCURVE",
"392 406 CURVE SMOOTH",
"401 417 OFFCURVE",
"406 428 OFFCURVE",
"406 438 CURVE SMOOTH",
"406 460 OFFCURVE",
"391 479 OFFCURVE",
"368 479 CURVE SMOOTH",
"351 479 OFFCURVE",
"336 472 OFFCURVE",
"324 458 CURVE SMOOTH",
"296 426 OFFCURVE",
"267 399 OFFCURVE",
"229 373 CURVE SMOOTH",
"215 363 OFFCURVE",
"208 350 OFFCURVE",
"208 334 CURVE SMOOTH",
"208 303 OFFCURVE",
"239 282 OFFCURVE",
"294 282 CURVE SMOOTH",
"330 282 OFFCURVE",
"360 283 OFFCURVE",
"390 287 CURVE",
"301 207 OFFCURVE",
"198 123 OFFCURVE",
"153 99 CURVE SMOOTH",
"70 54 OFFCURVE",
"27 42 OFFCURVE",
"-13 32 CURVE SMOOTH",
"-43 25 OFFCURVE",
"-59 7 OFFCURVE",
"-59 -21 CURVE SMOOTH",
"-59 -55 OFFCURVE",
"-38 -78 OFFCURVE",
"3 -78 CURVE SMOOTH"
);
}
);
width = 576;
},
{
layerId = "20DCAE03-7ADA-4AB6-8D13-19ECCD31BD40";
paths = (
{
closed = 1;
nodes = (
"43 -78 OFFCURVE",
"84 -68 OFFCURVE",
"177 -12 CURVE SMOOTH",
"318 73 OFFCURVE",
"493 268 OFFCURVE",
"508 294 CURVE SMOOTH",
"517 309 OFFCURVE",
"521 321 OFFCURVE",
"521 333 CURVE SMOOTH",
"521 360 OFFCURVE",
"505 376 OFFCURVE",
"476 376 CURVE SMOOTH",
"458 376 OFFCURVE",
"439 369 OFFCURVE",
"412 365 CURVE SMOOTH",
"388 361 OFFCURVE",
"357 356 OFFCURVE",
"337 355 CURVE",
"360 369 OFFCURVE",
"378 385 OFFCURVE",
"390 400 CURVE SMOOTH",
"402 414 OFFCURVE",
"408 428 OFFCURVE",
"408 438 CURVE SMOOTH",
"408 466 OFFCURVE",
"386 488 OFFCURVE",
"355 488 CURVE SMOOTH",
"333 488 OFFCURVE",
"313 480 OFFCURVE",
"299 463 CURVE SMOOTH",
"271 431 OFFCURVE",
"250 404 OFFCURVE",
"218 381 CURVE SMOOTH",
"195 365 OFFCURVE",
"179 345 OFFCURVE",
"179 327 CURVE SMOOTH",
"179 290 OFFCURVE",
"215 264 OFFCURVE",
"280 264 CURVE SMOOTH",
"305 264 OFFCURVE",
"342 266 OFFCURVE",
"357 270 CURVE",
"325 241 OFFCURVE",
"287 212 OFFCURVE",
"236 175 CURVE SMOOTH",
"127 95 OFFCURVE",
"69 73 OFFCURVE",
"3 53 CURVE SMOOTH",
"-38 41 OFFCURVE",
"-60 22 OFFCURVE",
"-60 -12 CURVE SMOOTH",
"-60 -52 OFFCURVE",
"-34 -78 OFFCURVE",
"17 -78 CURVE SMOOTH"
);
}
);
width = 569;
},
{
layerId = "474759B3-6A21-45C1-BBBC-641F1925F03A";
paths = (
{
closed = 1;
nodes = (
"0 -85 OFFCURVE",
"115 -14 OFFCURVE",
"201 43 CURVE SMOOTH",
"275 92 OFFCURVE",
"421 228 OFFCURVE",
"484 294 CURVE SMOOTH",
"503 314 OFFCURVE",
"514 328 OFFCURVE",
"514 331 CURVE SMOOTH",
"514 342 OFFCURVE",
"507 346 OFFCURVE",
"492 346 CURVE SMOOTH",
"457 345 OFFCURVE",
"414 341 OFFCURVE",
"370 337 CURVE SMOOTH",
"322 333 OFFCURVE",
"274 329 OFFCURVE",
"235 329 CURVE",
"307 374 OFFCURVE",
"381 414 OFFCURVE",
"416 439 CURVE SMOOTH",
"421 442 OFFCURVE",
"422 445 OFFCURVE",
"422 449 CURVE SMOOTH",
"422 452 OFFCURVE",
"419 457 OFFCURVE",
"412 457 CURVE SMOOTH",
"405 457 OFFCURVE",
"397 455 OFFCURVE",
"379 444 CURVE SMOOTH",
"359 432 OFFCURVE",
"315 402 OFFCURVE",
"249 364 CURVE SMOOTH",
"215 345 OFFCURVE",
"212 336 OFFCURVE",
"212 327 CURVE SMOOTH",
"212 321 OFFCURVE",
"215 307 OFFCURVE",
"245 307 CURVE SMOOTH",
"324 307 OFFCURVE",
"457 328 OFFCURVE",
"487 327 CURVE",
"452 288 OFFCURVE",
"293 137 OFFCURVE",
"180 59 CURVE SMOOTH",
"109 10 OFFCURVE",
"11 -42 OFFCURVE",
"-15 -50 CURVE SMOOTH",
"-38 -57 OFFCURVE",
"-47 -62 OFFCURVE",
"-47 -71 CURVE SMOOTH",
"-47 -82 OFFCURVE",
"-40 -85 OFFCURVE",
"-27 -85 CURVE SMOOTH"
);
}
);
width = 576;
},
{
layerId = "C1B76EF4-5E0A-4C02-BFBB-E14F816E0475";
paths = (
{
closed = 1;
nodes = (
"75 -76 OFFCURVE",
"103 -67 OFFCURVE",
"170 -28 CURVE SMOOTH",
"335 68 OFFCURVE",
"502 263 OFFCURVE",
"519 289 CURVE SMOOTH",
"528 303 OFFCURVE",
"533 319 OFFCURVE",
"533 334 CURVE SMOOTH",
"533 365 OFFCURVE",
"514 385 OFFCURVE",
"481 385 CURVE SMOOTH",
"470 385 OFFCURVE",
"445 379 OFFCURVE",
"424 373 CURVE SMOOTH",
"407 368 OFFCURVE",
"374 362 OFFCURVE",
"359 362 CURVE",
"368 368 OFFCURVE",
"375 378 OFFCURVE",
"387 392 CURVE SMOOTH",
"402 409 OFFCURVE",
"412 428 OFFCURVE",
"412 442 CURVE SMOOTH",
"412 473 OFFCURVE",
"381 497 OFFCURVE",
"339 497 CURVE SMOOTH",
"312 497 OFFCURVE",
"289 487 OFFCURVE",
"271 463 CURVE SMOOTH",
"246 431 OFFCURVE",
"234 410 OFFCURVE",
"209 386 CURVE SMOOTH",
"191 369 OFFCURVE",
"170 348 OFFCURVE",
"170 327 CURVE SMOOTH",
"170 281 OFFCURVE",
"215 252 OFFCURVE",
"290 252 CURVE SMOOTH",
"300 252 OFFCURVE",
"314 254 OFFCURVE",
"320 254 CURVE",
"289 228 OFFCURVE",
"281 223 OFFCURVE",
"247 198 CURVE SMOOTH",
"127 112 OFFCURVE",
"73 98 OFFCURVE",
"8 82 CURVE SMOOTH",
"-48 68 OFFCURVE",
"-74 46 OFFCURVE",
"-74 5 CURVE SMOOTH",
"-74 -43 OFFCURVE",
"-42 -76 OFFCURVE",
"30 -76 CURVE SMOOTH"
);
}
);
width = 567;
}
);
unicode = 078D;
category = Letter;
},
{
glyphname = uni078E;
lastChange = "2018-10-11 13:36:43 +0000";
layers = (
{
layerId = UUID0;
paths = (
{
closed = 1;
nodes = (
"201 -44 OFFCURVE",
"355 10 OFFCURVE",
"355 112 CURVE SMOOTH",
"355 137 OFFCURVE",
"334 160 OFFCURVE",
"313 180 CURVE SMOOTH",
"297 195 OFFCURVE",
"283 208 OFFCURVE",
"283 216 CURVE SMOOTH",
"283 225 OFFCURVE",
"296 234 OFFCURVE",
"319 248 CURVE SMOOTH",
"341 261 OFFCURVE",
"372 279 OFFCURVE",
"407 297 CURVE SMOOTH",
"448 318 OFFCURVE",
"473 330 OFFCURVE",
"473 349 CURVE SMOOTH",
"473 372 OFFCURVE",
"456 391 OFFCURVE",
"426 391 CURVE SMOOTH",
"404 391 OFFCURVE",
"355 368 OFFCURVE",
"333 356 CURVE SMOOTH",
"274 325 OFFCURVE",
"262 316 OFFCURVE",
"250 308 CURVE SMOOTH",
"199 273 OFFCURVE",
"185 247 OFFCURVE",
"185 222 CURVE SMOOTH",
"185 193 OFFCURVE",
"203 169 OFFCURVE",
"222 149 CURVE SMOOTH",
"240 130 OFFCURVE",
"257 114 OFFCURVE",
"257 103 CURVE SMOOTH",
"257 66 OFFCURVE",
"182 44 OFFCURVE",
"90 44 CURVE SMOOTH",
"65 44 OFFCURVE",
"44 50 OFFCURVE",
"27 55 CURVE SMOOTH",
"11 60 OFFCURVE",
"1 63 OFFCURVE",
"-10 63 CURVE SMOOTH",
"-35 63 OFFCURVE",
"-56 43 OFFCURVE",
"-56 15 CURVE SMOOTH",
"-56 -9 OFFCURVE",
"-36 -25 OFFCURVE",
"-9 -34 CURVE SMOOTH",
"13 -41 OFFCURVE",
"39 -44 OFFCURVE",
"73 -44 CURVE SMOOTH"
);
}
);
width = 500;
},
{
layerId = "20DCAE03-7ADA-4AB6-8D13-19ECCD31BD40";
paths = (
{
closed = 1;
nodes = (
"206 -44 OFFCURVE",
"365 10 OFFCURVE",
"365 112 CURVE SMOOTH",
"365 137 OFFCURVE",
"344 160 OFFCURVE",
"323 180 CURVE SMOOTH",
"304 198 OFFCURVE",
"293 217 OFFCURVE",
"293 221 CURVE SMOOTH",
"293 230 OFFCURVE",
"299 239 OFFCURVE",
"329 256 CURVE SMOOTH",
"347 266 OFFCURVE",
"377 281 OFFCURVE",
"407 295 CURVE SMOOTH",
"446 314 OFFCURVE",
"473 330 OFFCURVE",
"473 357 CURVE SMOOTH",
"473 383 OFFCURVE",
"456 411 OFFCURVE",
"426 411 CURVE SMOOTH",
"405 411 OFFCURVE",
"369 394 OFFCURVE",
"329 374 CURVE SMOOTH",
"279 349 OFFCURVE",
"253 332 OFFCURVE",
"240 323 CURVE SMOOTH",
"187 287 OFFCURVE",
"175 250 OFFCURVE",
"175 222 CURVE SMOOTH",
"175 193 OFFCURVE",
"188 176 OFFCURVE",
"207 152 CURVE SMOOTH",
"219 137 OFFCURVE",
"237 114 OFFCURVE",
"237 103 CURVE SMOOTH",
"237 79 OFFCURVE",
"171 64 OFFCURVE",
"90 64 CURVE SMOOTH",
"64 64 OFFCURVE",
"43 70 OFFCURVE",
"27 75 CURVE SMOOTH",
"11 80 OFFCURVE",
"1 83 OFFCURVE",
"-10 83 CURVE SMOOTH",
"-35 83 OFFCURVE",
"-56 55 OFFCURVE",
"-56 20 CURVE SMOOTH",
"-56 -9 OFFCURVE",
"-36 -25 OFFCURVE",
"-9 -34 CURVE SMOOTH",
"13 -41 OFFCURVE",
"39 -44 OFFCURVE",
"65 -44 CURVE SMOOTH"
);
}
);
width = 502;
},
{
layerId = "474759B3-6A21-45C1-BBBC-641F1925F03A";
paths = (
{
closed = 1;
nodes = (
"223 -38 OFFCURVE",
"345 7 OFFCURVE",
"345 76 CURVE SMOOTH",
"345 108 OFFCURVE",
"319 136 OFFCURVE",
"286 158 CURVE SMOOTH",
"257 178 OFFCURVE",
"236 194 OFFCURVE",
"236 215 CURVE SMOOTH",
"236 239 OFFCURVE",
"267 264 OFFCURVE",
"309 285 CURVE SMOOTH",
"366 314 OFFCURVE",
"409 327 OFFCURVE",
"461 342 CURVE SMOOTH",
"476 346 OFFCURVE",
"482 350 OFFCURVE",
"482 356 CURVE SMOOTH",
"482 361 OFFCURVE",
"479 365 OFFCURVE",
"470 365 CURVE SMOOTH",
"461 365 OFFCURVE",
"456 363 OFFCURVE",
"431 355 CURVE SMOOTH",
"404 346 OFFCURVE",
"357 330 OFFCURVE",
"306 305 CURVE SMOOTH",
"233 269 OFFCURVE",
"214 240 OFFCURVE",
"214 216 CURVE SMOOTH",
"214 195 OFFCURVE",
"235 171 OFFCURVE",
"268 148 CURVE SMOOTH",
"301 125 OFFCURVE",
"323 105 OFFCURVE",
"323 75 CURVE SMOOTH",
"323 19 OFFCURVE",
"210 -16 OFFCURVE",
"87 -16 CURVE SMOOTH",
"43 -16 OFFCURVE",
"4 -5 OFFCURVE",
"-8 0 CURVE SMOOTH",
"-18 4 OFFCURVE",
"-28 10 OFFCURVE",
"-37 10 CURVE SMOOTH",
"-45 10 OFFCURVE",
"-49 5 OFFCURVE",
"-49 -1 CURVE SMOOTH",
"-49 -10 OFFCURVE",
"-41 -16 OFFCURVE",
"-28 -22 CURVE SMOOTH",
"-13 -29 OFFCURVE",
"33 -38 OFFCURVE",
"79 -38 CURVE SMOOTH"
);
}
);
width = 500;
},
{
layerId = "C1B76EF4-5E0A-4C02-BFBB-E14F816E0475";
paths = (
{
closed = 1;
nodes = (
"201 -46 OFFCURVE",
"371 11 OFFCURVE",
"371 122 CURVE SMOOTH",
"371 145 OFFCURVE",
"351 167 OFFCURVE",
"334 186 CURVE SMOOTH",
"317 205 OFFCURVE",
"309 215 OFFCURVE",
"309 223 CURVE SMOOTH",
"309 233 OFFCURVE",
"320 240 OFFCURVE",
"335 248 CURVE SMOOTH",
"342 252 OFFCURVE",
"376 268 OFFCURVE",
"402 282 CURVE SMOOTH",
"451 308 OFFCURVE",
"480 324 OFFCURVE",
"480 357 CURVE SMOOTH",
"480 389 OFFCURVE",
"459 424 OFFCURVE",
"423 424 CURVE SMOOTH",
"398 424 OFFCURVE",
"348 402 OFFCURVE",
"328 392 CURVE SMOOTH",
"272 365 OFFCURVE",
"251 351 OFFCURVE",
"209 319 CURVE SMOOTH",
"174 292 OFFCURVE",
"160 259 OFFCURVE",
"160 232 CURVE SMOOTH",
"160 198 OFFCURVE",
"176 177 OFFCURVE",
"190 153 CURVE SMOOTH",
"198 139 OFFCURVE",
"212 117 OFFCURVE",
"212 111 CURVE SMOOTH",
"212 96 OFFCURVE",
"160 87 OFFCURVE",
"101 87 CURVE SMOOTH",
"70 87 OFFCURVE",
"55 91 OFFCURVE",
"37 96 CURVE SMOOTH",
"18 101 OFFCURVE",
"2 104 OFFCURVE",
"-12 104 CURVE SMOOTH",
"-42 104 OFFCURVE",
"-68 69 OFFCURVE",
"-68 26 CURVE SMOOTH",
"-68 -9 OFFCURVE",
"-45 -28 OFFCURVE",
"-14 -37 CURVE SMOOTH",
"14 -45 OFFCURVE",
"38 -46 OFFCURVE",
"61 -46 CURVE SMOOTH"
);
}
);
width = 503;
}
);
unicode = 078E;
category = Letter;
},
{
glyphname = uni078F;
lastChange = "2018-10-11 13:36:43 +0000";
layers = (
{
layerId = UUID0;
paths = (
{
closed = 1;
nodes = (
"329 -156 OFFCURVE",
"406 -147 OFFCURVE",
"441 -138 CURVE SMOOTH",
"471 -130 OFFCURVE",
"491 -117 OFFCURVE",
"491 -95 CURVE SMOOTH",
"491 -68 OFFCURVE",
"477 -55 OFFCURVE",
"455 -55 CURVE SMOOTH",
"435 -55 OFFCURVE",
"417 -59 OFFCURVE",
"398 -61 CURVE SMOOTH",
"373 -64 OFFCURVE",
"343 -68 OFFCURVE",
"272 -68 CURVE SMOOTH",
"178 -68 OFFCURVE",
"142 -42 OFFCURVE",
"142 4 CURVE SMOOTH",
"142 76 OFFCURVE",
"226 148 OFFCURVE",
"289 187 CURVE",
"303 177 OFFCURVE",
"317 169 OFFCURVE",
"327 169 CURVE SMOOTH",
"355 169 OFFCURVE",
"391 185 OFFCURVE",
"424 233 CURVE",
"436 187 OFFCURVE",
"470 162 OFFCURVE",
"500 162 CURVE SMOOTH",
"538 162 OFFCURVE",
"571 187 OFFCURVE",
"620 231 CURVE SMOOTH",
"665 271 OFFCURVE",
"697 302 OFFCURVE",
"697 340 CURVE SMOOTH",
"697 362 OFFCURVE",
"685 376 OFFCURVE",
"661 376 CURVE SMOOTH",
"641 376 OFFCURVE",
"627 372 OFFCURVE",
"614 359 CURVE SMOOTH",
"604 349 OFFCURVE",
"598 337 OFFCURVE",
"581 311 CURVE SMOOTH",
"559 277 OFFCURVE",
"526 250 OFFCURVE",
"516 250 CURVE SMOOTH",
"503 250 OFFCURVE",
"491 309 OFFCURVE",
"488 336 CURVE SMOOTH",
"486 353 OFFCURVE",
"476 361 OFFCURVE",
"462 361 CURVE SMOOTH",
"455 361 OFFCURVE",
"445 353 OFFCURVE",
"434 342 CURVE SMOOTH",
"410 319 OFFCURVE",
"379 282 OFFCURVE",
"356 282 CURVE SMOOTH",
"343 282 OFFCURVE",
"326 309 OFFCURVE",
"308 337 CURVE SMOOTH",
"299 350 OFFCURVE",
"290 362 OFFCURVE",
"276 362 CURVE SMOOTH",
"229 362 OFFCURVE",
"185 324 OFFCURVE",
"185 291 CURVE SMOOTH",
"185 276 OFFCURVE",
"192 264 OFFCURVE",
"202 255 CURVE SMOOTH",
"210 247 OFFCURVE",
"220 240 OFFCURVE",
"229 234 CURVE",
"150 186 OFFCURVE",
"49 91 OFFCURVE",
"49 -7 CURVE SMOOTH",
"49 -87 OFFCURVE",
"102 -156 OFFCURVE",
"266 -156 CURVE SMOOTH"
);
}
);
width = 722;
},
{
layerId = "20DCAE03-7ADA-4AB6-8D13-19ECCD31BD40";
paths = (
{
closed = 1;
nodes = (
"371 -156 OFFCURVE",
"428 -149 OFFCURVE",
"463 -136 CURVE SMOOTH",
"491 -126 OFFCURVE",
"504 -108 OFFCURVE",
"504 -87 CURVE SMOOTH",
"504 -57 OFFCURVE",
"483 -39 OFFCURVE",
"454 -39 CURVE SMOOTH",
"431 -39 OFFCURVE",
"411 -42 OFFCURVE",
"392 -44 CURVE SMOOTH",
"362 -47 OFFCURVE",
"333 -50 OFFCURVE",
"292 -50 CURVE SMOOTH",
"213 -50 OFFCURVE",
"174 -30 OFFCURVE",
"174 13 CURVE SMOOTH",
"174 74 OFFCURVE",
"216 137 OFFCURVE",
"286 182 CURVE",
"298 171 OFFCURVE",
"320 158 OFFCURVE",
"338 158 CURVE SMOOTH",
"364 158 OFFCURVE",
"390 176 OFFCURVE",
"417 211 CURVE",
"435 174 OFFCURVE",
"443 150 OFFCURVE",
"487 150 CURVE SMOOTH",
"540 150 OFFCURVE",
"590 199 OFFCURVE",
"653 258 CURVE SMOOTH",
"687 289 OFFCURVE",
"704 318 OFFCURVE",
"704 345 CURVE SMOOTH",
"704 373 OFFCURVE",
"688 391 OFFCURVE",
"653 391 CURVE SMOOTH",
"634 391 OFFCURVE",
"617 386 OFFCURVE",
"601 374 CURVE SMOOTH",
"589 365 OFFCURVE",
"577 351 OFFCURVE",
"565 331 CURVE SMOOTH",
"544 294 OFFCURVE",
"523 259 OFFCURVE",
"510 259 CURVE SMOOTH",
"500 259 OFFCURVE",
"497 284 OFFCURVE",
"494 336 CURVE SMOOTH",
"493 354 OFFCURVE",
"483 376 OFFCURVE",
"452 376 CURVE SMOOTH",
"439 376 OFFCURVE",
"427 361 OFFCURVE",
"416 347 CURVE SMOOTH",
"373 294 OFFCURVE",
"359 282 OFFCURVE",
"350 282 CURVE SMOOTH",
"344 282 OFFCURVE",
"336 305 OFFCURVE",
"325 328 CURVE SMOOTH",
"311 358 OFFCURVE",
"293 376 OFFCURVE",
"273 376 CURVE SMOOTH",
"216 376 OFFCURVE",
"167 325 OFFCURVE",
"167 286 CURVE SMOOTH",
"167 266 OFFCURVE",
"178 258 OFFCURVE",
"193 248 CURVE SMOOTH",
"200 243 OFFCURVE",
"211 237 OFFCURVE",
"219 233 CURVE",
"125 175 OFFCURVE",
"49 96 OFFCURVE",
"49 2 CURVE SMOOTH",
"49 -101 OFFCURVE",
"132 -156 OFFCURVE",
"286 -156 CURVE SMOOTH"
);
}
);
width = 733;
},
{
layerId = "474759B3-6A21-45C1-BBBC-641F1925F03A";
paths = (
{
closed = 1;
nodes = (
"367 -170 OFFCURVE",
"427 -160 OFFCURVE",
"481 -147 CURVE SMOOTH",
"492 -144 OFFCURVE",
"499 -139 OFFCURVE",
"499 -132 CURVE SMOOTH",
"499 -126 OFFCURVE",
"495 -120 OFFCURVE",
"485 -120 CURVE SMOOTH",
"475 -120 OFFCURVE",
"465 -123 OFFCURVE",
"441 -130 CURVE SMOOTH",
"409 -139 OFFCURVE",
"373 -148 OFFCURVE",
"287 -148 CURVE SMOOTH",
"143 -148 OFFCURVE",
"86 -102 OFFCURVE",
"86 -28 CURVE SMOOTH",
"86 68 OFFCURVE",
"214 164 OFFCURVE",
"308 212 CURVE",
"321 198 OFFCURVE",
"334 184 OFFCURVE",
"344 184 CURVE SMOOTH",
"361 184 OFFCURVE",
"415 223 OFFCURVE",
"476 296 CURVE",
"483 215 OFFCURVE",
"508 175 OFFCURVE",
"539 175 CURVE SMOOTH",
"564 175 OFFCURVE",
"595 193 OFFCURVE",
"655 252 CURVE SMOOTH",
"690 287 OFFCURVE",
"718 317 OFFCURVE",
"718 338 CURVE SMOOTH",
"718 343 OFFCURVE",
"714 346 OFFCURVE",
"707 346 CURVE SMOOTH",
"700 346 OFFCURVE",
"695 339 OFFCURVE",
"690 329 CURVE SMOOTH",
"685 320 OFFCURVE",
"676 305 OFFCURVE",
"648 275 CURVE SMOOTH",
"606 230 OFFCURVE",
"567 194 OFFCURVE",
"541 194 CURVE SMOOTH",
"521 194 OFFCURVE",
"501 231 OFFCURVE",
"496 302 CURVE SMOOTH",
"494 325 OFFCURVE",
"490 329 OFFCURVE",
"483 329 CURVE SMOOTH",
"476 329 OFFCURVE",
"472 325 OFFCURVE",
"467 317 CURVE SMOOTH",
"431 265 OFFCURVE",
"359 204 OFFCURVE",
"346 204 CURVE SMOOTH",
"335 204 OFFCURVE",
"294 259 OFFCURVE",
"281 282 CURVE SMOOTH",
"270 302 OFFCURVE",
"267 306 OFFCURVE",
"258 306 CURVE SMOOTH",
"252 306 OFFCURVE",
"248 299 OFFCURVE",
"248 296 CURVE SMOOTH",
"248 291 OFFCURVE",
"251 284 OFFCURVE",
"257 276 CURVE SMOOTH",
"276 250 OFFCURVE",
"283 241 OFFCURVE",
"295 226 CURVE",
"207 178 OFFCURVE",
"64 78 OFFCURVE",
"64 -28 CURVE SMOOTH",
"64 -112 OFFCURVE",
"127 -170 OFFCURVE",
"292 -170 CURVE SMOOTH"
);
}
);
width = 722;
},
{
layerId = "C1B76EF4-5E0A-4C02-BFBB-E14F816E0475";
paths = (
{
closed = 1;
nodes = (
"372 -152 OFFCURVE",
"428 -147 OFFCURVE",
"458 -133 CURVE SMOOTH",
"491 -118 OFFCURVE",
"505 -99 OFFCURVE",
"505 -74 CURVE SMOOTH",
"505 -37 OFFCURVE",
"480 -16 OFFCURVE",
"445 -16 CURVE SMOOTH",
"418 -16 OFFCURVE",
"399 -18 OFFCURVE",
"378 -19 CURVE SMOOTH",
"349 -20 OFFCURVE",
"322 -22 OFFCURVE",
"293 -22 CURVE SMOOTH",
"226 -22 OFFCURVE",
"199 1 OFFCURVE",
"199 34 CURVE SMOOTH",
"199 68 OFFCURVE",
"217 129 OFFCURVE",
"280 173 CURVE",
"291 163 OFFCURVE",
"316 151 OFFCURVE",
"336 151 CURVE SMOOTH",
"365 151 OFFCURVE",
"383 163 OFFCURVE",
"400 187 CURVE",
"422 156 OFFCURVE",
"435 143 OFFCURVE",
"472 143 CURVE SMOOTH",
"533 143 OFFCURVE",
"589 201 OFFCURVE",
"666 270 CURVE SMOOTH",
"691 292 OFFCURVE",
"707 322 OFFCURVE",
"707 352 CURVE SMOOTH",
"707 386 OFFCURVE",
"690 408 OFFCURVE",
"644 408 CURVE SMOOTH",
"621 408 OFFCURVE",
"606 404 OFFCURVE",
"591 394 CURVE SMOOTH",
"570 379 OFFCURVE",
"565 373 OFFCURVE",
"550 349 CURVE SMOOTH",
"535 324 OFFCURVE",
"513 282 OFFCURVE",
"504 282 CURVE SMOOTH",
"494 282 OFFCURVE",
"496 324 OFFCURVE",
"493 347 CURVE SMOOTH",
"491 364 OFFCURVE",
"481 389 OFFCURVE",
"443 389 CURVE SMOOTH",
"428 389 OFFCURVE",
"414 381 OFFCURVE",
"398 359 CURVE SMOOTH",
"368 316 OFFCURVE",
"360 304 OFFCURVE",
"354 304 CURVE SMOOTH",
"348 304 OFFCURVE",
"343 318 OFFCURVE",
"332 343 CURVE SMOOTH",
"319 374 OFFCURVE",
"300 396 OFFCURVE",
"277 396 CURVE SMOOTH",
"206 396 OFFCURVE",
"144 337 OFFCURVE",
"144 288 CURVE SMOOTH",
"144 264 OFFCURVE",
"154 257 OFFCURVE",
"168 248 CURVE SMOOTH",
"179 241 OFFCURVE",
"187 237 OFFCURVE",
"196 233 CURVE",
"102 172 OFFCURVE",
"45 101 OFFCURVE",
"45 11 CURVE SMOOTH",
"45 -98 OFFCURVE",
"133 -152 OFFCURVE",
"284 -152 CURVE SMOOTH"
);
}
);
width = 736;
}
);
unicode = 078F;
category = Letter;
},
{
glyphname = uni0790;
lastChange = "2018-10-11 13:36:43 +0000";
layers = (
{
layerId = UUID0;
paths = (
{
closed = 1;
nodes = (
"92 46 OFFCURVE",
"112 54 OFFCURVE",
"133 66 CURVE SMOOTH",
"178 92 OFFCURVE",
"229 139 OFFCURVE",
"249 185 CURVE",
"318 175 OFFCURVE",
"405 166 OFFCURVE",
"538 166 CURVE SMOOTH",
"688 166 OFFCURVE",
"830 173 OFFCURVE",
"919 235 CURVE SMOOTH",
"944 252 OFFCURVE",
"964 273 OFFCURVE",
"980 300 CURVE SMOOTH",
"992 321 OFFCURVE",
"1000 340 OFFCURVE",
"1000 365 CURVE SMOOTH",
"1000 390 OFFCURVE",
"990 405 OFFCURVE",
"964 405 CURVE SMOOTH",
"938 405 OFFCURVE",
"928 392 OFFCURVE",
"914 363 CURVE SMOOTH",
"898 331 OFFCURVE",
"871 302 OFFCURVE",
"836 286 CURVE SMOOTH",
"793 266 OFFCURVE",
"662 254 OFFCURVE",
"533 254 CURVE SMOOTH",
"425 254 OFFCURVE",
"339 260 OFFCURVE",
"265 271 CURVE",
"261 326 OFFCURVE",
"226 363 OFFCURVE",
"175 363 CURVE SMOOTH",
"131 363 OFFCURVE",
"97 321 OFFCURVE",
"97 284 CURVE SMOOTH",
"97 245 OFFCURVE",
"122 226 OFFCURVE",
"157 207 CURVE",
"149 175 OFFCURVE",
"105 147 OFFCURVE",
"74 135 CURVE SMOOTH",
"42 123 OFFCURVE",
"24 114 OFFCURVE",
"24 89 CURVE SMOOTH",
"24 63 OFFCURVE",
"44 46 OFFCURVE",
"75 46 CURVE SMOOTH"
);
}
);
width = 1019;
},
{
layerId = "20DCAE03-7ADA-4AB6-8D13-19ECCD31BD40";
paths = (
{
closed = 1;
nodes = (
"124 37 OFFCURVE",
"151 49 OFFCURVE",
"191 84 CURVE SMOOTH",
"231 119 OFFCURVE",
"249 143 OFFCURVE",
"265 177 CURVE",
"404 162 OFFCURVE",
"460 158 OFFCURVE",
"566 158 CURVE SMOOTH",
"695 158 OFFCURVE",
"819 166 OFFCURVE",
"909 229 CURVE SMOOTH",
"940 251 OFFCURVE",
"964 277 OFFCURVE",
"980 305 CURVE SMOOTH",
"992 327 OFFCURVE",
"999 349 OFFCURVE",
"999 369 CURVE SMOOTH",
"999 399 OFFCURVE",
"986 420 OFFCURVE",
"949 420 CURVE SMOOTH",
"920 420 OFFCURVE",
"902 403 OFFCURVE",
"887 375 CURVE SMOOTH",
"876 354 OFFCURVE",
"858 322 OFFCURVE",
"827 303 CURVE SMOOTH",
"795 283 OFFCURVE",
"726 266 OFFCURVE",
"546 266 CURVE SMOOTH",
"444 266 OFFCURVE",
"358 269 OFFCURVE",
"285 279 CURVE",
"285 326 OFFCURVE",
"254 376 OFFCURVE",
"196 376 CURVE SMOOTH",
"143 376 OFFCURVE",
"103 328 OFFCURVE",
"103 288 CURVE SMOOTH",
"103 257 OFFCURVE",
"111 234 OFFCURVE",
"162 206 CURVE",
"148 176 OFFCURVE",
"111 152 OFFCURVE",
"76 140 CURVE SMOOTH",
"45 129 OFFCURVE",
"29 112 OFFCURVE",
"29 90 CURVE SMOOTH",
"29 58 OFFCURVE",
"54 37 OFFCURVE",
"95 37 CURVE SMOOTH"
);
}
);
width = 1019;
},
{
layerId = "474759B3-6A21-45C1-BBBC-641F1925F03A";
paths = (
{
closed = 1;
nodes = (
"48 50 OFFCURVE",
"64 53 OFFCURVE",
"81 60 CURVE SMOOTH",
"150 88 OFFCURVE",
"208 135 OFFCURVE",
"238 204 CURVE",
"321 190 OFFCURVE",
"423 181 OFFCURVE",
"558 181 CURVE SMOOTH",
"766 181 OFFCURVE",
"863 217 OFFCURVE",
"912 242 CURVE SMOOTH",
"949 261 OFFCURVE",
"971 285 OFFCURVE",
"985 309 CURVE SMOOTH",
"999 332 OFFCURVE",
"1006 352 OFFCURVE",
"1006 366 CURVE SMOOTH",
"1006 372 OFFCURVE",
"1003 377 OFFCURVE",
"994 377 CURVE SMOOTH",
"986 377 OFFCURVE",
"984 373 OFFCURVE",
"979 358 CURVE SMOOTH",
"965 316 OFFCURVE",
"936 280 OFFCURVE",
"889 255 CURVE SMOOTH",
"858 239 OFFCURVE",
"744 202 OFFCURVE",
"558 202 CURVE SMOOTH",
"432 202 OFFCURVE",
"328 212 OFFCURVE",
"248 225 CURVE",
"238 248 OFFCURVE",
"221 261 OFFCURVE",
"206 261 CURVE SMOOTH",
"192 261 OFFCURVE",
"182 252 OFFCURVE",
"182 241 CURVE SMOOTH",
"182 228 OFFCURVE",
"195 216 OFFCURVE",
"216 208 CURVE",
"182 140 OFFCURVE",
"133 99 OFFCURVE",
"44 76 CURVE SMOOTH",
"31 73 OFFCURVE",
"25 66 OFFCURVE",
"25 61 CURVE SMOOTH",
"25 56 OFFCURVE",
"27 50 OFFCURVE",
"38 50 CURVE SMOOTH"
);
}
);
width = 1019;
},
{
layerId = "C1B76EF4-5E0A-4C02-BFBB-E14F816E0475";
paths = (
{
closed = 1;
nodes = (
"146 33 OFFCURVE",
"176 48 OFFCURVE",
"222 91 CURVE",
"254 128 OFFCURVE",
"261 145 OFFCURVE",
"273 169 CURVE",
"428 154 OFFCURVE",
"471 151 OFFCURVE",
"568 151 CURVE SMOOTH",
"675 151 OFFCURVE",
"806 151 OFFCURVE",
"908 225 CURVE SMOOTH",
"938 247 OFFCURVE",
"963 277 OFFCURVE",
"979 305 CURVE SMOOTH",
"991 326 OFFCURVE",
"997 348 OFFCURVE",
"997 370 CURVE SMOOTH",
"997 407 OFFCURVE",
"981 432 OFFCURVE",
"936 432 CURVE SMOOTH",
"901 432 OFFCURVE",
"880 412 OFFCURVE",
"861 380 CURVE SMOOTH",
"852 364 OFFCURVE",
"835 334 OFFCURVE",
"809 317 CURVE SMOOTH",
"777 296 OFFCURVE",
"721 284 OFFCURVE",
"543 284 CURVE SMOOTH",
"447 284 OFFCURVE",
"367 285 OFFCURVE",
"296 294 CURVE",
"298 348 OFFCURVE",
"263 409 OFFCURVE",
"193 409 CURVE SMOOTH",
"129 409 OFFCURVE",
"80 350 OFFCURVE",
"80 301 CURVE SMOOTH",
"80 265 OFFCURVE",
"87 239 OFFCURVE",
"147 205 CURVE",
"138 186 OFFCURVE",
"102 164 OFFCURVE",
"85 158 CURVE SMOOTH",
"49 145 OFFCURVE",
"30 125 OFFCURVE",
"30 98 CURVE SMOOTH",
"30 59 OFFCURVE",
"62 33 OFFCURVE",
"111 33 CURVE SMOOTH"
);
}
);
width = 1019;
}
);
unicode = 0790;
category = Letter;
},
{
glyphname = uni0791;
lastChange = "2018-10-11 13:36:43 +0000";
layers = (
{
layerId = UUID0;
paths = (
{
closed = 1;
nodes = (
"306 -44 OFFCURVE",
"322 -23 OFFCURVE",
"322 4 CURVE SMOOTH",
"322 32 OFFCURVE",
"311 48 OFFCURVE",
"286 48 CURVE SMOOTH",
"268 48 OFFCURVE",
"256 46 OFFCURVE",
"240 46 CURVE SMOOTH",
"178 46 OFFCURVE",
"129 75 OFFCURVE",
"129 92 CURVE SMOOTH",
"129 100 OFFCURVE",
"173 130 OFFCURVE",
"222 149 CURVE SMOOTH",
"266 166 OFFCURVE",
"271 187 OFFCURVE",
"271 212 CURVE SMOOTH",
"271 227 OFFCURVE",
"260 237 OFFCURVE",
"244 245 CURVE SMOOTH",
"217 259 OFFCURVE",
"177 265 OFFCURVE",
"159 271 CURVE",
"172 280 OFFCURVE",
"196 297 OFFCURVE",
"214 316 CURVE SMOOTH",
"225 328 OFFCURVE",
"233 341 OFFCURVE",
"233 354 CURVE SMOOTH",
"233 371 OFFCURVE",
"222 387 OFFCURVE",
"198 387 CURVE SMOOTH",
"180 387 OFFCURVE",
"157 374 OFFCURVE",
"134 356 CURVE SMOOTH",
"99 329 OFFCURVE",
"70 302 OFFCURVE",
"54 283 CURVE SMOOTH",
"44 271 OFFCURVE",
"39 255 OFFCURVE",
"39 247 CURVE SMOOTH",
"39 229 OFFCURVE",
"53 218 OFFCURVE",
"72 213 CURVE SMOOTH",
"105 204 OFFCURVE",
"136 201 OFFCURVE",
"149 196 CURVE",
"116 178 OFFCURVE",
"24 152 OFFCURVE",
"24 78 CURVE SMOOTH",
"24 2 OFFCURVE",
"162 -44 OFFCURVE",
"253 -44 CURVE SMOOTH"
);
}
);
width = 390;
},
{
layerId = "20DCAE03-7ADA-4AB6-8D13-19ECCD31BD40";
paths = (
{
closed = 1;
nodes = (
"306 -44 OFFCURVE",
"334 -26 OFFCURVE",
"334 14 CURVE SMOOTH",
"334 48 OFFCURVE",
"319 63 OFFCURVE",
"284 63 CURVE SMOOTH",
"265 63 OFFCURVE",
"250 62 OFFCURVE",
"233 62 CURVE SMOOTH",
"188 62 OFFCURVE",
"144 83 OFFCURVE",
"144 99 CURVE SMOOTH",
"144 106 OFFCURVE",
"155 113 OFFCURVE",
"172 123 CURVE SMOOTH",
"227 155 OFFCURVE",
"286 161 OFFCURVE",
"286 215 CURVE SMOOTH",
"286 235 OFFCURVE",
"275 248 OFFCURVE",
"250 256 CURVE SMOOTH",
"208 270 OFFCURVE",
"186 277 OFFCURVE",
"173 280 CURVE",
"178 283 OFFCURVE",
"206 302 OFFCURVE",
"227 317 CURVE SMOOTH",
"246 331 OFFCURVE",
"252 336 OFFCURVE",
"252 355 CURVE SMOOTH",
"252 377 OFFCURVE",
"235 398 OFFCURVE",
"202 398 CURVE SMOOTH",
"192 398 OFFCURVE",
"176 390 OFFCURVE",
"159 380 CURVE SMOOTH",
"130 363 OFFCURVE",
"98 336 OFFCURVE",
"77 316 CURVE SMOOTH",
"53 294 OFFCURVE",
"39 286 OFFCURVE",
"39 256 CURVE SMOOTH",
"39 234 OFFCURVE",
"54 220 OFFCURVE",
"87 212 CURVE SMOOTH",
"116 205 OFFCURVE",
"135 202 OFFCURVE",
"146 201 CURVE",
"84 175 OFFCURVE",
"24 143 OFFCURVE",
"24 88 CURVE SMOOTH",
"24 14 OFFCURVE",
"161 -44 OFFCURVE",
"250 -44 CURVE SMOOTH"
);
}
);
width = 403;
},
{
layerId = "474759B3-6A21-45C1-BBBC-641F1925F03A";
paths = (
{
closed = 1;
nodes = (
"308 -48 OFFCURVE",
"322 -42 OFFCURVE",
"322 -32 CURVE SMOOTH",
"322 -25 OFFCURVE",
"319 -21 OFFCURVE",
"310 -21 CURVE SMOOTH",
"298 -21 OFFCURVE",
"282 -26 OFFCURVE",
"256 -26 CURVE SMOOTH",
"174 -26 OFFCURVE",
"61 -1 OFFCURVE",
"61 58 CURVE SMOOTH",
"61 99 OFFCURVE",
"135 129 OFFCURVE",
"230 162 CURVE SMOOTH",
"269 175 OFFCURVE",
"274 179 OFFCURVE",
"274 190 CURVE SMOOTH",
"274 200 OFFCURVE",
"264 206 OFFCURVE",
"244 211 CURVE SMOOTH",
"221 217 OFFCURVE",
"119 235 OFFCURVE",
"74 246 CURVE",
"97 271 OFFCURVE",
"175 322 OFFCURVE",
"204 337 CURVE SMOOTH",
"220 345 OFFCURVE",
"225 348 OFFCURVE",
"225 352 CURVE SMOOTH",
"225 356 OFFCURVE",
"221 360 OFFCURVE",
"213 360 CURVE SMOOTH",
"203 360 OFFCURVE",
"193 356 OFFCURVE",
"174 344 CURVE SMOOTH",
"147 326 OFFCURVE",
"106 298 OFFCURVE",
"77 271 CURVE SMOOTH",
"60 256 OFFCURVE",
"55 253 OFFCURVE",
"55 243 CURVE SMOOTH",
"55 236 OFFCURVE",
"63 232 OFFCURVE",
"73 229 CURVE SMOOTH",
"121 215 OFFCURVE",
"196 204 OFFCURVE",
"253 191 CURVE",
"154 156 OFFCURVE",
"40 118 OFFCURVE",
"40 56 CURVE SMOOTH",
"40 -11 OFFCURVE",
"160 -48 OFFCURVE",
"258 -48 CURVE SMOOTH"
);
}
);
width = 390;
},
{
layerId = "C1B76EF4-5E0A-4C02-BFBB-E14F816E0475";
paths = (
{
closed = 1;
nodes = (
"305 -43 OFFCURVE",
"345 -21 OFFCURVE",
"345 27 CURVE SMOOTH",
"345 69 OFFCURVE",
"326 90 OFFCURVE",
"299 90 CURVE SMOOTH",
"267 90 OFFCURVE",
"243 87 OFFCURVE",
"219 87 CURVE SMOOTH",
"192 87 OFFCURVE",
"168 94 OFFCURVE",
"168 105 CURVE SMOOTH",
"168 113 OFFCURVE",
"179 127 OFFCURVE",
"221 150 CURVE SMOOTH",
"251 167 OFFCURVE",
"289 178 OFFCURVE",
"289 222 CURVE SMOOTH",
"289 245 OFFCURVE",
"278 258 OFFCURVE",
"252 269 CURVE SMOOTH",
"225 280 OFFCURVE",
"202 284 OFFCURVE",
"190 289 CURVE",
"200 294 OFFCURVE",
"213 299 OFFCURVE",
"236 315 CURVE SMOOTH",
"253 327 OFFCURVE",
"260 338 OFFCURVE",
"260 356 CURVE SMOOTH",
"260 383 OFFCURVE",
"239 409 OFFCURVE",
"209 409 CURVE SMOOTH",
"189 409 OFFCURVE",
"172 401 OFFCURVE",
"155 390 CURVE SMOOTH",
"125 370 OFFCURVE",
"98 349 OFFCURVE",
"77 329 CURVE SMOOTH",
"51 305 OFFCURVE",
"34 289 OFFCURVE",
"34 260 CURVE SMOOTH",
"34 233 OFFCURVE",
"51 217 OFFCURVE",
"91 207 CURVE SMOOTH",
"103 204 OFFCURVE",
"110 203 OFFCURVE",
"113 203 CURVE",
"63 179 OFFCURVE",
"19 142 OFFCURVE",
"19 90 CURVE SMOOTH",
"19 14 OFFCURVE",
"161 -43 OFFCURVE",
"248 -43 CURVE SMOOTH"
);
}
);
width = 407;
}
);
unicode = 0791;
category = Letter;
},
{
glyphname = uni0792;
lastChange = "2018-10-11 13:36:43 +0000";
layers = (
{
layerId = UUID0;
paths = (
{
closed = 1;
nodes = (
"301 -156 OFFCURVE",
"341 -152 OFFCURVE",
"372 -145 CURVE SMOOTH",
"406 -137 OFFCURVE",
"429 -122 OFFCURVE",
"429 -99 CURVE SMOOTH",
"429 -75 OFFCURVE",
"414 -63 OFFCURVE",
"393 -63 CURVE SMOOTH",
"377 -63 OFFCURVE",
"362 -64 OFFCURVE",
"347 -65 CURVE SMOOTH",
"325 -66 OFFCURVE",
"302 -68 OFFCURVE",
"271 -68 CURVE SMOOTH",
"196 -68 OFFCURVE",
"142 -55 OFFCURVE",
"142 -20 CURVE SMOOTH",
"142 17 OFFCURVE",
"207 71 OFFCURVE",
"284 122 CURVE",
"304 110 OFFCURVE",
"326 100 OFFCURVE",
"347 94 CURVE SMOOTH",
"367 88 OFFCURVE",
"387 85 OFFCURVE",
"405 85 CURVE SMOOTH",
"438 85 OFFCURVE",
"451 104 OFFCURVE",
"451 127 CURVE SMOOTH",
"451 148 OFFCURVE",
"436 165 OFFCURVE",
"410 172 CURVE SMOOTH",
"397 176 OFFCURVE",
"386 178 OFFCURVE",
"375 183 CURVE",
"416 207 OFFCURVE",
"446 227 OFFCURVE",
"494 248 CURVE SMOOTH",
"536 266 OFFCURVE",
"545 279 OFFCURVE",
"545 304 CURVE SMOOTH",
"545 333 OFFCURVE",
"522 342 OFFCURVE",
"508 342 CURVE SMOOTH",
"494 342 OFFCURVE",
"468 332 OFFCURVE",
"438 318 CURVE SMOOTH",
"398 299 OFFCURVE",
"350 271 OFFCURVE",
"306 244 CURVE",
"300 249 OFFCURVE",
"287 260 OFFCURVE",
"280 268 CURVE SMOOTH",
"268 283 OFFCURVE",
"259 292 OFFCURVE",
"236 292 CURVE SMOOTH",
"206 292 OFFCURVE",
"189 261 OFFCURVE",
"189 237 CURVE SMOOTH",
"189 219 OFFCURVE",
"196 201 OFFCURVE",
"209 184 CURVE",
"129 131 OFFCURVE",
"49 65 OFFCURVE",
"49 -33 CURVE SMOOTH",
"49 -92 OFFCURVE",
"106 -156 OFFCURVE",
"264 -156 CURVE SMOOTH"
);
}
);
width = 570;
},
{
layerId = "20DCAE03-7ADA-4AB6-8D13-19ECCD31BD40";
paths = (
{
closed = 1;
nodes = (
"319 -156 OFFCURVE",
"363 -151 OFFCURVE",
"394 -140 CURVE SMOOTH",
"426 -129 OFFCURVE",
"444 -113 OFFCURVE",
"444 -90 CURVE SMOOTH",
"444 -56 OFFCURVE",
"428 -40 OFFCURVE",
"403 -40 CURVE SMOOTH",
"381 -40 OFFCURVE",
"361 -44 OFFCURVE",
"344 -46 CURVE SMOOTH",
"321 -49 OFFCURVE",
"296 -50 OFFCURVE",
"270 -50 CURVE SMOOTH",
"194 -50 OFFCURVE",
"174 -36 OFFCURVE",
"174 -11 CURVE SMOOTH",
"174 16 OFFCURVE",
"188 63 OFFCURVE",
"281 125 CURVE",
"305 112 OFFCURVE",
"333 100 OFFCURVE",
"360 93 CURVE SMOOTH",
"376 89 OFFCURVE",
"391 86 OFFCURVE",
"406 86 CURVE SMOOTH",
"450 86 OFFCURVE",
"466 110 OFFCURVE",
"466 139 CURVE SMOOTH",
"466 164 OFFCURVE",
"455 170 OFFCURVE",
"423 180 CURVE SMOOTH",
"414 183 OFFCURVE",
"405 187 OFFCURVE",
"396 191 CURVE",
"438 217 OFFCURVE",
"477 240 OFFCURVE",
"512 255 CURVE SMOOTH",
"540 267 OFFCURVE",
"552 284 OFFCURVE",
"552 313 CURVE SMOOTH",
"552 343 OFFCURVE",
"526 361 OFFCURVE",
"500 361 CURVE SMOOTH",
"485 361 OFFCURVE",
"460 352 OFFCURVE",
"426 336 CURVE SMOOTH",
"391 319 OFFCURVE",
"347 295 OFFCURVE",
"298 265 CURVE",
"291 273 OFFCURVE",
"281 284 OFFCURVE",
"275 290 CURVE SMOOTH",
"262 303 OFFCURVE",
"254 311 OFFCURVE",
"230 311 CURVE SMOOTH",
"202 311 OFFCURVE",
"173 278 OFFCURVE",
"173 249 CURVE SMOOTH",
"173 224 OFFCURVE",
"187 209 OFFCURVE",
"202 190 CURVE",
"115 129 OFFCURVE",
"50 70 OFFCURVE",
"50 -23 CURVE SMOOTH",
"50 -100 OFFCURVE",
"117 -156 OFFCURVE",
"263 -156 CURVE SMOOTH"
);
}
);
width = 576;
},
{
layerId = "474759B3-6A21-45C1-BBBC-641F1925F03A";
paths = (
{
closed = 1;
nodes = (
"288 -150 OFFCURVE",
"343 -137 OFFCURVE",
"369 -129 CURVE SMOOTH",
"396 -121 OFFCURVE",
"409 -115 OFFCURVE",
"409 -106 CURVE SMOOTH",
"409 -97 OFFCURVE",
"405 -96 OFFCURVE",
"398 -96 CURVE SMOOTH",
"391 -96 OFFCURVE",
"383 -101 OFFCURVE",
"352 -109 CURVE SMOOTH",
"320 -117 OFFCURVE",
"281 -129 OFFCURVE",
"201 -129 CURVE SMOOTH",
"107 -129 OFFCURVE",
"66 -91 OFFCURVE",
"66 -44 CURVE SMOOTH",
"66 40 OFFCURVE",
"200 136 OFFCURVE",
"323 198 CURVE",
"336 185 OFFCURVE",
"354 169 OFFCURVE",
"369 158 CURVE SMOOTH",
"388 144 OFFCURVE",
"392 144 OFFCURVE",
"400 144 CURVE SMOOTH",
"407 144 OFFCURVE",
"411 148 OFFCURVE",
"411 154 CURVE SMOOTH",
"411 160 OFFCURVE",
"404 166 OFFCURVE",
"397 170 CURVE SMOOTH",
"378 181 OFFCURVE",
"359 196 OFFCURVE",
"344 208 CURVE",
"388 230 OFFCURVE",
"432 246 OFFCURVE",
"472 259 CURVE SMOOTH",
"513 272 OFFCURVE",
"541 277 OFFCURVE",
"541 285 CURVE SMOOTH",
"541 292 OFFCURVE",
"537 296 OFFCURVE",
"529 296 CURVE SMOOTH",
"512 296 OFFCURVE",
"496 291 OFFCURVE",
"455 278 CURVE SMOOTH",
"420 267 OFFCURVE",
"374 248 OFFCURVE",
"326 224 CURVE",
"316 234 OFFCURVE",
"308 244 OFFCURVE",
"303 251 CURVE SMOOTH",
"292 267 OFFCURVE",
"288 272 OFFCURVE",
"282 272 CURVE SMOOTH",
"274 272 OFFCURVE",
"272 267 OFFCURVE",
"272 261 CURVE SMOOTH",
"272 256 OFFCURVE",
"286 236 OFFCURVE",
"307 213 CURVE",
"179 146 OFFCURVE",
"42 45 OFFCURVE",
"42 -44 CURVE SMOOTH",
"42 -105 OFFCURVE",
"93 -150 OFFCURVE",
"201 -150 CURVE SMOOTH"
);
}
);
width = 570;
},
{
layerId = "C1B76EF4-5E0A-4C02-BFBB-E14F816E0475";
paths = (
{
closed = 1;
nodes = (
"328 -158 OFFCURVE",
"375 -155 OFFCURVE",
"408 -143 CURVE SMOOTH",
"442 -131 OFFCURVE",
"454 -112 OFFCURVE",
"454 -85 CURVE SMOOTH",
"454 -44 OFFCURVE",
"435 -20 OFFCURVE",
"404 -20 CURVE SMOOTH",
"378 -20 OFFCURVE",
"363 -22 OFFCURVE",
"342 -24 CURVE SMOOTH",
"321 -26 OFFCURVE",
"306 -27 OFFCURVE",
"290 -27 CURVE SMOOTH",
"219 -27 OFFCURVE",
"197 -9 OFFCURVE",
"197 9 CURVE SMOOTH",
"197 28 OFFCURVE",
"214 54 OFFCURVE",
"269 104 CURVE",
"296 91 OFFCURVE",
"327 81 OFFCURVE",
"357 74 CURVE SMOOTH",
"373 70 OFFCURVE",
"391 69 OFFCURVE",
"408 69 CURVE SMOOTH",
"462 69 OFFCURVE",
"482 99 OFFCURVE",
"482 135 CURVE SMOOTH",
"482 165 OFFCURVE",
"470 175 OFFCURVE",
"443 179 CURVE SMOOTH",
"424 182 OFFCURVE",
"411 184 OFFCURVE",
"404 186 CURVE",
"445 213 OFFCURVE",
"490 235 OFFCURVE",
"523 254 CURVE SMOOTH",
"544 266 OFFCURVE",
"555 286 OFFCURVE",
"555 314 CURVE SMOOTH",
"555 358 OFFCURVE",
"523 380 OFFCURVE",
"492 380 CURVE SMOOTH",
"477 380 OFFCURVE",
"450 370 OFFCURVE",
"418 353 CURVE SMOOTH",
"383 335 OFFCURVE",
"339 304 OFFCURVE",
"296 267 CURVE",
"284 280 OFFCURVE",
"273 295 OFFCURVE",
"263 304 CURVE SMOOTH",
"253 313 OFFCURVE",
"244 322 OFFCURVE",
"220 322 CURVE SMOOTH",
"181 322 OFFCURVE",
"145 281 OFFCURVE",
"145 246 CURVE SMOOTH",
"145 215 OFFCURVE",
"159 201 OFFCURVE",
"172 183 CURVE",
"97 124 OFFCURVE",
"46 73 OFFCURVE",
"46 -9 CURVE SMOOTH",
"46 -103 OFFCURVE",
"124 -158 OFFCURVE",
"281 -158 CURVE SMOOTH"
);
}
);
width = 578;
}
);
unicode = 0792;
category = Letter;
},
{
glyphname = uni0793;
lastChange = "2018-10-11 13:36:43 +0000";
layers = (
{
layerId = UUID0;
paths = (
{
closed = 1;
nodes = (
"327 -156 OFFCURVE",
"412 -151 OFFCURVE",
"460 -131 CURVE SMOOTH",
"486 -120 OFFCURVE",
"501 -106 OFFCURVE",
"501 -86 CURVE SMOOTH",
"501 -63 OFFCURVE",
"487 -52 OFFCURVE",
"465 -52 CURVE SMOOTH",
"459 -52 OFFCURVE",
"451 -54 OFFCURVE",
"431 -58 CURVE SMOOTH",
"405 -63 OFFCURVE",
"360 -68 OFFCURVE",
"275 -68 CURVE SMOOTH",
"171 -68 OFFCURVE",
"142 -46 OFFCURVE",
"142 6 CURVE SMOOTH",
"142 48 OFFCURVE",
"188 78 OFFCURVE",
"256 111 CURVE",
"282 107 OFFCURVE",
"312 105 OFFCURVE",
"346 105 CURVE SMOOTH",
"496 105 OFFCURVE",
"642 183 OFFCURVE",
"642 287 CURVE SMOOTH",
"642 342 OFFCURVE",
"609 381 OFFCURVE",
"538 381 CURVE SMOOTH",
"475 381 OFFCURVE",
"424 353 OFFCURVE",
"381 318 CURVE",
"344 354 OFFCURVE",
"292 364 OFFCURVE",
"268 364 CURVE SMOOTH",
"156 364 OFFCURVE",
"104 294 OFFCURVE",
"104 238 CURVE SMOOTH",
"104 199 OFFCURVE",
"121 165 OFFCURVE",
"164 140 CURVE",
"83 87 OFFCURVE",
"49 43 OFFCURVE",
"49 -16 CURVE SMOOTH",
"49 -96 OFFCURVE",
"112 -156 OFFCURVE",
"275 -156 CURVE SMOOTH"
);
},
{
closed = 1;
nodes = (
"213 201 OFFCURVE",
"196 216 OFFCURVE",
"196 238 CURVE SMOOTH",
"196 252 OFFCURVE",
"208 284 OFFCURVE",
"265 284 CURVE SMOOTH",
"291 284 OFFCURVE",
"305 276 OFFCURVE",
"320 261 CURVE",
"296 238 OFFCURVE",
"272 215 OFFCURVE",
"252 193 CURVE"
);
},
{
closed = 1;
nodes = (
"408 239 OFFCURVE",
"465 300 OFFCURVE",
"516 300 CURVE SMOOTH",
"541 300 OFFCURVE",
"549 287 OFFCURVE",
"549 278 CURVE SMOOTH",
"549 240 OFFCURVE",
"465 190 OFFCURVE",
"357 186 CURVE"
);
}
);
width = 671;
},
{
layerId = "20DCAE03-7ADA-4AB6-8D13-19ECCD31BD40";
paths = (
{
closed = 1;
nodes = (
"362 -156 OFFCURVE",
"415 -151 OFFCURVE",
"452 -140 CURVE SMOOTH",
"497 -127 OFFCURVE",
"519 -106 OFFCURVE",
"519 -78 CURVE SMOOTH",
"519 -47 OFFCURVE",
"498 -34 OFFCURVE",
"468 -34 CURVE SMOOTH",
"439 -34 OFFCURVE",
"429 -38 OFFCURVE",
"408 -42 CURVE SMOOTH",
"388 -46 OFFCURVE",
"358 -50 OFFCURVE",
"290 -50 CURVE SMOOTH",
"208 -50 OFFCURVE",
"168 -35 OFFCURVE",
"168 13 CURVE SMOOTH",
"168 32 OFFCURVE",
"182 62 OFFCURVE",
"260 102 CURVE",
"285 98 OFFCURVE",
"309 95 OFFCURVE",
"342 95 CURVE SMOOTH",
"485 95 OFFCURVE",
"654 171 OFFCURVE",
"654 289 CURVE SMOOTH",
"654 353 OFFCURVE",
"608 391 OFFCURVE",
"529 391 CURVE SMOOTH",
"473 391 OFFCURVE",
"428 373 OFFCURVE",
"378 335 CURVE",
"347 359 OFFCURVE",
"304 376 OFFCURVE",
"263 376 CURVE SMOOTH",
"153 376 OFFCURVE",
"83 306 OFFCURVE",
"83 238 CURVE SMOOTH",
"83 189 OFFCURVE",
"115 154 OFFCURVE",
"147 139 CURVE",
"92 105 OFFCURVE",
"44 67 OFFCURVE",
"44 -7 CURVE SMOOTH",
"44 -104 OFFCURVE",
"135 -156 OFFCURVE",
"292 -156 CURVE SMOOTH"
);
},
{
closed = 1;
nodes = (
"205 202 OFFCURVE",
"192 217 OFFCURVE",
"192 237 CURVE SMOOTH",
"192 262 OFFCURVE",
"213 284 OFFCURVE",
"253 284 CURVE SMOOTH",
"271 284 OFFCURVE",
"289 275 OFFCURVE",
"300 263 CURVE",
"275 238 OFFCURVE",
"242 202 OFFCURVE",
"233 194 CURVE"
);
},
{
closed = 1;
nodes = (
"399 238 OFFCURVE",
"465 303 OFFCURVE",
"507 303 CURVE SMOOTH",
"525 303 OFFCURVE",
"532 293 OFFCURVE",
"532 285 CURVE SMOOTH",
"532 220 OFFCURVE",
"424 187 OFFCURVE",
"347 182 CURVE"
);
}
);
width = 683;
},
{
layerId = "474759B3-6A21-45C1-BBBC-641F1925F03A";
paths = (
{
closed = 1;
nodes = (
"323 -170 OFFCURVE",
"380 -161 OFFCURVE",
"431 -147 CURVE SMOOTH",
"442 -144 OFFCURVE",
"449 -139 OFFCURVE",
"449 -132 CURVE SMOOTH",
"449 -126 OFFCURVE",
"445 -120 OFFCURVE",
"435 -120 CURVE SMOOTH",
"425 -120 OFFCURVE",
"415 -123 OFFCURVE",
"391 -130 CURVE SMOOTH",
"361 -139 OFFCURVE",
"327 -148 OFFCURVE",
"247 -148 CURVE SMOOTH",
"124 -148 OFFCURVE",
"76 -110 OFFCURVE",
"76 -48 CURVE SMOOTH",
"76 18 OFFCURVE",
"168 73 OFFCURVE",
"283 116 CURVE",
"289 116 OFFCURVE",
"294 116 OFFCURVE",
"300 116 CURVE SMOOTH",
"486 116 OFFCURVE",
"635 211 OFFCURVE",
"635 303 CURVE SMOOTH",
"635 346 OFFCURVE",
"601 383 OFFCURVE",
"535 383 CURVE SMOOTH",
"470 383 OFFCURVE",
"429 349 OFFCURVE",
"394 316 CURVE",
"365 335 OFFCURVE",
"330 351 OFFCURVE",
"285 351 CURVE SMOOTH",
"193 351 OFFCURVE",
"130 293 OFFCURVE",
"130 230 CURVE SMOOTH",
"130 177 OFFCURVE",
"174 136 OFFCURVE",
"243 122 CURVE",
"141 78 OFFCURVE",
"54 22 OFFCURVE",
"54 -48 CURVE SMOOTH",
"54 -120 OFFCURVE",
"109 -170 OFFCURVE",
"239 -170 CURVE SMOOTH"
);
},
{
closed = 1;
nodes = (
"216 142 OFFCURVE",
"151 173 OFFCURVE",
"151 230 CURVE SMOOTH",
"151 283 OFFCURVE",
"205 331 OFFCURVE",
"283 331 CURVE SMOOTH",
"319 331 OFFCURVE",
"357 321 OFFCURVE",
"381 301 CURVE",
"342 255 OFFCURVE",
"301 189 OFFCURVE",
"273 136 CURVE"
);
},
{
closed = 1;
nodes = (
"386 306 OFFCURVE",
"455 363 OFFCURVE",
"535 363 CURVE SMOOTH",
"590 363 OFFCURVE",
"614 335 OFFCURVE",
"614 303 CURVE SMOOTH",
"614 227 OFFCURVE",
"489 135 OFFCURVE",
"294 135 CURVE"
);
}
);
width = 671;
},
{
layerId = "C1B76EF4-5E0A-4C02-BFBB-E14F816E0475";
paths = (
{
closed = 1;
nodes = (
"373 -152 OFFCURVE",
"425 -148 OFFCURVE",
"458 -138 CURVE SMOOTH",
"513 -122 OFFCURVE",
"539 -97 OFFCURVE",
"539 -63 CURVE SMOOTH",
"539 -24 OFFCURVE",
"517 -7 OFFCURVE",
"489 -7 CURVE SMOOTH",
"466 -7 OFFCURVE",
"437 -12 OFFCURVE",
"417 -15 CURVE SMOOTH",
"400 -18 OFFCURVE",
"357 -22 OFFCURVE",
"313 -22 CURVE SMOOTH",
"232 -22 OFFCURVE",
"194 -7 OFFCURVE",
"194 30 CURVE SMOOTH",
"194 55 OFFCURVE",
"219 75 OFFCURVE",
"253 98 CURVE",
"284 93 OFFCURVE",
"313 89 OFFCURVE",
"354 89 CURVE SMOOTH",
"485 89 OFFCURVE",
"659 160 OFFCURVE",
"659 285 CURVE SMOOTH",
"659 355 OFFCURVE",
"610 402 OFFCURVE",
"527 402 CURVE SMOOTH",
"474 402 OFFCURVE",
"428 380 OFFCURVE",
"373 340 CURVE",
"342 366 OFFCURVE",
"297 383 OFFCURVE",
"251 383 CURVE SMOOTH",
"142 383 OFFCURVE",
"70 310 OFFCURVE",
"70 240 CURVE SMOOTH",
"70 192 OFFCURVE",
"98 159 OFFCURVE",
"120 144 CURVE",
"78 113 OFFCURVE",
"41 80 OFFCURVE",
"41 13 CURVE SMOOTH",
"41 -95 OFFCURVE",
"134 -152 OFFCURVE",
"307 -152 CURVE SMOOTH"
);
},
{
closed = 1;
nodes = (
"215 214 OFFCURVE",
"204 227 OFFCURVE",
"204 241 CURVE SMOOTH",
"204 258 OFFCURVE",
"220 271 OFFCURVE",
"238 271 CURVE SMOOTH",
"257 271 OFFCURVE",
"270 262 OFFCURVE",
"277 252 CURVE",
"251 234 OFFCURVE",
"240 225 OFFCURVE",
"222 211 CURVE"
);
},
{
closed = 1;
nodes = (
"406 237 OFFCURVE",
"470 283 OFFCURVE",
"495 283 CURVE SMOOTH",
"506 283 OFFCURVE",
"513 278 OFFCURVE",
"513 265 CURVE SMOOTH",
"513 225 OFFCURVE",
"429 201 OFFCURVE",
"355 195 CURVE"
);
}
);
width = 686;
}
);
unicode = 0793;
category = Letter;
},
{
glyphname = uni0794;
lastChange = "2018-10-11 13:36:43 +0000";
layers = (
{
layerId = UUID0;
paths = (
{
closed = 1;
nodes = (
"26 -78 OFFCURVE",
"79 -62 OFFCURVE",
"165 -12 CURVE SMOOTH",
"253 39 OFFCURVE",
"339 129 OFFCURVE",
"425 222 CURVE",
"478 227 OFFCURVE",
"520 243 OFFCURVE",
"568 263 CURVE",
"562 202 OFFCURVE",
"508 141 OFFCURVE",
"488 113 CURVE SMOOTH",
"478 99 OFFCURVE",
"466 91 OFFCURVE",
"466 65 CURVE SMOOTH",
"466 42 OFFCURVE",
"484 26 OFFCURVE",
"512 26 CURVE SMOOTH",
"531 26 OFFCURVE",
"552 41 OFFCURVE",
"563 55 CURVE SMOOTH",
"615 119 OFFCURVE",
"665 217 OFFCURVE",
"665 310 CURVE SMOOTH",
"665 363 OFFCURVE",
"660 391 OFFCURVE",
"628 391 CURVE SMOOTH",
"612 391 OFFCURVE",
"597 382 OFFCURVE",
"578 370 CURVE SMOOTH",
"548 351 OFFCURVE",
"511 329 OFFCURVE",
"451 323 CURVE",
"433 354 OFFCURVE",
"403 376 OFFCURVE",
"364 376 CURVE SMOOTH",
"307 376 OFFCURVE",
"276 336 OFFCURVE",
"276 293 CURVE SMOOTH",
"276 266 OFFCURVE",
"295 243 OFFCURVE",
"326 231 CURVE",
"274 176 OFFCURVE",
"207 122 OFFCURVE",
"122 81 CURVE SMOOTH",
"81 61 OFFCURVE",
"37 46 OFFCURVE",
"-13 34 CURVE SMOOTH",
"-43 27 OFFCURVE",
"-59 8 OFFCURVE",
"-59 -21 CURVE SMOOTH",
"-59 -55 OFFCURVE",
"-38 -78 OFFCURVE",
"3 -78 CURVE SMOOTH"
);
}
);
width = 728;
},
{
layerId = "20DCAE03-7ADA-4AB6-8D13-19ECCD31BD40";
paths = (
{
closed = 1;
nodes = (
"42 -78 OFFCURVE",
"80 -67 OFFCURVE",
"128 -44 CURVE SMOOTH",
"236 9 OFFCURVE",
"343 123 OFFCURVE",
"418 216 CURVE",
"461 221 OFFCURVE",
"504 232 OFFCURVE",
"543 248 CURVE",
"527 188 OFFCURVE",
"491 151 OFFCURVE",
"461 117 CURVE SMOOTH",
"449 103 OFFCURVE",
"442 86 OFFCURVE",
"442 65 CURVE SMOOTH",
"442 36 OFFCURVE",
"466 17 OFFCURVE",
"503 17 CURVE SMOOTH",
"532 17 OFFCURVE",
"560 37 OFFCURVE",
"586 75 CURVE SMOOTH",
"638 151 OFFCURVE",
"672 235 OFFCURVE",
"672 314 CURVE SMOOTH",
"672 387 OFFCURVE",
"654 405 OFFCURVE",
"627 405 CURVE SMOOTH",
"613 405 OFFCURVE",
"595 401 OFFCURVE",
"579 391 CURVE SMOOTH",
"523 358 OFFCURVE",
"491 339 OFFCURVE",
"450 334 CURVE",
"430 367 OFFCURVE",
"405 391 OFFCURVE",
"360 391 CURVE SMOOTH",
"294 391 OFFCURVE",
"257 346 OFFCURVE",
"257 297 CURVE SMOOTH",
"257 270 OFFCURVE",
"268 247 OFFCURVE",
"297 231 CURVE",
"231 163 OFFCURVE",
"167 116 OFFCURVE",
"99 86 CURVE SMOOTH",
"68 72 OFFCURVE",
"37 62 OFFCURVE",
"3 54 CURVE SMOOTH",
"-37 45 OFFCURVE",
"-59 22 OFFCURVE",
"-59 -12 CURVE SMOOTH",
"-59 -52 OFFCURVE",
"-33 -78 OFFCURVE",
"18 -78 CURVE SMOOTH"
);
}
);
width = 735;
},
{
layerId = "474759B3-6A21-45C1-BBBC-641F1925F03A";
paths = (
{
closed = 1;
nodes = (
"4 -78 OFFCURVE",
"101 -29 OFFCURVE",
"163 20 CURVE SMOOTH",
"213 60 OFFCURVE",
"305 150 OFFCURVE",
"360 232 CURVE",
"468 232 OFFCURVE",
"523 260 OFFCURVE",
"592 313 CURVE",
"582 244 OFFCURVE",
"564 185 OFFCURVE",
"515 87 CURVE SMOOTH",
"502 61 OFFCURVE",
"485 47 OFFCURVE",
"485 40 CURVE SMOOTH",
"485 33 OFFCURVE",
"491 29 OFFCURVE",
"498 29 CURVE SMOOTH",
"507 29 OFFCURVE",
"516 38 OFFCURVE",
"535 77 CURVE SMOOTH",
"566 140 OFFCURVE",
"613 254 OFFCURVE",
"613 335 CURVE SMOOTH",
"613 345 OFFCURVE",
"606 347 OFFCURVE",
"601 347 CURVE SMOOTH",
"594 347 OFFCURVE",
"584 330 OFFCURVE",
"567 318 CURVE SMOOTH",
"515 281 OFFCURVE",
"456 252 OFFCURVE",
"372 253 CURVE",
"368 264 OFFCURVE",
"351 280 OFFCURVE",
"335 280 CURVE SMOOTH",
"323 280 OFFCURVE",
"315 272 OFFCURVE",
"315 262 CURVE SMOOTH",
"315 254 OFFCURVE",
"324 246 OFFCURVE",
"339 241 CURVE",
"285 163 OFFCURVE",
"214 90 OFFCURVE",
"146 38 CURVE SMOOTH",
"82 -11 OFFCURVE",
"18 -35 OFFCURVE",
"-21 -47 CURVE SMOOTH",
"-38 -52 OFFCURVE",
"-44 -56 OFFCURVE",
"-44 -66 CURVE SMOOTH",
"-44 -72 OFFCURVE",
"-40 -78 OFFCURVE",
"-29 -78 CURVE SMOOTH"
);
}
);
width = 678;
},
{
layerId = "C1B76EF4-5E0A-4C02-BFBB-E14F816E0475";
paths = (
{
closed = 1;
nodes = (
"53 -78 OFFCURVE",
"76 -78 OFFCURVE",
"132 -53 CURVE SMOOTH",
"243 -4 OFFCURVE",
"354 115 OFFCURVE",
"435 211 CURVE",
"465 218 OFFCURVE",
"499 224 OFFCURVE",
"539 241 CURVE",
"511 172 OFFCURVE",
"469 142 OFFCURVE",
"455 130 CURVE SMOOTH",
"438 115 OFFCURVE",
"430 97 OFFCURVE",
"430 72 CURVE SMOOTH",
"430 37 OFFCURVE",
"459 14 OFFCURVE",
"504 14 CURVE SMOOTH",
"539 14 OFFCURVE",
"574 37 OFFCURVE",
"601 74 CURVE SMOOTH",
"659 154 OFFCURVE",
"689 230 OFFCURVE",
"689 308 CURVE SMOOTH",
"689 399 OFFCURVE",
"666 424 OFFCURVE",
"632 424 CURVE SMOOTH",
"616 424 OFFCURVE",
"596 417 OFFCURVE",
"571 403 CURVE SMOOTH",
"525 377 OFFCURVE",
"501 364 OFFCURVE",
"472 357 CURVE",
"448 396 OFFCURVE",
"421 423 OFFCURVE",
"367 423 CURVE SMOOTH",
"286 423 OFFCURVE",
"240 367 OFFCURVE",
"240 307 CURVE SMOOTH",
"240 275 OFFCURVE",
"252 247 OFFCURVE",
"285 228 CURVE",
"216 163 OFFCURVE",
"154 123 OFFCURVE",
"104 108 CURVE SMOOTH",
"64 96 OFFCURVE",
"41 90 OFFCURVE",
"10 83 CURVE SMOOTH",
"-37 73 OFFCURVE",
"-63 44 OFFCURVE",
"-63 3 CURVE SMOOTH",
"-63 -46 OFFCURVE",
"-31 -78 OFFCURVE",
"31 -78 CURVE SMOOTH"
);
}
);
width = 751;
}
);
unicode = 0794;
category = Letter;
},
{
glyphname = uni0795;
lastChange = "2018-10-11 13:36:43 +0000";
layers = (
{
layerId = UUID0;
paths = (
{
closed = 1;
nodes = (
"24 -78 OFFCURVE",
"88 -55 OFFCURVE",
"150 -19 CURVE SMOOTH",
"209 15 OFFCURVE",
"367 117 OFFCURVE",
"367 180 CURVE SMOOTH",
"367 202 OFFCURVE",
"354 210 OFFCURVE",
"331 222 CURVE",
"348 231 OFFCURVE",
"366 241 OFFCURVE",
"381 253 CURVE SMOOTH",
"406 272 OFFCURVE",
"425 294 OFFCURVE",
"425 321 CURVE SMOOTH",
"425 352 OFFCURVE",
"389 362 OFFCURVE",
"346 374 CURVE",
"367 384 OFFCURVE",
"383 395 OFFCURVE",
"395 404 CURVE SMOOTH",
"410 416 OFFCURVE",
"418 429 OFFCURVE",
"418 439 CURVE SMOOTH",
"418 461 OFFCURVE",
"401 479 OFFCURVE",
"380 479 CURVE SMOOTH",
"355 479 OFFCURVE",
"343 458 OFFCURVE",
"299 430 CURVE SMOOTH",
"248 398 OFFCURVE",
"223 396 OFFCURVE",
"223 365 CURVE SMOOTH",
"223 346 OFFCURVE",
"233 337 OFFCURVE",
"253 330 CURVE SMOOTH",
"295 315 OFFCURVE",
"315 318 OFFCURVE",
"315 306 CURVE SMOOTH",
"315 299 OFFCURVE",
"293 289 OFFCURVE",
"268 277 CURVE SMOOTH",
"237 262 OFFCURVE",
"203 244 OFFCURVE",
"203 222 CURVE SMOOTH",
"203 204 OFFCURVE",
"212 194 OFFCURVE",
"222 187 CURVE SMOOTH",
"236 177 OFFCURVE",
"253 173 OFFCURVE",
"253 165 CURVE SMOOTH",
"253 140 OFFCURVE",
"211 109 OFFCURVE",
"123 72 CURVE SMOOTH",
"84 56 OFFCURVE",
"46 47 OFFCURVE",
"-2 35 CURVE SMOOTH",
"-31 28 OFFCURVE",
"-59 8 OFFCURVE",
"-59 -21 CURVE SMOOTH",
"-59 -55 OFFCURVE",
"-38 -78 OFFCURVE",
"3 -78 CURVE SMOOTH"
);
},
{
closed = 1;
nodes = (
"277 -151 OFFCURVE",
"304 -129 OFFCURVE",
"304 -98 CURVE SMOOTH",
"304 -71 OFFCURVE",
"283 -50 OFFCURVE",
"256 -50 CURVE SMOOTH",
"228 -50 OFFCURVE",
"203 -73 OFFCURVE",
"203 -104 CURVE SMOOTH",
"203 -131 OFFCURVE",
"222 -151 OFFCURVE",
"250 -151 CURVE SMOOTH"
);
}
);
width = 449;
},
{
layerId = "20DCAE03-7ADA-4AB6-8D13-19ECCD31BD40";
paths = (
{
closed = 1;
nodes = (
"45 -79 OFFCURVE",
"97 -60 OFFCURVE",
"155 -26 CURVE SMOOTH",
"242 26 OFFCURVE",
"370 113 OFFCURVE",
"370 182 CURVE SMOOTH",
"370 206 OFFCURVE",
"355 216 OFFCURVE",
"331 226 CURVE",
"338 228 OFFCURVE",
"351 235 OFFCURVE",
"372 248 CURVE SMOOTH",
"404 267 OFFCURVE",
"429 292 OFFCURVE",
"429 324 CURVE SMOOTH",
"429 353 OFFCURVE",
"391 365 OFFCURVE",
"349 376 CURVE",
"356 380 OFFCURVE",
"376 390 OFFCURVE",
"395 402 CURVE SMOOTH",
"411 412 OFFCURVE",
"427 424 OFFCURVE",
"427 439 CURVE SMOOTH",
"427 467 OFFCURVE",
"403 488 OFFCURVE",
"374 488 CURVE SMOOTH",
"345 488 OFFCURVE",
"312 457 OFFCURVE",
"284 441 CURVE SMOOTH",
"256 425 OFFCURVE",
"205 404 OFFCURVE",
"205 372 CURVE SMOOTH",
"205 351 OFFCURVE",
"228 340 OFFCURVE",
"250 332 CURVE SMOOTH",
"274 323 OFFCURVE",
"305 317 OFFCURVE",
"305 311 CURVE",
"305 302 OFFCURVE",
"280 298 OFFCURVE",
"241 281 CURVE SMOOTH",
"194 260 OFFCURVE",
"175 245 OFFCURVE",
"175 225 CURVE SMOOTH",
"175 212 OFFCURVE",
"184 201 OFFCURVE",
"196 191 CURVE SMOOTH",
"207 182 OFFCURVE",
"230 172 OFFCURVE",
"251 169 CURVE",
"251 144 OFFCURVE",
"188 112 OFFCURVE",
"121 87 CURVE SMOOTH",
"87 74 OFFCURVE",
"52 65 OFFCURVE",
"23 59 CURVE SMOOTH",
"-31 47 OFFCURVE",
"-59 20 OFFCURVE",
"-59 -13 CURVE SMOOTH",
"-59 -53 OFFCURVE",
"-35 -79 OFFCURVE",
"16 -79 CURVE SMOOTH"
);
},
{
closed = 1;
nodes = (
"284 -166 OFFCURVE",
"319 -138 OFFCURVE",
"319 -97 CURVE SMOOTH",
"319 -62 OFFCURVE",
"292 -35 OFFCURVE",
"257 -35 CURVE SMOOTH",
"220 -35 OFFCURVE",
"188 -65 OFFCURVE",
"188 -105 CURVE SMOOTH",
"188 -140 OFFCURVE",
"213 -166 OFFCURVE",
"249 -166 CURVE SMOOTH"
);
}
);
width = 458;
},
{
layerId = "474759B3-6A21-45C1-BBBC-641F1925F03A";
paths = (
{
closed = 1;
nodes = (
"-7 -85 OFFCURVE",
"79 -46 OFFCURVE",
"144 -15 CURVE SMOOTH",
"230 26 OFFCURVE",
"365 112 OFFCURVE",
"365 162 CURVE SMOOTH",
"365 178 OFFCURVE",
"340 194 OFFCURVE",
"264 208 CURVE",
"300 224 OFFCURVE",
"330 236 OFFCURVE",
"353 247 CURVE SMOOTH",
"409 274 OFFCURVE",
"427 288 OFFCURVE",
"427 306 CURVE SMOOTH",
"427 328 OFFCURVE",
"363 345 OFFCURVE",
"280 368 CURVE",
"334 397 OFFCURVE",
"390 423 OFFCURVE",
"416 439 CURVE SMOOTH",
"421 442 OFFCURVE",
"422 445 OFFCURVE",
"422 449 CURVE SMOOTH",
"422 452 OFFCURVE",
"419 457 OFFCURVE",
"412 457 CURVE SMOOTH",
"396 457 OFFCURVE",
"379 437 OFFCURVE",
"319 409 CURVE SMOOTH",
"271 386 OFFCURVE",
"257 375 OFFCURVE",
"257 366 CURVE SMOOTH",
"257 360 OFFCURVE",
"261 354 OFFCURVE",
"290 346 CURVE SMOOTH",
"345 331 OFFCURVE",
"404 313 OFFCURVE",
"404 303 CURVE SMOOTH",
"404 290 OFFCURVE",
"365 272 OFFCURVE",
"319 253 CURVE SMOOTH",
"273 234 OFFCURVE",
"233 215 OFFCURVE",
"233 206 CURVE SMOOTH",
"233 200 OFFCURVE",
"236 195 OFFCURVE",
"248 193 CURVE SMOOTH",
"289 186 OFFCURVE",
"340 175 OFFCURVE",
"340 157 CURVE SMOOTH",
"340 121 OFFCURVE",
"221 46 OFFCURVE",
"115 1 CURVE SMOOTH",
"68 -19 OFFCURVE",
"26 -39 OFFCURVE",
"-15 -50 CURVE SMOOTH",
"-39 -56 OFFCURVE",
"-47 -62 OFFCURVE",
"-47 -71 CURVE SMOOTH",
"-47 -82 OFFCURVE",
"-40 -85 OFFCURVE",
"-27 -85 CURVE SMOOTH"
);
},
{
closed = 1;
nodes = (
"265 -151 OFFCURVE",
"277 -143 OFFCURVE",
"277 -132 CURVE SMOOTH",
"277 -123 OFFCURVE",
"269 -117 OFFCURVE",
"259 -117 CURVE SMOOTH",
"242 -117 OFFCURVE",
"232 -126 OFFCURVE",
"232 -135 CURVE SMOOTH",
"232 -144 OFFCURVE",
"238 -151 OFFCURVE",
"252 -151 CURVE SMOOTH"
);
}
);
width = 449;
},
{
layerId = "C1B76EF4-5E0A-4C02-BFBB-E14F816E0475";
paths = (
{
closed = 1;
nodes = (
"60 -77 OFFCURVE",
"101 -65 OFFCURVE",
"158 -29 CURVE SMOOTH",
"244 25 OFFCURVE",
"371 113 OFFCURVE",
"371 188 CURVE SMOOTH",
"371 214 OFFCURVE",
"359 222 OFFCURVE",
"350 231 CURVE",
"354 233 OFFCURVE",
"361 237 OFFCURVE",
"377 248 CURVE SMOOTH",
"403 265 OFFCURVE",
"430 293 OFFCURVE",
"430 329 CURVE SMOOTH",
"430 360 OFFCURVE",
"399 371 OFFCURVE",
"369 378 CURVE",
"376 383 OFFCURVE",
"381 386 OFFCURVE",
"399 396 CURVE SMOOTH",
"422 409 OFFCURVE",
"436 418 OFFCURVE",
"436 436 CURVE SMOOTH",
"436 471 OFFCURVE",
"405 497 OFFCURVE",
"369 497 CURVE SMOOTH",
"333 497 OFFCURVE",
"301 470 OFFCURVE",
"272 451 CURVE SMOOTH",
"243 432 OFFCURVE",
"190 412 OFFCURVE",
"190 374 CURVE SMOOTH",
"190 347 OFFCURVE",
"218 336 OFFCURVE",
"239 328 CURVE SMOOTH",
"255 322 OFFCURVE",
"277 317 OFFCURVE",
"277 313 CURVE SMOOTH",
"277 305 OFFCURVE",
"256 305 OFFCURVE",
"219 289 CURVE SMOOTH",
"172 268 OFFCURVE",
"158 254 OFFCURVE",
"158 230 CURVE SMOOTH",
"158 215 OFFCURVE",
"168 198 OFFCURVE",
"181 190 CURVE SMOOTH",
"196 181 OFFCURVE",
"217 176 OFFCURVE",
"226 172 CURVE",
"226 150 OFFCURVE",
"178 131 OFFCURVE",
"123 112 CURVE SMOOTH",
"92 101 OFFCURVE",
"61 96 OFFCURVE",
"34 90 CURVE SMOOTH",
"-29 77 OFFCURVE",
"-62 43 OFFCURVE",
"-62 4 CURVE SMOOTH",
"-62 -45 OFFCURVE",
"-34 -77 OFFCURVE",
"28 -77 CURVE SMOOTH"
);
},
{
closed = 1;
nodes = (
"289 -210 OFFCURVE",
"331 -177 OFFCURVE",
"331 -127 CURVE SMOOTH",
"331 -85 OFFCURVE",
"299 -52 OFFCURVE",
"256 -52 CURVE SMOOTH",
"214 -52 OFFCURVE",
"175 -88 OFFCURVE",
"175 -136 CURVE SMOOTH",
"175 -179 OFFCURVE",
"206 -210 OFFCURVE",
"248 -210 CURVE SMOOTH"
);
}
);
width = 461;
}
);
unicode = 0795;
category = Letter;
},
{
glyphname = uni0796;
lastChange = "2018-10-11 13:36:43 +0000";
layers = (
{
layerId = UUID0;
paths = (
{
closed = 1;
nodes = (
"312 -156 OFFCURVE",
"386 -153 OFFCURVE",
"437 -136 CURVE SMOOTH",
"469 -125 OFFCURVE",
"491 -110 OFFCURVE",
"491 -86 CURVE SMOOTH",
"491 -63 OFFCURVE",
"477 -52 OFFCURVE",
"455 -52 CURVE SMOOTH",
"451 -52 OFFCURVE",
"432 -56 OFFCURVE",
"409 -60 CURVE SMOOTH",
"383 -64 OFFCURVE",
"344 -68 OFFCURVE",
"265 -68 CURVE SMOOTH",
"161 -68 OFFCURVE",
"131 -46 OFFCURVE",
"131 6 CURVE SMOOTH",
"131 41 OFFCURVE",
"163 68 OFFCURVE",
"213 95 CURVE",
"242 89 OFFCURVE",
"270 89 OFFCURVE",
"283 89 CURVE SMOOTH",
"389 89 OFFCURVE",
"496 144 OFFCURVE",
"496 249 CURVE SMOOTH",
"496 291 OFFCURVE",
"468 322 OFFCURVE",
"454 327 CURVE",
"489 340 OFFCURVE",
"519 353 OFFCURVE",
"519 380 CURVE SMOOTH",
"519 402 OFFCURVE",
"502 419 OFFCURVE",
"479 419 CURVE SMOOTH",
"456 419 OFFCURVE",
"442 401 OFFCURVE",
"404 386 CURVE SMOOTH",
"358 368 OFFCURVE",
"324 367 OFFCURVE",
"324 332 CURVE SMOOTH",
"324 311 OFFCURVE",
"338 304 OFFCURVE",
"360 293 CURVE SMOOTH",
"379 284 OFFCURVE",
"398 280 OFFCURVE",
"398 247 CURVE SMOOTH",
"398 202 OFFCURVE",
"351 179 OFFCURVE",
"310 179 CURVE SMOOTH",
"292 179 OFFCURVE",
"275 181 OFFCURVE",
"260 186 CURVE",
"254 209 OFFCURVE",
"234 239 OFFCURVE",
"204 239 CURVE SMOOTH",
"174 239 OFFCURVE",
"130 227 OFFCURVE",
"130 170 CURVE SMOOTH",
"130 155 OFFCURVE",
"134 142 OFFCURVE",
"142 132 CURVE",
"70 82 OFFCURVE",
"39 40 OFFCURVE",
"39 -16 CURVE SMOOTH",
"39 -96 OFFCURVE",
"102 -156 OFFCURVE",
"265 -156 CURVE SMOOTH"
);
}
);
width = 583;
},
{
layerId = "20DCAE03-7ADA-4AB6-8D13-19ECCD31BD40";
paths = (
{
closed = 1;
nodes = (
"352 -156 OFFCURVE",
"408 -150 OFFCURVE",
"446 -138 CURVE SMOOTH",
"487 -125 OFFCURVE",
"507 -104 OFFCURVE",
"507 -78 CURVE SMOOTH",
"507 -47 OFFCURVE",
"480 -31 OFFCURVE",
"458 -31 CURVE SMOOTH",
"440 -31 OFFCURVE",
"419 -37 OFFCURVE",
"403 -40 CURVE SMOOTH",
"380 -44 OFFCURVE",
"345 -50 OFFCURVE",
"278 -50 CURVE SMOOTH",
"194 -50 OFFCURVE",
"162 -32 OFFCURVE",
"162 16 CURVE SMOOTH",
"162 44 OFFCURVE",
"188 68 OFFCURVE",
"207 81 CURVE",
"226 78 OFFCURVE",
"250 76 OFFCURVE",
"275 76 CURVE SMOOTH",
"402 76 OFFCURVE",
"507 151 OFFCURVE",
"507 250 CURVE SMOOTH",
"507 277 OFFCURVE",
"493 310 OFFCURVE",
"463 322 CURVE",
"506 332 OFFCURVE",
"530 355 OFFCURVE",
"530 378 CURVE SMOOTH",
"530 406 OFFCURVE",
"508 427 OFFCURVE",
"476 427 CURVE SMOOTH",
"460 427 OFFCURVE",
"452 416 OFFCURVE",
"402 393 CURVE SMOOTH",
"364 376 OFFCURVE",
"313 374 OFFCURVE",
"313 329 CURVE SMOOTH",
"313 303 OFFCURVE",
"323 296 OFFCURVE",
"353 283 CURVE SMOOTH",
"376 273 OFFCURVE",
"382 265 OFFCURVE",
"382 248 CURVE SMOOTH",
"382 208 OFFCURVE",
"337 186 OFFCURVE",
"302 186 CURVE SMOOTH",
"288 186 OFFCURVE",
"265 188 OFFCURVE",
"254 190 CURVE",
"244 222 OFFCURVE",
"223 250 OFFCURVE",
"181 250 CURVE SMOOTH",
"145 250 OFFCURVE",
"105 222 OFFCURVE",
"105 170 CURVE SMOOTH",
"105 158 OFFCURVE",
"112 140 OFFCURVE",
"124 130 CURVE",
"78 102 OFFCURVE",
"40 49 OFFCURVE",
"40 -7 CURVE SMOOTH",
"40 -104 OFFCURVE",
"121 -156 OFFCURVE",
"278 -156 CURVE SMOOTH"
);
}
);
width = 594;
},
{
layerId = "474759B3-6A21-45C1-BBBC-641F1925F03A";
paths = (
{
closed = 1;
nodes = (
"323 -170 OFFCURVE",
"380 -161 OFFCURVE",
"431 -147 CURVE SMOOTH",
"442 -144 OFFCURVE",
"449 -139 OFFCURVE",
"449 -132 CURVE SMOOTH",
"449 -126 OFFCURVE",
"445 -120 OFFCURVE",
"435 -120 CURVE SMOOTH",
"425 -120 OFFCURVE",
"415 -123 OFFCURVE",
"391 -130 CURVE SMOOTH",
"361 -139 OFFCURVE",
"327 -148 OFFCURVE",
"247 -148 CURVE SMOOTH",
"124 -148 OFFCURVE",
"76 -110 OFFCURVE",
"76 -48 CURVE SMOOTH",
"76 14 OFFCURVE",
"157 66 OFFCURVE",
"248 105 CURVE",
"264 101 OFFCURVE",
"284 100 OFFCURVE",
"302 100 CURVE SMOOTH",
"397 100 OFFCURVE",
"493 173 OFFCURVE",
"493 243 CURVE SMOOTH",
"493 278 OFFCURVE",
"476 303 OFFCURVE",
"425 323 CURVE",
"470 333 OFFCURVE",
"525 360 OFFCURVE",
"525 371 CURVE SMOOTH",
"525 379 OFFCURVE",
"523 382 OFFCURVE",
"513 382 CURVE SMOOTH",
"506 382 OFFCURVE",
"490 364 OFFCURVE",
"452 351 CURVE SMOOTH",
"421 340 OFFCURVE",
"390 333 OFFCURVE",
"390 324 CURVE SMOOTH",
"390 318 OFFCURVE",
"393 316 OFFCURVE",
"404 311 CURVE SMOOTH",
"445 292 OFFCURVE",
"471 277 OFFCURVE",
"471 240 CURVE SMOOTH",
"471 183 OFFCURVE",
"384 120 OFFCURVE",
"304 120 CURVE SMOOTH",
"287 120 OFFCURVE",
"271 122 OFFCURVE",
"264 123 CURVE",
"257 136 OFFCURVE",
"238 150 OFFCURVE",
"224 150 CURVE SMOOTH",
"213 150 OFFCURVE",
"205 142 OFFCURVE",
"205 132 CURVE SMOOTH",
"205 124 OFFCURVE",
"212 117 OFFCURVE",
"222 113 CURVE",
"129 70 OFFCURVE",
"54 17 OFFCURVE",
"54 -48 CURVE SMOOTH",
"54 -120 OFFCURVE",
"109 -170 OFFCURVE",
"239 -170 CURVE SMOOTH"
);
}
);
width = 583;
},
{
layerId = "C1B76EF4-5E0A-4C02-BFBB-E14F816E0475";
paths = (
{
closed = 1;
nodes = (
"360 -159 OFFCURVE",
"415 -154 OFFCURVE",
"452 -142 CURVE SMOOTH",
"500 -126 OFFCURVE",
"524 -101 OFFCURVE",
"524 -70 CURVE SMOOTH",
"524 -31 OFFCURVE",
"490 -13 OFFCURVE",
"465 -13 CURVE SMOOTH",
"444 -13 OFFCURVE",
"420 -19 OFFCURVE",
"406 -21 CURVE SMOOTH",
"385 -24 OFFCURVE",
"350 -29 OFFCURVE",
"287 -29 CURVE SMOOTH",
"214 -29 OFFCURVE",
"182 -15 OFFCURVE",
"182 34 CURVE SMOOTH",
"182 53 OFFCURVE",
"191 66 OFFCURVE",
"200 74 CURVE",
"215 71 OFFCURVE",
"240 69 OFFCURVE",
"267 69 CURVE SMOOTH",
"403 69 OFFCURVE",
"511 145 OFFCURVE",
"511 252 CURVE SMOOTH",
"511 277 OFFCURVE",
"498 312 OFFCURVE",
"474 322 CURVE",
"522 332 OFFCURVE",
"539 354 OFFCURVE",
"539 380 CURVE SMOOTH",
"539 414 OFFCURVE",
"516 440 OFFCURVE",
"484 440 CURVE SMOOTH",
"454 440 OFFCURVE",
"441 431 OFFCURVE",
"388 405 CURVE SMOOTH",
"349 386 OFFCURVE",
"291 386 OFFCURVE",
"291 330 CURVE SMOOTH",
"291 299 OFFCURVE",
"303 290 OFFCURVE",
"333 278 CURVE SMOOTH",
"349 272 OFFCURVE",
"357 263 OFFCURVE",
"357 250 CURVE SMOOTH",
"357 215 OFFCURVE",
"324 205 OFFCURVE",
"301 205 CURVE SMOOTH",
"288 205 OFFCURVE",
"263 207 OFFCURVE",
"251 209 CURVE",
"240 247 OFFCURVE",
"219 279 OFFCURVE",
"169 279 CURVE SMOOTH",
"126 279 OFFCURVE",
"76 245 OFFCURVE",
"76 187 CURVE SMOOTH",
"76 168 OFFCURVE",
"83 147 OFFCURVE",
"101 130 CURVE",
"61 101 OFFCURVE",
"31 53 OFFCURVE",
"31 5 CURVE SMOOTH",
"31 -103 OFFCURVE",
"124 -159 OFFCURVE",
"289 -159 CURVE SMOOTH"
);
}
);
width = 597;
}
);
unicode = 0796;
category = Letter;
},
{
glyphname = uni0797;
lastChange = "2018-10-11 13:36:43 +0000";
layers = (
{
layerId = UUID0;
paths = (
{
closed = 1;
nodes = (
"35 -156 OFFCURVE",
"84 -137 OFFCURVE",
"146 -95 CURVE SMOOTH",
"185 -68 OFFCURVE",
"227 -20 OFFCURVE",
"227 23 CURVE SMOOTH",
"227 42 OFFCURVE",
"216 58 OFFCURVE",
"204 70 CURVE SMOOTH",
"190 85 OFFCURVE",
"175 95 OFFCURVE",
"175 103 CURVE SMOOTH",
"175 115 OFFCURVE",
"190 127 OFFCURVE",
"210 142 CURVE",
"237 86 OFFCURVE",
"286 60 OFFCURVE",
"353 60 CURVE SMOOTH",
"414 60 OFFCURVE",
"509 104 OFFCURVE",
"509 193 CURVE SMOOTH",
"509 254 OFFCURVE",
"472 296 OFFCURVE",
"423 305 CURVE",
"515 361 OFFCURVE",
"615 419 OFFCURVE",
"648 438 CURVE SMOOTH",
"678 455 OFFCURVE",
"693 472 OFFCURVE",
"693 488 CURVE SMOOTH",
"693 518 OFFCURVE",
"668 523 OFFCURVE",
"654 523 CURVE SMOOTH",
"641 523 OFFCURVE",
"624 520 OFFCURVE",
"605 509 CURVE SMOOTH",
"537 470 OFFCURVE",
"453 420 OFFCURVE",
"372 365 CURVE SMOOTH",
"220 263 OFFCURVE",
"78 150 OFFCURVE",
"78 93 CURVE SMOOTH",
"78 80 OFFCURVE",
"89 67 OFFCURVE",
"101 55 CURVE SMOOTH",
"113 43 OFFCURVE",
"123 32 OFFCURVE",
"123 22 CURVE SMOOTH",
"123 -10 OFFCURVE",
"50 -34 OFFCURVE",
"-2 -49 CURVE SMOOTH",
"-32 -58 OFFCURVE",
"-49 -75 OFFCURVE",
"-49 -104 CURVE SMOOTH",
"-49 -138 OFFCURVE",
"-28 -156 OFFCURVE",
"13 -156 CURVE SMOOTH"
);
},
{
closed = 1;
nodes = (
"315 143 OFFCURVE",
"299 166 OFFCURVE",
"291 196 CURVE",
"319 222 OFFCURVE",
"346 235 OFFCURVE",
"370 235 CURVE SMOOTH",
"401 235 OFFCURVE",
"416 218 OFFCURVE",
"416 196 CURVE SMOOTH",
"416 163 OFFCURVE",
"386 143 OFFCURVE",
"354 143 CURVE SMOOTH"
);
}
);
width = 646;
},
{
layerId = "20DCAE03-7ADA-4AB6-8D13-19ECCD31BD40";
paths = (
{
closed = 1;
nodes = (
"49 -158 OFFCURVE",
"79 -147 OFFCURVE",
"122 -121 CURVE SMOOTH",
"210 -67 OFFCURVE",
"235 -25 OFFCURVE",
"235 21 CURVE SMOOTH",
"235 40 OFFCURVE",
"223 62 OFFCURVE",
"203 80 CURVE SMOOTH",
"189 92 OFFCURVE",
"183 100 OFFCURVE",
"183 103 CURVE SMOOTH",
"183 105 OFFCURVE",
"199 122 OFFCURVE",
"213 133 CURVE",
"244 84 OFFCURVE",
"295 61 OFFCURVE",
"362 61 CURVE SMOOTH",
"447 61 OFFCURVE",
"538 125 OFFCURVE",
"538 205 CURVE SMOOTH",
"538 255 OFFCURVE",
"512 301 OFFCURVE",
"463 321 CURVE",
"510 350 OFFCURVE",
"605 405 OFFCURVE",
"642 434 CURVE SMOOTH",
"676 460 OFFCURVE",
"685 474 OFFCURVE",
"685 486 CURVE SMOOTH",
"685 512 OFFCURVE",
"673 527 OFFCURVE",
"644 527 CURVE SMOOTH",
"629 527 OFFCURVE",
"614 525 OFFCURVE",
"598 519 CURVE SMOOTH",
"544 500 OFFCURVE",
"475 450 OFFCURVE",
"343 359 CURVE SMOOTH",
"123 207 OFFCURVE",
"62 131 OFFCURVE",
"62 92 CURVE SMOOTH",
"62 80 OFFCURVE",
"76 65 OFFCURVE",
"93 47 CURVE SMOOTH",
"105 35 OFFCURVE",
"112 26 OFFCURVE",
"112 21 CURVE SMOOTH",
"112 -2 OFFCURVE",
"68 -15 OFFCURVE",
"14 -29 CURVE SMOOTH",
"-28 -40 OFFCURVE",
"-49 -63 OFFCURVE",
"-49 -97 CURVE SMOOTH",
"-49 -136 OFFCURVE",
"-23 -158 OFFCURVE",
"27 -158 CURVE SMOOTH"
);
},
{
closed = 1;
nodes = (
"316 161 OFFCURVE",
"297 179 OFFCURVE",
"288 212 CURVE",
"320 240 OFFCURVE",
"348 253 OFFCURVE",
"371 253 CURVE SMOOTH",
"401 253 OFFCURVE",
"414 237 OFFCURVE",
"414 215 CURVE SMOOTH",
"414 184 OFFCURVE",
"386 161 OFFCURVE",
"352 161 CURVE SMOOTH"
);
}
);
width = 641;
},
{
layerId = "474759B3-6A21-45C1-BBBC-641F1925F03A";
paths = (
{
closed = 1;
nodes = (
"1 -163 OFFCURVE",
"68 -142 OFFCURVE",
"129 -109 CURVE SMOOTH",
"184 -79 OFFCURVE",
"211 -47 OFFCURVE",
"211 -15 CURVE SMOOTH",
"211 13 OFFCURVE",
"195 25 OFFCURVE",
"166 46 CURVE SMOOTH",
"139 66 OFFCURVE",
"130 73 OFFCURVE",
"130 83 CURVE SMOOTH",
"130 98 OFFCURVE",
"160 135 OFFCURVE",
"223 185 CURVE",
"260 100 OFFCURVE",
"323 66 OFFCURVE",
"394 66 CURVE SMOOTH",
"461 66 OFFCURVE",
"519 111 OFFCURVE",
"519 168 CURVE SMOOTH",
"519 224 OFFCURVE",
"458 271 OFFCURVE",
"332 269 CURVE",
"457 352 OFFCURVE",
"609 444 OFFCURVE",
"675 469 CURVE SMOOTH",
"696 477 OFFCURVE",
"704 482 OFFCURVE",
"704 491 CURVE SMOOTH",
"704 498 OFFCURVE",
"699 501 OFFCURVE",
"689 501 CURVE SMOOTH",
"680 501 OFFCURVE",
"663 494 OFFCURVE",
"636 480 CURVE SMOOTH",
"578 449 OFFCURVE",
"468 384 OFFCURVE",
"371 319 CURVE SMOOTH",
"239 230 OFFCURVE",
"108 127 OFFCURVE",
"108 79 CURVE SMOOTH",
"108 69 OFFCURVE",
"120 55 OFFCURVE",
"148 36 CURVE SMOOTH",
"176 17 OFFCURVE",
"191 0 OFFCURVE",
"191 -18 CURVE SMOOTH",
"191 -60 OFFCURVE",
"103 -107 OFFCURVE",
"-8 -135 CURVE SMOOTH",
"-21 -138 OFFCURVE",
"-29 -141 OFFCURVE",
"-29 -151 CURVE SMOOTH",
"-29 -159 OFFCURVE",
"-26 -163 OFFCURVE",
"-16 -163 CURVE SMOOTH"
);
},
{
closed = 1;
nodes = (
"317 86 OFFCURVE",
"264 134 OFFCURVE",
"239 199 CURVE",
"269 228 OFFCURVE",
"314 252 OFFCURVE",
"333 252 CURVE SMOOTH",
"448 252 OFFCURVE",
"498 215 OFFCURVE",
"498 168 CURVE SMOOTH",
"498 117 OFFCURVE",
"449 86 OFFCURVE",
"395 86 CURVE SMOOTH"
);
}
);
width = 646;
},
{
layerId = "C1B76EF4-5E0A-4C02-BFBB-E14F816E0475";
paths = (
{
closed = 1;
nodes = (
"63 -157 OFFCURVE",
"82 -147 OFFCURVE",
"120 -124 CURVE SMOOTH",
"217 -64 OFFCURVE",
"242 -19 OFFCURVE",
"242 31 CURVE SMOOTH",
"242 48 OFFCURVE",
"231 70 OFFCURVE",
"214 90 CURVE SMOOTH",
"205 101 OFFCURVE",
"200 107 OFFCURVE",
"198 109 CURVE",
"202 113 OFFCURVE",
"206 116 OFFCURVE",
"210 118 CURVE",
"239 79 OFFCURVE",
"287 60 OFFCURVE",
"353 60 CURVE SMOOTH",
"443 60 OFFCURVE",
"543 148 OFFCURVE",
"543 235 CURVE SMOOTH",
"543 283 OFFCURVE",
"527 310 OFFCURVE",
"500 336 CURVE",
"525 349 OFFCURVE",
"604 401 OFFCURVE",
"647 433 CURVE SMOOTH",
"674 453 OFFCURVE",
"685 472 OFFCURVE",
"685 491 CURVE SMOOTH",
"685 519 OFFCURVE",
"669 541 OFFCURVE",
"638 541 CURVE SMOOTH",
"614 541 OFFCURVE",
"601 536 OFFCURVE",
"587 530 CURVE SMOOTH",
"533 507 OFFCURVE",
"478 475 OFFCURVE",
"305 349 CURVE SMOOTH",
"96 197 OFFCURVE",
"49 132 OFFCURVE",
"49 96 CURVE SMOOTH",
"49 83 OFFCURVE",
"63 68 OFFCURVE",
"77 50 CURVE SMOOTH",
"85 40 OFFCURVE",
"89 33 OFFCURVE",
"89 27 CURVE SMOOTH",
"89 15 OFFCURVE",
"58 11 OFFCURVE",
"20 1 CURVE SMOOTH",
"-30 -12 OFFCURVE",
"-55 -41 OFFCURVE",
"-55 -82 CURVE SMOOTH",
"-55 -129 OFFCURVE",
"-22 -157 OFFCURVE",
"21 -157 CURVE SMOOTH"
);
},
{
closed = 1;
nodes = (
"316 182 OFFCURVE",
"306 192 OFFCURVE",
"302 216 CURVE",
"335 243 OFFCURVE",
"354 253 OFFCURVE",
"368 253 CURVE SMOOTH",
"380 253 OFFCURVE",
"390 243 OFFCURVE",
"390 228 CURVE SMOOTH",
"390 203 OFFCURVE",
"368 182 OFFCURVE",
"340 182 CURVE SMOOTH"
);
}
);
width = 640;
}
);
unicode = 0797;
category = Letter;
},
{
glyphname = uni0798;
lastChange = "2018-10-11 13:36:43 +0000";
layers = (
{
layerId = UUID0;
paths = (
{
closed = 1;
nodes = (
"141 -44 OFFCURVE",
"264 5 OFFCURVE",
"264 81 CURVE SMOOTH",
"264 106 OFFCURVE",
"249 125 OFFCURVE",
"234 140 CURVE SMOOTH",
"220 154 OFFCURVE",
"207 164 OFFCURVE",
"207 171 CURVE SMOOTH",
"207 181 OFFCURVE",
"225 194 OFFCURVE",
"246 208 CURVE",
"290 168 OFFCURVE",
"348 153 OFFCURVE",
"383 153 CURVE SMOOTH",
"460 153 OFFCURVE",
"555 205 OFFCURVE",
"555 300 CURVE SMOOTH",
"555 357 OFFCURVE",
"528 391 OFFCURVE",
"467 391 CURVE SMOOTH",
"340 391 OFFCURVE",
"108 241 OFFCURVE",
"108 151 CURVE SMOOTH",
"108 137 OFFCURVE",
"125 127 OFFCURVE",
"140 116 CURVE SMOOTH",
"153 106 OFFCURVE",
"164 97 OFFCURVE",
"164 84 CURVE SMOOTH",
"164 55 OFFCURVE",
"118 43 OFFCURVE",
"62 43 CURVE SMOOTH",
"50 43 OFFCURVE",
"32 46 OFFCURVE",
"20 50 CURVE SMOOTH",
"9 54 OFFCURVE",
"-1 57 OFFCURVE",
"-15 57 CURVE SMOOTH",
"-44 57 OFFCURVE",
"-56 38 OFFCURVE",
"-56 10 CURVE SMOOTH",
"-56 -8 OFFCURVE",
"-44 -22 OFFCURVE",
"-26 -30 CURVE SMOOTH",
"-3 -40 OFFCURVE",
"28 -44 OFFCURVE",
"59 -44 CURVE SMOOTH"
);
},
{
closed = 1;
nodes = (
"363 236 OFFCURVE",
"343 245 OFFCURVE",
"326 258 CURVE",
"376 287 OFFCURVE",
"430 310 OFFCURVE",
"446 310 CURVE SMOOTH",
"456 310 OFFCURVE",
"462 308 OFFCURVE",
"462 297 CURVE SMOOTH",
"462 264 OFFCURVE",
"443 236 OFFCURVE",
"388 236 CURVE SMOOTH"
);
},
{
closed = 1;
nodes = (
"484 541 OFFCURVE",
"511 563 OFFCURVE",
"511 594 CURVE SMOOTH",
"511 621 OFFCURVE",
"491 642 OFFCURVE",
"463 642 CURVE SMOOTH",
"435 642 OFFCURVE",
"410 619 OFFCURVE",
"410 588 CURVE SMOOTH",
"410 561 OFFCURVE",
"430 541 OFFCURVE",
"457 541 CURVE SMOOTH"
);
},
{
closed = 1;
nodes = (
"378 415 OFFCURVE",
"405 437 OFFCURVE",
"405 468 CURVE SMOOTH",
"405 495 OFFCURVE",
"385 516 OFFCURVE",
"357 516 CURVE SMOOTH",
"330 516 OFFCURVE",
"304 493 OFFCURVE",
"304 462 CURVE SMOOTH",
"304 435 OFFCURVE",
"324 415 OFFCURVE",
"351 415 CURVE SMOOTH"
);
},
{
closed = 1;
nodes = (
"569 415 OFFCURVE",
"596 437 OFFCURVE",
"596 468 CURVE SMOOTH",
"596 495 OFFCURVE",
"575 516 OFFCURVE",
"548 516 CURVE SMOOTH",
"520 516 OFFCURVE",
"495 493 OFFCURVE",
"495 462 CURVE SMOOTH",
"495 435 OFFCURVE",
"514 415 OFFCURVE",
"541 415 CURVE SMOOTH"
);
}
);
width = 618;
},
{
layerId = "20DCAE03-7ADA-4AB6-8D13-19ECCD31BD40";
paths = (
{
closed = 1;
nodes = (
"209 -44 OFFCURVE",
"308 7 OFFCURVE",
"308 80 CURVE SMOOTH",
"308 103 OFFCURVE",
"292 121 OFFCURVE",
"270 141 CURVE SMOOTH",
"253 157 OFFCURVE",
"242 168 OFFCURVE",
"242 171 CURVE SMOOTH",
"242 177 OFFCURVE",
"257 194 OFFCURVE",
"269 204 CURVE",
"295 173 OFFCURVE",
"360 145 OFFCURVE",
"414 145 CURVE SMOOTH",
"502 145 OFFCURVE",
"597 208 OFFCURVE",
"597 305 CURVE SMOOTH",
"597 369 OFFCURVE",
"549 405 OFFCURVE",
"478 405 CURVE SMOOTH",
"367 405 OFFCURVE",
"133 276 OFFCURVE",
"133 163 CURVE SMOOTH",
"133 151 OFFCURVE",
"140 136 OFFCURVE",
"164 120 CURVE SMOOTH",
"178 110 OFFCURVE",
"188 101 OFFCURVE",
"188 94 CURVE SMOOTH",
"188 72 OFFCURVE",
"164 61 OFFCURVE",
"110 61 CURVE SMOOTH",
"94 61 OFFCURVE",
"80 66 OFFCURVE",
"64 70 CURVE SMOOTH",
"54 73 OFFCURVE",
"43 75 OFFCURVE",
"32 75 CURVE SMOOTH",
"-8 75 OFFCURVE",
"-24 54 OFFCURVE",
"-24 20 CURVE SMOOTH",
"-24 -8 OFFCURVE",
"-2 -28 OFFCURVE",
"39 -37 CURVE SMOOTH",
"58 -41 OFFCURVE",
"81 -44 OFFCURVE",
"107 -44 CURVE SMOOTH"
);
},
{
closed = 1;
nodes = (
"372 240 OFFCURVE",
"347 247 OFFCURVE",
"325 263 CURVE",
"360 284 OFFCURVE",
"417 315 OFFCURVE",
"458 315 CURVE SMOOTH",
"465 315 OFFCURVE",
"475 311 OFFCURVE",
"475 304 CURVE SMOOTH",
"475 264 OFFCURVE",
"441 240 OFFCURVE",
"393 240 CURVE SMOOTH"
);
},
{
closed = 1;
nodes = (
"489 563 OFFCURVE",
"520 588 OFFCURVE",
"520 624 CURVE SMOOTH",
"520 655 OFFCURVE",
"497 679 OFFCURVE",
"465 679 CURVE SMOOTH",
"433 679 OFFCURVE",
"404 653 OFFCURVE",
"404 617 CURVE SMOOTH",
"404 586 OFFCURVE",
"427 563 OFFCURVE",
"458 563 CURVE SMOOTH"
);
},
{
closed = 1;
nodes = (
"377 418 OFFCURVE",
"408 443 OFFCURVE",
"408 479 CURVE SMOOTH",
"408 510 OFFCURVE",
"385 534 OFFCURVE",
"353 534 CURVE SMOOTH",
"322 534 OFFCURVE",
"292 508 OFFCURVE",
"292 472 CURVE SMOOTH",
"292 441 OFFCURVE",
"315 418 OFFCURVE",
"346 418 CURVE SMOOTH"
);
},
{
closed = 1;
nodes = (
"577 418 OFFCURVE",
"608 443 OFFCURVE",
"608 479 CURVE SMOOTH",
"608 510 OFFCURVE",
"584 534 OFFCURVE",
"553 534 CURVE SMOOTH",
"520 534 OFFCURVE",
"492 508 OFFCURVE",
"492 472 CURVE SMOOTH",
"492 441 OFFCURVE",
"514 418 OFFCURVE",
"545 418 CURVE SMOOTH"
);
}
);
width = 657;
},
{
layerId = "474759B3-6A21-45C1-BBBC-641F1925F03A";
paths = (
{
closed = 1;
nodes = (
"140 -48 OFFCURVE",
"256 -8 OFFCURVE",
"256 56 CURVE SMOOTH",
"256 75 OFFCURVE",
"244 93 OFFCURVE",
"200 114 CURVE SMOOTH",
"180 123 OFFCURVE",
"153 135 OFFCURVE",
"153 150 CURVE SMOOTH",
"153 182 OFFCURVE",
"203 220 OFFCURVE",
"249 249 CURVE",
"299 198 OFFCURVE",
"369 169 OFFCURVE",
"427 169 CURVE SMOOTH",
"501 169 OFFCURVE",
"574 218 OFFCURVE",
"574 295 CURVE SMOOTH",
"574 336 OFFCURVE",
"550 361 OFFCURVE",
"488 361 CURVE SMOOTH",
"366 361 OFFCURVE",
"130 227 OFFCURVE",
"130 146 CURVE SMOOTH",
"130 132 OFFCURVE",
"140 118 OFFCURVE",
"176 102 CURVE SMOOTH",
"214 85 OFFCURVE",
"234 73 OFFCURVE",
"234 53 CURVE SMOOTH",
"234 0 OFFCURVE",
"122 -25 OFFCURVE",
"65 -25 CURVE SMOOTH",
"42 -25 OFFCURVE",
"17 -21 OFFCURVE",
"3 -18 CURVE SMOOTH",
"-13 -15 OFFCURVE",
"-25 -8 OFFCURVE",
"-35 -8 CURVE SMOOTH",
"-44 -8 OFFCURVE",
"-49 -13 OFFCURVE",
"-49 -21 CURVE SMOOTH",
"-49 -28 OFFCURVE",
"-43 -35 OFFCURVE",
"-28 -39 CURVE SMOOTH",
"-10 -44 OFFCURVE",
"19 -48 OFFCURVE",
"59 -48 CURVE SMOOTH"
);
},
{
closed = 1;
nodes = (
"373 192 OFFCURVE",
"315 220 OFFCURVE",
"268 262 CURVE",
"352 311 OFFCURVE",
"442 338 OFFCURVE",
"486 338 CURVE SMOOTH",
"526 338 OFFCURVE",
"551 328 OFFCURVE",
"551 291 CURVE SMOOTH",
"551 238 OFFCURVE",
"490 192 OFFCURVE",
"427 192 CURVE SMOOTH"
);
},
{
closed = 1;
nodes = (
"478 533 OFFCURVE",
"490 541 OFFCURVE",
"490 552 CURVE SMOOTH",
"490 561 OFFCURVE",
"482 567 OFFCURVE",
"472 567 CURVE SMOOTH",
"455 567 OFFCURVE",
"445 558 OFFCURVE",
"445 549 CURVE SMOOTH",
"445 540 OFFCURVE",
"451 533 OFFCURVE",
"465 533 CURVE SMOOTH"
);
},
{
closed = 1;
nodes = (
"381 415 OFFCURVE",
"393 423 OFFCURVE",
"393 434 CURVE SMOOTH",
"393 443 OFFCURVE",
"385 449 OFFCURVE",
"375 449 CURVE SMOOTH",
"358 449 OFFCURVE",
"348 440 OFFCURVE",
"348 431 CURVE SMOOTH",
"348 422 OFFCURVE",
"354 415 OFFCURVE",
"368 415 CURVE SMOOTH"
);
},
{
closed = 1;
nodes = (
"550 415 OFFCURVE",
"562 423 OFFCURVE",
"562 434 CURVE SMOOTH",
"562 443 OFFCURVE",
"554 449 OFFCURVE",
"544 449 CURVE SMOOTH",
"527 449 OFFCURVE",
"517 440 OFFCURVE",
"517 431 CURVE SMOOTH",
"517 422 OFFCURVE",
"523 415 OFFCURVE",
"537 415 CURVE SMOOTH"
);
}
);
width = 618;
},
{
layerId = "C1B76EF4-5E0A-4C02-BFBB-E14F816E0475";
paths = (
{
closed = 1;
nodes = (
"220 -43 OFFCURVE",
"314 11 OFFCURVE",
"314 87 CURVE SMOOTH",
"314 111 OFFCURVE",
"301 125 OFFCURVE",
"285 144 CURVE SMOOTH",
"270 161 OFFCURVE",
"258 175 OFFCURVE",
"258 177 CURVE SMOOTH",
"258 184 OFFCURVE",
"262 188 OFFCURVE",
"266 191 CURVE",
"294 168 OFFCURVE",
"348 138 OFFCURVE",
"401 138 CURVE SMOOTH",
"498 138 OFFCURVE",
"604 205 OFFCURVE",
"604 308 CURVE SMOOTH",
"604 378 OFFCURVE",
"550 418 OFFCURVE",
"476 418 CURVE SMOOTH",
"365 418 OFFCURVE",
"125 290 OFFCURVE",
"125 168 CURVE SMOOTH",
"125 152 OFFCURVE",
"133 141 OFFCURVE",
"152 124 CURVE SMOOTH",
"161 116 OFFCURVE",
"166 108 OFFCURVE",
"166 102 CURVE SMOOTH",
"166 92 OFFCURVE",
"154 86 OFFCURVE",
"124 86 CURVE SMOOTH",
"110 86 OFFCURVE",
"89 91 OFFCURVE",
"78 93 CURVE SMOOTH",
"64 96 OFFCURVE",
"47 99 OFFCURVE",
"28 99 CURVE SMOOTH",
"-20 99 OFFCURVE",
"-36 73 OFFCURVE",
"-36 32 CURVE SMOOTH",
"-36 -2 OFFCURVE",
"-5 -26 OFFCURVE",
"41 -35 CURVE SMOOTH",
"68 -40 OFFCURVE",
"90 -43 OFFCURVE",
"112 -43 CURVE SMOOTH"
);
},
{
closed = 1;
nodes = (
"363 254 OFFCURVE",
"347 257 OFFCURVE",
"332 263 CURVE",
"353 276 OFFCURVE",
"406 309 OFFCURVE",
"442 309 CURVE SMOOTH",
"453 309 OFFCURVE",
"459 305 OFFCURVE",
"459 297 CURVE SMOOTH",
"459 274 OFFCURVE",
"425 254 OFFCURVE",
"374 254 CURVE SMOOTH"
);
},
{
closed = 1;
nodes = (
"489 605 OFFCURVE",
"532 636 OFFCURVE",
"534 682 CURVE SMOOTH",
"536 727 OFFCURVE",
"510 755 OFFCURVE",
"471 758 CURVE SMOOTH",
"429 761 OFFCURVE",
"391 729 OFFCURVE",
"387 683 CURVE SMOOTH",
"383 642 OFFCURVE",
"410 611 OFFCURVE",
"448 608 CURVE SMOOTH"
);
},
{
closed = 1;
nodes = (
"372 453 OFFCURVE",
"415 484 OFFCURVE",
"417 530 CURVE SMOOTH",
"419 575 OFFCURVE",
"395 604 OFFCURVE",
"354 606 CURVE SMOOTH",
"315 608 OFFCURVE",
"274 577 OFFCURVE",
"270 531 CURVE SMOOTH",
"267 491 OFFCURVE",
"293 459 OFFCURVE",
"333 456 CURVE SMOOTH"
);
},
{
closed = 1;
nodes = (
"581 453 OFFCURVE",
"624 484 OFFCURVE",
"626 530 CURVE SMOOTH",
"628 575 OFFCURVE",
"602 603 OFFCURVE",
"563 606 CURVE SMOOTH",
"521 609 OFFCURVE",
"483 577 OFFCURVE",
"479 531 CURVE SMOOTH",
"475 490 OFFCURVE",
"500 459 OFFCURVE",
"540 456 CURVE SMOOTH"
);
}
);
width = 668;
}
);
unicode = 0798;
category = Letter;
},
{
glyphname = uni0799;
lastChange = "2018-10-11 13:36:43 +0000";
layers = (
{
layerId = UUID0;
paths = (
{
closed = 1;
nodes = (
"93 -10 OFFCURVE",
"145 4 OFFCURVE",
"213 47 CURVE SMOOTH",
"320 114 OFFCURVE",
"439 215 OFFCURVE",
"482 283 CURVE SMOOTH",
"494 301 OFFCURVE",
"500 316 OFFCURVE",
"500 328 CURVE SMOOTH",
"500 343 OFFCURVE",
"494 361 OFFCURVE",
"469 361 CURVE SMOOTH",
"454 361 OFFCURVE",
"437 351 OFFCURVE",
"420 332 CURVE SMOOTH",
"359 264 OFFCURVE",
"330 236 OFFCURVE",
"165 142 CURVE SMOOTH",
"131 122 OFFCURVE",
"92 108 OFFCURVE",
"54 97 CURVE SMOOTH",
"29 90 OFFCURVE",
"15 64 OFFCURVE",
"15 40 CURVE SMOOTH",
"15 9 OFFCURVE",
"37 -10 OFFCURVE",
"75 -10 CURVE SMOOTH"
);
},
{
closed = 1;
nodes = (
"439 0 OFFCURVE",
"466 22 OFFCURVE",
"466 53 CURVE SMOOTH",
"466 80 OFFCURVE",
"445 101 OFFCURVE",
"418 101 CURVE SMOOTH",
"390 101 OFFCURVE",
"365 78 OFFCURVE",
"365 47 CURVE SMOOTH",
"365 20 OFFCURVE",
"384 0 OFFCURVE",
"412 0 CURVE SMOOTH"
);
}
);
width = 529;
},
{
layerId = "20DCAE03-7ADA-4AB6-8D13-19ECCD31BD40";
paths = (
{
closed = 1;
nodes = (
"167 -10 OFFCURVE",
"253 56 OFFCURVE",
"367 153 CURVE SMOOTH",
"439 215 OFFCURVE",
"476 255 OFFCURVE",
"495 282 CURVE SMOOTH",
"514 309 OFFCURVE",
"514 323 OFFCURVE",
"514 333 CURVE SMOOTH",
"514 359 OFFCURVE",
"499 376 OFFCURVE",
"468 376 CURVE SMOOTH",
"446 376 OFFCURVE",
"417 364 OFFCURVE",
"386 328 CURVE SMOOTH",
"361 298 OFFCURVE",
"305 251 OFFCURVE",
"272 228 CURVE SMOOTH",
"199 177 OFFCURVE",
"139 136 OFFCURVE",
"77 120 CURVE SMOOTH",
"36 109 OFFCURVE",
"15 86 OFFCURVE",
"15 50 CURVE SMOOTH",
"15 12 OFFCURVE",
"42 -10 OFFCURVE",
"90 -10 CURVE SMOOTH"
);
},
{
closed = 1;
nodes = (
"446 -15 OFFCURVE",
"481 13 OFFCURVE",
"481 54 CURVE SMOOTH",
"481 89 OFFCURVE",
"454 116 OFFCURVE",
"419 116 CURVE SMOOTH",
"382 116 OFFCURVE",
"350 86 OFFCURVE",
"350 46 CURVE SMOOTH",
"350 11 OFFCURVE",
"375 -15 OFFCURVE",
"411 -15 CURVE SMOOTH"
);
}
);
width = 543;
},
{
layerId = "474759B3-6A21-45C1-BBBC-641F1925F03A";
paths = (
{
closed = 1;
nodes = (
"67 -7 OFFCURVE",
"146 19 OFFCURVE",
"227 66 CURVE SMOOTH",
"324 122 OFFCURVE",
"448 231 OFFCURVE",
"497 294 CURVE SMOOTH",
"509 310 OFFCURVE",
"512 316 OFFCURVE",
"512 321 CURVE SMOOTH",
"512 326 OFFCURVE",
"509 328 OFFCURVE",
"505 328 CURVE SMOOTH",
"498 328 OFFCURVE",
"493 321 OFFCURVE",
"482 308 CURVE SMOOTH",
"377 190 OFFCURVE",
"273 121 OFFCURVE",
"212 87 CURVE SMOOTH",
"167 62 OFFCURVE",
"96 32 OFFCURVE",
"41 23 CURVE SMOOTH",
"31 21 OFFCURVE",
"26 16 OFFCURVE",
"26 8 CURVE SMOOTH",
"26 -2 OFFCURVE",
"34 -7 OFFCURVE",
"42 -7 CURVE SMOOTH"
);
},
{
closed = 1;
nodes = (
"427 0 OFFCURVE",
"439 8 OFFCURVE",
"439 19 CURVE SMOOTH",
"439 28 OFFCURVE",
"431 34 OFFCURVE",
"421 34 CURVE SMOOTH",
"404 34 OFFCURVE",
"394 25 OFFCURVE",
"394 16 CURVE SMOOTH",
"394 7 OFFCURVE",
"400 0 OFFCURVE",
"414 0 CURVE SMOOTH"
);
}
);
width = 529;
},
{
layerId = "C1B76EF4-5E0A-4C02-BFBB-E14F816E0475";
paths = (
{
closed = 1;
nodes = (
"196 -11 OFFCURVE",
"284 67 OFFCURVE",
"407 178 CURVE SMOOTH",
"478 242 OFFCURVE",
"495 262 OFFCURVE",
"509 286 CURVE SMOOTH",
"521 306 OFFCURVE",
"525 323 OFFCURVE",
"525 336 CURVE SMOOTH",
"525 368 OFFCURVE",
"506 390 OFFCURVE",
"467 390 CURVE SMOOTH",
"441 390 OFFCURVE",
"420 378 OFFCURVE",
"392 355 CURVE SMOOTH",
"361 330 OFFCURVE",
"307 283 OFFCURVE",
"263 249 CURVE SMOOTH",
"217 214 OFFCURVE",
"151 165 OFFCURVE",
"87 148 CURVE SMOOTH",
"37 135 OFFCURVE",
"12 106 OFFCURVE",
"12 62 CURVE SMOOTH",
"12 16 OFFCURVE",
"44 -11 OFFCURVE",
"93 -11 CURVE SMOOTH"
);
},
{
closed = 1;
nodes = (
"462 -49 OFFCURVE",
"503 -16 OFFCURVE",
"503 34 CURVE SMOOTH",
"503 76 OFFCURVE",
"471 109 OFFCURVE",
"428 109 CURVE SMOOTH",
"386 109 OFFCURVE",
"347 73 OFFCURVE",
"347 25 CURVE SMOOTH",
"347 -18 OFFCURVE",
"378 -49 OFFCURVE",
"420 -49 CURVE SMOOTH"
);
}
);
width = 547;
}
);
widthMetricsKey = uni0780;
unicode = 0799;
category = Letter;
},
{
glyphname = uni079A;
lastChange = "2018-10-11 13:36:43 +0000";
layers = (
{
layerId = UUID0;
paths = (
{
closed = 1;
nodes = (
"93 -10 OFFCURVE",
"145 4 OFFCURVE",
"213 47 CURVE SMOOTH",
"320 114 OFFCURVE",
"439 215 OFFCURVE",
"482 283 CURVE SMOOTH",
"494 301 OFFCURVE",
"500 316 OFFCURVE",
"500 328 CURVE SMOOTH",
"500 343 OFFCURVE",
"494 361 OFFCURVE",
"469 361 CURVE SMOOTH",
"454 361 OFFCURVE",
"437 351 OFFCURVE",
"420 332 CURVE SMOOTH",
"359 264 OFFCURVE",
"330 236 OFFCURVE",
"165 142 CURVE SMOOTH",
"131 122 OFFCURVE",
"92 108 OFFCURVE",
"54 97 CURVE SMOOTH",
"29 90 OFFCURVE",
"15 64 OFFCURVE",
"15 40 CURVE SMOOTH",
"15 9 OFFCURVE",
"37 -10 OFFCURVE",
"75 -10 CURVE SMOOTH"
);
},
{
closed = 1;
nodes = (
"438 421 OFFCURVE",
"465 443 OFFCURVE",
"465 473 CURVE SMOOTH",
"465 500 OFFCURVE",
"444 522 OFFCURVE",
"417 522 CURVE SMOOTH",
"389 522 OFFCURVE",
"364 499 OFFCURVE",
"364 468 CURVE SMOOTH",
"364 441 OFFCURVE",
"383 421 OFFCURVE",
"411 421 CURVE SMOOTH"
);
}
);
width = 529;
},
{
layerId = "20DCAE03-7ADA-4AB6-8D13-19ECCD31BD40";
paths = (
{
closed = 1;
nodes = (
"167 -10 OFFCURVE",
"253 56 OFFCURVE",
"367 153 CURVE SMOOTH",
"439 215 OFFCURVE",
"476 255 OFFCURVE",
"495 282 CURVE SMOOTH",
"514 309 OFFCURVE",
"514 323 OFFCURVE",
"514 333 CURVE SMOOTH",
"514 359 OFFCURVE",
"499 376 OFFCURVE",
"468 376 CURVE SMOOTH",
"446 376 OFFCURVE",
"417 364 OFFCURVE",
"386 328 CURVE SMOOTH",
"361 298 OFFCURVE",
"305 251 OFFCURVE",
"272 228 CURVE SMOOTH",
"199 177 OFFCURVE",
"139 136 OFFCURVE",
"77 120 CURVE SMOOTH",
"36 109 OFFCURVE",
"15 86 OFFCURVE",
"15 50 CURVE SMOOTH",
"15 12 OFFCURVE",
"42 -10 OFFCURVE",
"90 -10 CURVE SMOOTH"
);
},
{
closed = 1;
nodes = (
"445 417 OFFCURVE",
"480 445 OFFCURVE",
"480 484 CURVE SMOOTH",
"480 520 OFFCURVE",
"453 548 OFFCURVE",
"418 548 CURVE SMOOTH",
"381 548 OFFCURVE",
"349 518 OFFCURVE",
"349 478 CURVE SMOOTH",
"349 443 OFFCURVE",
"374 417 OFFCURVE",
"410 417 CURVE SMOOTH"
);
}
);
width = 543;
},
{
layerId = "474759B3-6A21-45C1-BBBC-641F1925F03A";
paths = (
{
closed = 1;
nodes = (
"67 -7 OFFCURVE",
"146 19 OFFCURVE",
"227 66 CURVE SMOOTH",
"324 122 OFFCURVE",
"448 231 OFFCURVE",
"497 294 CURVE SMOOTH",
"509 310 OFFCURVE",
"512 316 OFFCURVE",
"512 321 CURVE SMOOTH",
"512 326 OFFCURVE",
"509 328 OFFCURVE",
"505 328 CURVE SMOOTH",
"498 328 OFFCURVE",
"493 321 OFFCURVE",
"482 308 CURVE SMOOTH",
"377 190 OFFCURVE",
"273 121 OFFCURVE",
"212 87 CURVE SMOOTH",
"167 62 OFFCURVE",
"96 32 OFFCURVE",
"41 23 CURVE SMOOTH",
"31 21 OFFCURVE",
"26 16 OFFCURVE",
"26 8 CURVE SMOOTH",
"26 -2 OFFCURVE",
"34 -7 OFFCURVE",
"42 -7 CURVE SMOOTH"
);
},
{
closed = 1;
nodes = (
"432 469 OFFCURVE",
"444 477 OFFCURVE",
"444 488 CURVE SMOOTH",
"444 497 OFFCURVE",
"436 503 OFFCURVE",
"426 503 CURVE SMOOTH",
"409 503 OFFCURVE",
"399 494 OFFCURVE",
"399 485 CURVE SMOOTH",
"399 476 OFFCURVE",
"405 469 OFFCURVE",
"419 469 CURVE SMOOTH"
);
}
);
width = 529;
},
{
layerId = "C1B76EF4-5E0A-4C02-BFBB-E14F816E0475";
paths = (
{
closed = 1;
nodes = (
"196 -11 OFFCURVE",
"284 67 OFFCURVE",
"407 178 CURVE SMOOTH",
"478 242 OFFCURVE",
"495 262 OFFCURVE",
"509 286 CURVE SMOOTH",
"521 306 OFFCURVE",
"525 323 OFFCURVE",
"525 336 CURVE SMOOTH",
"525 368 OFFCURVE",
"506 390 OFFCURVE",
"467 390 CURVE SMOOTH",
"441 390 OFFCURVE",
"420 378 OFFCURVE",
"392 355 CURVE SMOOTH",
"361 330 OFFCURVE",
"307 283 OFFCURVE",
"263 249 CURVE SMOOTH",
"217 214 OFFCURVE",
"151 165 OFFCURVE",
"87 148 CURVE SMOOTH",
"37 135 OFFCURVE",
"12 106 OFFCURVE",
"12 62 CURVE SMOOTH",
"12 16 OFFCURVE",
"44 -11 OFFCURVE",
"93 -11 CURVE SMOOTH"
);
},
{
closed = 1;
nodes = (
"449 429 OFFCURVE",
"490 463 OFFCURVE",
"490 510 CURVE SMOOTH",
"490 553 OFFCURVE",
"458 588 OFFCURVE",
"416 588 CURVE SMOOTH",
"373 588 OFFCURVE",
"335 552 OFFCURVE",
"335 503 CURVE SMOOTH",
"335 460 OFFCURVE",
"365 429 OFFCURVE",
"407 429 CURVE SMOOTH"
);
}
);
width = 547;
}
);
widthMetricsKey = uni0780;
unicode = 079A;
category = Letter;
},
{
glyphname = uni079B;
lastChange = "2018-10-11 13:36:43 +0000";
layers = (
{
layerId = UUID0;
paths = (
{
closed = 1;
nodes = (
"17 -78 OFFCURVE",
"76 -60 OFFCURVE",
"147 -10 CURVE SMOOTH",
"205 31 OFFCURVE",
"257 80 OFFCURVE",
"318 152 CURVE",
"338 149 OFFCURVE",
"355 148 OFFCURVE",
"369 148 CURVE SMOOTH",
"474 148 OFFCURVE",
"581 203 OFFCURVE",
"581 308 CURVE SMOOTH",
"581 350 OFFCURVE",
"554 381 OFFCURVE",
"539 386 CURVE",
"575 399 OFFCURVE",
"604 412 OFFCURVE",
"604 439 CURVE SMOOTH",
"604 461 OFFCURVE",
"588 479 OFFCURVE",
"564 479 CURVE SMOOTH",
"542 479 OFFCURVE",
"528 460 OFFCURVE",
"503 450 CURVE SMOOTH",
"465 435 OFFCURVE",
"410 435 OFFCURVE",
"410 391 CURVE SMOOTH",
"410 372 OFFCURVE",
"424 364 OFFCURVE",
"437 358 CURVE SMOOTH",
"458 348 OFFCURVE",
"483 341 OFFCURVE",
"483 306 CURVE SMOOTH",
"483 261 OFFCURVE",
"436 238 OFFCURVE",
"395 238 CURVE SMOOTH",
"376 238 OFFCURVE",
"359 240 OFFCURVE",
"346 245 CURVE",
"339 268 OFFCURVE",
"316 298 OFFCURVE",
"278 298 CURVE SMOOTH",
"243 298 OFFCURVE",
"215 271 OFFCURVE",
"215 235 CURVE SMOOTH",
"215 217 OFFCURVE",
"223 198 OFFCURVE",
"235 187 CURVE",
"193 144 OFFCURVE",
"165 119 OFFCURVE",
"104 80 CURVE SMOOTH",
"68 57 OFFCURVE",
"20 43 OFFCURVE",
"-18 31 CURVE SMOOTH",
"-45 22 OFFCURVE",
"-59 4 OFFCURVE",
"-59 -21 CURVE SMOOTH",
"-59 -57 OFFCURVE",
"-39 -78 OFFCURVE",
"-1 -78 CURVE SMOOTH"
);
},
{
closed = 1;
nodes = (
"518 524 OFFCURVE",
"545 546 OFFCURVE",
"545 576 CURVE SMOOTH",
"545 603 OFFCURVE",
"524 625 OFFCURVE",
"497 625 CURVE SMOOTH",
"469 625 OFFCURVE",
"444 602 OFFCURVE",
"444 571 CURVE SMOOTH",
"444 544 OFFCURVE",
"463 524 OFFCURVE",
"491 524 CURVE SMOOTH"
);
}
);
width = 634;
},
{
layerId = "20DCAE03-7ADA-4AB6-8D13-19ECCD31BD40";
paths = (
{
closed = 1;
nodes = (
"41 -78 OFFCURVE",
"79 -68 OFFCURVE",
"138 -25 CURVE SMOOTH",
"234 45 OFFCURVE",
"247 56 OFFCURVE",
"313 135 CURVE",
"329 132 OFFCURVE",
"345 132 OFFCURVE",
"357 132 CURVE SMOOTH",
"492 132 OFFCURVE",
"589 208 OFFCURVE",
"589 307 CURVE SMOOTH",
"589 336 OFFCURVE",
"571 371 OFFCURVE",
"546 384 CURVE",
"570 394 OFFCURVE",
"604 409 OFFCURVE",
"604 440 CURVE SMOOTH",
"604 468 OFFCURVE",
"585 488 OFFCURVE",
"557 488 CURVE SMOOTH",
"537 488 OFFCURVE",
"517 480 OFFCURVE",
"492 464 CURVE SMOOTH",
"458 443 OFFCURVE",
"390 446 OFFCURVE",
"390 392 CURVE SMOOTH",
"390 372 OFFCURVE",
"406 355 OFFCURVE",
"439 345 CURVE SMOOTH",
"455 340 OFFCURVE",
"465 325 OFFCURVE",
"465 305 CURVE SMOOTH",
"465 256 OFFCURVE",
"428 242 OFFCURVE",
"383 242 CURVE SMOOTH",
"370 242 OFFCURVE",
"357 243 OFFCURVE",
"346 246 CURVE",
"335 279 OFFCURVE",
"308 302 OFFCURVE",
"276 302 CURVE SMOOTH",
"229 302 OFFCURVE",
"193 274 OFFCURVE",
"193 223 CURVE SMOOTH",
"193 207 OFFCURVE",
"199 193 OFFCURVE",
"211 180 CURVE",
"168 136 OFFCURVE",
"133 110 OFFCURVE",
"98 91 CURVE SMOOTH",
"68 75 OFFCURVE",
"39 63 OFFCURVE",
"6 53 CURVE SMOOTH",
"-35 40 OFFCURVE",
"-59 20 OFFCURVE",
"-59 -12 CURVE SMOOTH",
"-59 -54 OFFCURVE",
"-34 -78 OFFCURVE",
"14 -78 CURVE SMOOTH"
);
},
{
closed = 1;
nodes = (
"527 529 OFFCURVE",
"562 557 OFFCURVE",
"562 596 CURVE SMOOTH",
"562 632 OFFCURVE",
"535 660 OFFCURVE",
"500 660 CURVE SMOOTH",
"463 660 OFFCURVE",
"431 630 OFFCURVE",
"431 590 CURVE SMOOTH",
"431 555 OFFCURVE",
"456 529 OFFCURVE",
"492 529 CURVE SMOOTH"
);
}
);
width = 633;
},
{
layerId = "474759B3-6A21-45C1-BBBC-641F1925F03A";
paths = (
{
closed = 1;
nodes = (
"-1 -80 OFFCURVE",
"114 -26 OFFCURVE",
"153 0 CURVE SMOOTH",
"192 26 OFFCURVE",
"282 92 OFFCURVE",
"335 176 CURVE",
"346 172 OFFCURVE",
"359 170 OFFCURVE",
"392 170 CURVE SMOOTH",
"487 170 OFFCURVE",
"583 243 OFFCURVE",
"583 313 CURVE SMOOTH",
"583 348 OFFCURVE",
"566 373 OFFCURVE",
"515 393 CURVE",
"560 403 OFFCURVE",
"615 430 OFFCURVE",
"615 441 CURVE SMOOTH",
"615 449 OFFCURVE",
"613 452 OFFCURVE",
"603 452 CURVE SMOOTH",
"596 452 OFFCURVE",
"577 432 OFFCURVE",
"542 421 CURVE SMOOTH",
"511 411 OFFCURVE",
"480 403 OFFCURVE",
"480 394 CURVE SMOOTH",
"480 388 OFFCURVE",
"483 386 OFFCURVE",
"494 381 CURVE SMOOTH",
"536 364 OFFCURVE",
"561 347 OFFCURVE",
"561 310 CURVE SMOOTH",
"561 253 OFFCURVE",
"474 190 OFFCURVE",
"394 190 CURVE SMOOTH",
"377 190 OFFCURVE",
"361 192 OFFCURVE",
"354 193 CURVE",
"347 206 OFFCURVE",
"328 220 OFFCURVE",
"314 220 CURVE SMOOTH",
"303 220 OFFCURVE",
"295 212 OFFCURVE",
"295 202 CURVE SMOOTH",
"295 194 OFFCURVE",
"302 187 OFFCURVE",
"313 182 CURVE",
"262 99 OFFCURVE",
"162 34 OFFCURVE",
"135 17 CURVE SMOOTH",
"100 -5 OFFCURVE",
"24 -35 OFFCURVE",
"-31 -47 CURVE SMOOTH",
"-47 -51 OFFCURVE",
"-54 -56 OFFCURVE",
"-54 -66 CURVE SMOOTH",
"-54 -72 OFFCURVE",
"-50 -80 OFFCURVE",
"-39 -80 CURVE SMOOTH"
);
},
{
closed = 1;
nodes = (
"512 478 OFFCURVE",
"524 486 OFFCURVE",
"524 497 CURVE SMOOTH",
"524 506 OFFCURVE",
"516 512 OFFCURVE",
"506 512 CURVE SMOOTH",
"489 512 OFFCURVE",
"479 503 OFFCURVE",
"479 494 CURVE SMOOTH",
"479 485 OFFCURVE",
"485 478 OFFCURVE",
"499 478 CURVE SMOOTH"
);
}
);
width = 634;
},
{
layerId = "C1B76EF4-5E0A-4C02-BFBB-E14F816E0475";
paths = (
{
closed = 1;
nodes = (
"54 -77 OFFCURVE",
"75 -73 OFFCURVE",
"134 -32 CURVE SMOOTH",
"193 9 OFFCURVE",
"237 46 OFFCURVE",
"307 123 CURVE",
"324 121 OFFCURVE",
"341 121 OFFCURVE",
"347 121 CURVE SMOOTH",
"493 121 OFFCURVE",
"591 198 OFFCURVE",
"591 305 CURVE SMOOTH",
"591 333 OFFCURVE",
"572 370 OFFCURVE",
"555 381 CURVE",
"567 386 OFFCURVE",
"607 403 OFFCURVE",
"607 440 CURVE SMOOTH",
"607 473 OFFCURVE",
"577 498 OFFCURVE",
"544 498 CURVE SMOOTH",
"520 498 OFFCURVE",
"503 484 OFFCURVE",
"468 472 CURVE SMOOTH",
"428 458 OFFCURVE",
"364 447 OFFCURVE",
"364 391 CURVE SMOOTH",
"364 367 OFFCURVE",
"384 345 OFFCURVE",
"414 335 CURVE SMOOTH",
"432 329 OFFCURVE",
"438 319 OFFCURVE",
"438 304 CURVE SMOOTH",
"438 277 OFFCURVE",
"419 257 OFFCURVE",
"380 257 CURVE SMOOTH",
"368 257 OFFCURVE",
"356 258 OFFCURVE",
"344 261 CURVE",
"332 300 OFFCURVE",
"302 325 OFFCURVE",
"259 325 CURVE SMOOTH",
"208 325 OFFCURVE",
"164 292 OFFCURVE",
"164 229 CURVE SMOOTH",
"164 211 OFFCURVE",
"170 195 OFFCURVE",
"182 179 CURVE",
"141 146 OFFCURVE",
"114 125 OFFCURVE",
"87 112 CURVE SMOOTH",
"67 102 OFFCURVE",
"49 93 OFFCURVE",
"17 82 CURVE SMOOTH",
"-33 65 OFFCURVE",
"-60 42 OFFCURVE",
"-60 3 CURVE SMOOTH",
"-60 -49 OFFCURVE",
"-29 -77 OFFCURVE",
"24 -77 CURVE SMOOTH"
);
},
{
closed = 1;
nodes = (
"529 549 OFFCURVE",
"570 583 OFFCURVE",
"570 630 CURVE SMOOTH",
"570 673 OFFCURVE",
"538 708 OFFCURVE",
"496 708 CURVE SMOOTH",
"453 708 OFFCURVE",
"415 672 OFFCURVE",
"415 623 CURVE SMOOTH",
"415 580 OFFCURVE",
"445 549 OFFCURVE",
"487 549 CURVE SMOOTH"
);
}
);
width = 633;
}
);
unicode = 079B;
category = Letter;
},
{
glyphname = uni079C;
lastChange = "2018-10-11 13:36:43 +0000";
layers = (
{
layerId = UUID0;
paths = (
{
closed = 1;
nodes = (
"25 -78 OFFCURVE",
"86 -56 OFFCURVE",
"150 -19 CURVE SMOOTH",
"231 28 OFFCURVE",
"308 109 OFFCURVE",
"389 178 CURVE",
"434 163 OFFCURVE",
"483 154 OFFCURVE",
"524 154 CURVE SMOOTH",
"568 154 OFFCURVE",
"604 166 OFFCURVE",
"604 193 CURVE SMOOTH",
"604 223 OFFCURVE",
"582 238 OFFCURVE",
"544 238 CURVE SMOOTH",
"517 238 OFFCURVE",
"495 242 OFFCURVE",
"477 248 CURVE",
"528 289 OFFCURVE",
"544 303 OFFCURVE",
"576 320 CURVE SMOOTH",
"606 336 OFFCURVE",
"634 355 OFFCURVE",
"634 372 CURVE SMOOTH",
"634 401 OFFCURVE",
"609 405 OFFCURVE",
"595 405 CURVE SMOOTH",
"548 405 OFFCURVE",
"480 368 OFFCURVE",
"401 303 CURVE",
"382 324 OFFCURVE",
"360 340 OFFCURVE",
"323 340 CURVE SMOOTH",
"279 340 OFFCURVE",
"265 307 OFFCURVE",
"265 284 CURVE SMOOTH",
"265 259 OFFCURVE",
"281 237 OFFCURVE",
"307 218 CURVE",
"243 159 OFFCURVE",
"176 108 OFFCURVE",
"93 70 CURVE SMOOTH",
"61 55 OFFCURVE",
"25 42 OFFCURVE",
"-13 32 CURVE SMOOTH",
"-42 24 OFFCURVE",
"-59 8 OFFCURVE",
"-59 -21 CURVE SMOOTH",
"-59 -55 OFFCURVE",
"-38 -78 OFFCURVE",
"3 -78 CURVE SMOOTH"
);
},
{
closed = 1;
nodes = (
"534 430 OFFCURVE",
"561 452 OFFCURVE",
"561 482 CURVE SMOOTH",
"561 509 OFFCURVE",
"540 531 OFFCURVE",
"513 531 CURVE SMOOTH",
"485 531 OFFCURVE",
"460 508 OFFCURVE",
"460 477 CURVE SMOOTH",
"460 450 OFFCURVE",
"479 430 OFFCURVE",
"507 430 CURVE SMOOTH"
);
}
);
width = 649;
},
{
layerId = "20DCAE03-7ADA-4AB6-8D13-19ECCD31BD40";
paths = (
{
closed = 1;
nodes = (
"49 -78 OFFCURVE",
"113 -51 OFFCURVE",
"188 2 CURVE SMOOTH",
"256 50 OFFCURVE",
"312 101 OFFCURVE",
"388 171 CURVE",
"433 157 OFFCURVE",
"480 149 OFFCURVE",
"522 149 CURVE SMOOTH",
"582 149 OFFCURVE",
"617 168 OFFCURVE",
"617 198 CURVE SMOOTH",
"617 234 OFFCURVE",
"582 248 OFFCURVE",
"536 248 CURVE SMOOTH",
"519 248 OFFCURVE",
"502 249 OFFCURVE",
"490 252 CURVE",
"523 279 OFFCURVE",
"559 302 OFFCURVE",
"589 325 CURVE SMOOTH",
"616 346 OFFCURVE",
"637 363 OFFCURVE",
"637 377 CURVE SMOOTH",
"637 403 OFFCURVE",
"620 420 OFFCURVE",
"583 420 CURVE SMOOTH",
"533 420 OFFCURVE",
"468 377 OFFCURVE",
"390 314 CURVE",
"373 328 OFFCURVE",
"340 349 OFFCURVE",
"311 349 CURVE SMOOTH",
"264 349 OFFCURVE",
"246 324 OFFCURVE",
"246 290 CURVE SMOOTH",
"246 265 OFFCURVE",
"259 243 OFFCURVE",
"284 223 CURVE",
"201 148 OFFCURVE",
"140 107 OFFCURVE",
"90 83 CURVE SMOOTH",
"58 68 OFFCURVE",
"30 59 OFFCURVE",
"5 53 CURVE SMOOTH",
"-37 43 OFFCURVE",
"-59 21 OFFCURVE",
"-59 -12 CURVE SMOOTH",
"-59 -52 OFFCURVE",
"-33 -78 OFFCURVE",
"18 -78 CURVE SMOOTH"
);
},
{
closed = 1;
nodes = (
"541 425 OFFCURVE",
"576 453 OFFCURVE",
"576 492 CURVE SMOOTH",
"576 528 OFFCURVE",
"549 556 OFFCURVE",
"514 556 CURVE SMOOTH",
"477 556 OFFCURVE",
"445 526 OFFCURVE",
"445 486 CURVE SMOOTH",
"445 451 OFFCURVE",
"470 425 OFFCURVE",
"506 425 CURVE SMOOTH"
);
}
);
width = 652;
},
{
layerId = "474759B3-6A21-45C1-BBBC-641F1925F03A";
paths = (
{
closed = 1;
nodes = (
"-12 -72 OFFCURVE",
"67 -47 OFFCURVE",
"148 1 CURVE SMOOTH",
"217 42 OFFCURVE",
"320 131 OFFCURVE",
"409 220 CURVE",
"457 198 OFFCURVE",
"521 180 OFFCURVE",
"577 180 CURVE SMOOTH",
"588 180 OFFCURVE",
"594 185 OFFCURVE",
"594 192 CURVE SMOOTH",
"594 200 OFFCURVE",
"584 202 OFFCURVE",
"551 205 CURVE SMOOTH",
"511 209 OFFCURVE",
"460 224 OFFCURVE",
"428 236 CURVE",
"477 282 OFFCURVE",
"550 334 OFFCURVE",
"608 358 CURVE SMOOTH",
"618 362 OFFCURVE",
"625 365 OFFCURVE",
"625 372 CURVE SMOOTH",
"625 374 OFFCURVE",
"623 376 OFFCURVE",
"617 376 CURVE SMOOTH",
"592 376 OFFCURVE",
"496 331 OFFCURVE",
"407 246 CURVE",
"346 276 OFFCURVE",
"336 287 OFFCURVE",
"328 287 CURVE SMOOTH",
"321 287 OFFCURVE",
"317 282 OFFCURVE",
"317 276 CURVE SMOOTH",
"317 271 OFFCURVE",
"332 260 OFFCURVE",
"390 230 CURVE",
"314 159 OFFCURVE",
"237 82 OFFCURVE",
"133 22 CURVE SMOOTH",
"60 -20 OFFCURVE",
"17 -31 OFFCURVE",
"-38 -42 CURVE SMOOTH",
"-48 -44 OFFCURVE",
"-53 -49 OFFCURVE",
"-53 -57 CURVE SMOOTH",
"-53 -67 OFFCURVE",
"-45 -72 OFFCURVE",
"-37 -72 CURVE SMOOTH"
);
},
{
closed = 1;
nodes = (
"528 478 OFFCURVE",
"540 486 OFFCURVE",
"540 497 CURVE SMOOTH",
"540 506 OFFCURVE",
"532 512 OFFCURVE",
"522 512 CURVE SMOOTH",
"505 512 OFFCURVE",
"495 503 OFFCURVE",
"495 494 CURVE SMOOTH",
"495 485 OFFCURVE",
"501 478 OFFCURVE",
"515 478 CURVE SMOOTH"
);
}
);
width = 649;
},
{
layerId = "C1B76EF4-5E0A-4C02-BFBB-E14F816E0475";
paths = (
{
closed = 1;
nodes = (
"66 -80 OFFCURVE",
"126 -52 OFFCURVE",
"199 2 CURVE SMOOTH",
"266 52 OFFCURVE",
"302 88 OFFCURVE",
"382 157 CURVE",
"426 145 OFFCURVE",
"468 140 OFFCURVE",
"506 140 CURVE SMOOTH",
"580 140 OFFCURVE",
"624 163 OFFCURVE",
"624 200 CURVE SMOOTH",
"624 244 OFFCURVE",
"584 255 OFFCURVE",
"532 260 CURVE SMOOTH",
"524 261 OFFCURVE",
"519 262 OFFCURVE",
"515 263 CURVE",
"539 282 OFFCURVE",
"561 299 OFFCURVE",
"584 316 CURVE SMOOTH",
"617 341 OFFCURVE",
"640 362 OFFCURVE",
"640 385 CURVE SMOOTH",
"640 411 OFFCURVE",
"619 433 OFFCURVE",
"573 433 CURVE SMOOTH",
"516 433 OFFCURVE",
"460 390 OFFCURVE",
"385 333 CURVE",
"381 343 OFFCURVE",
"341 367 OFFCURVE",
"306 367 CURVE SMOOTH",
"256 367 OFFCURVE",
"226 337 OFFCURVE",
"226 294 CURVE SMOOTH",
"226 263 OFFCURVE",
"238 238 OFFCURVE",
"254 221 CURVE",
"169 145 OFFCURVE",
"112 113 OFFCURVE",
"78 100 CURVE SMOOTH",
"57 92 OFFCURVE",
"34 84 OFFCURVE",
"17 80 CURVE SMOOTH",
"-34 68 OFFCURVE",
"-61 41 OFFCURVE",
"-61 1 CURVE SMOOTH",
"-61 -48 OFFCURVE",
"-30 -80 OFFCURVE",
"24 -80 CURVE SMOOTH"
);
},
{
closed = 1;
nodes = (
"545 468 OFFCURVE",
"586 502 OFFCURVE",
"586 549 CURVE SMOOTH",
"586 592 OFFCURVE",
"554 627 OFFCURVE",
"512 627 CURVE SMOOTH",
"469 627 OFFCURVE",
"431 591 OFFCURVE",
"431 542 CURVE SMOOTH",
"431 499 OFFCURVE",
"461 468 OFFCURVE",
"503 468 CURVE SMOOTH"
);
}
);
width = 653;
}
);
unicode = 079C;
category = Letter;
},
{
glyphname = uni079D;
lastChange = "2018-10-11 13:36:43 +0000";
layers = (
{
layerId = UUID0;
paths = (
{
closed = 1;
nodes = (
"92 46 OFFCURVE",
"112 54 OFFCURVE",
"133 66 CURVE SMOOTH",
"178 92 OFFCURVE",
"229 139 OFFCURVE",
"249 185 CURVE",
"318 175 OFFCURVE",
"405 166 OFFCURVE",
"538 166 CURVE SMOOTH",
"688 166 OFFCURVE",
"830 173 OFFCURVE",
"919 235 CURVE SMOOTH",
"944 252 OFFCURVE",
"964 273 OFFCURVE",
"980 300 CURVE SMOOTH",
"992 321 OFFCURVE",
"1000 340 OFFCURVE",
"1000 365 CURVE SMOOTH",
"1000 390 OFFCURVE",
"990 405 OFFCURVE",
"964 405 CURVE SMOOTH",
"938 405 OFFCURVE",
"928 392 OFFCURVE",
"914 363 CURVE SMOOTH",
"898 331 OFFCURVE",
"871 302 OFFCURVE",
"836 286 CURVE SMOOTH",
"793 266 OFFCURVE",
"662 254 OFFCURVE",
"533 254 CURVE SMOOTH",
"425 254 OFFCURVE",
"339 260 OFFCURVE",
"265 271 CURVE",
"261 326 OFFCURVE",
"226 363 OFFCURVE",
"175 363 CURVE SMOOTH",
"131 363 OFFCURVE",
"97 321 OFFCURVE",
"97 284 CURVE SMOOTH",
"97 245 OFFCURVE",
"122 226 OFFCURVE",
"157 207 CURVE",
"149 175 OFFCURVE",
"105 147 OFFCURVE",
"74 135 CURVE SMOOTH",
"42 123 OFFCURVE",
"24 114 OFFCURVE",
"24 89 CURVE SMOOTH",
"24 63 OFFCURVE",
"44 46 OFFCURVE",
"75 46 CURVE SMOOTH"
);
},
{
closed = 1;
nodes = (
"602 468 OFFCURVE",
"629 490 OFFCURVE",
"629 521 CURVE SMOOTH",
"629 548 OFFCURVE",
"609 569 OFFCURVE",
"581 569 CURVE SMOOTH",
"553 569 OFFCURVE",
"528 546 OFFCURVE",
"528 515 CURVE SMOOTH",
"528 488 OFFCURVE",
"548 468 OFFCURVE",
"575 468 CURVE SMOOTH"
);
},
{
closed = 1;
nodes = (
"496 342 OFFCURVE",
"523 364 OFFCURVE",
"523 395 CURVE SMOOTH",
"523 422 OFFCURVE",
"503 443 OFFCURVE",
"475 443 CURVE SMOOTH",
"448 443 OFFCURVE",
"422 420 OFFCURVE",
"422 389 CURVE SMOOTH",
"422 362 OFFCURVE",
"442 342 OFFCURVE",
"469 342 CURVE SMOOTH"
);
},
{
closed = 1;
nodes = (
"687 342 OFFCURVE",
"714 364 OFFCURVE",
"714 395 CURVE SMOOTH",
"714 422 OFFCURVE",
"693 443 OFFCURVE",
"666 443 CURVE SMOOTH",
"638 443 OFFCURVE",
"613 420 OFFCURVE",
"613 389 CURVE SMOOTH",
"613 362 OFFCURVE",
"632 342 OFFCURVE",
"659 342 CURVE SMOOTH"
);
}
);
width = 1019;
},
{
layerId = "20DCAE03-7ADA-4AB6-8D13-19ECCD31BD40";
paths = (
{
closed = 1;
nodes = (
"124 37 OFFCURVE",
"151 49 OFFCURVE",
"191 84 CURVE SMOOTH",
"231 119 OFFCURVE",
"249 143 OFFCURVE",
"265 177 CURVE",
"404 162 OFFCURVE",
"460 158 OFFCURVE",
"566 158 CURVE SMOOTH",
"695 158 OFFCURVE",
"819 166 OFFCURVE",
"909 229 CURVE SMOOTH",
"940 251 OFFCURVE",
"964 277 OFFCURVE",
"980 305 CURVE SMOOTH",
"992 327 OFFCURVE",
"999 349 OFFCURVE",
"999 369 CURVE SMOOTH",
"999 399 OFFCURVE",
"986 420 OFFCURVE",
"949 420 CURVE SMOOTH",
"920 420 OFFCURVE",
"902 403 OFFCURVE",
"887 375 CURVE SMOOTH",
"876 354 OFFCURVE",
"858 322 OFFCURVE",
"827 303 CURVE SMOOTH",
"795 283 OFFCURVE",
"726 266 OFFCURVE",
"546 266 CURVE SMOOTH",
"444 266 OFFCURVE",
"358 269 OFFCURVE",
"285 279 CURVE",
"285 326 OFFCURVE",
"254 376 OFFCURVE",
"196 376 CURVE SMOOTH",
"143 376 OFFCURVE",
"103 328 OFFCURVE",
"103 288 CURVE SMOOTH",
"103 257 OFFCURVE",
"111 234 OFFCURVE",
"162 206 CURVE",
"148 176 OFFCURVE",
"111 152 OFFCURVE",
"76 140 CURVE SMOOTH",
"45 129 OFFCURVE",
"29 112 OFFCURVE",
"29 90 CURVE SMOOTH",
"29 58 OFFCURVE",
"54 37 OFFCURVE",
"95 37 CURVE SMOOTH"
);
},
{
closed = 1;
nodes = (
"607 470 OFFCURVE",
"638 495 OFFCURVE",
"638 531 CURVE SMOOTH",
"638 562 OFFCURVE",
"615 586 OFFCURVE",
"583 586 CURVE SMOOTH",
"551 586 OFFCURVE",
"522 560 OFFCURVE",
"522 524 CURVE SMOOTH",
"522 493 OFFCURVE",
"545 470 OFFCURVE",
"576 470 CURVE SMOOTH"
);
},
{
closed = 1;
nodes = (
"495 325 OFFCURVE",
"526 350 OFFCURVE",
"526 386 CURVE SMOOTH",
"526 417 OFFCURVE",
"503 441 OFFCURVE",
"471 441 CURVE SMOOTH",
"440 441 OFFCURVE",
"410 415 OFFCURVE",
"410 379 CURVE SMOOTH",
"410 348 OFFCURVE",
"433 325 OFFCURVE",
"464 325 CURVE SMOOTH"
);
},
{
closed = 1;
nodes = (
"695 325 OFFCURVE",
"726 350 OFFCURVE",
"726 386 CURVE SMOOTH",
"726 417 OFFCURVE",
"702 441 OFFCURVE",
"671 441 CURVE SMOOTH",
"638 441 OFFCURVE",
"610 415 OFFCURVE",
"610 379 CURVE SMOOTH",
"610 348 OFFCURVE",
"632 325 OFFCURVE",
"663 325 CURVE SMOOTH"
);
}
);
width = 1019;
},
{
layerId = "474759B3-6A21-45C1-BBBC-641F1925F03A";
paths = (
{
closed = 1;
nodes = (
"48 50 OFFCURVE",
"64 53 OFFCURVE",
"81 60 CURVE SMOOTH",
"150 88 OFFCURVE",
"208 135 OFFCURVE",
"238 204 CURVE",
"321 190 OFFCURVE",
"423 181 OFFCURVE",
"558 181 CURVE SMOOTH",
"766 181 OFFCURVE",
"863 217 OFFCURVE",
"912 242 CURVE SMOOTH",
"949 261 OFFCURVE",
"971 285 OFFCURVE",
"985 309 CURVE SMOOTH",
"999 332 OFFCURVE",
"1006 352 OFFCURVE",
"1006 366 CURVE SMOOTH",
"1006 372 OFFCURVE",
"1003 377 OFFCURVE",
"994 377 CURVE SMOOTH",
"986 377 OFFCURVE",
"984 373 OFFCURVE",
"979 358 CURVE SMOOTH",
"965 316 OFFCURVE",
"936 280 OFFCURVE",
"889 255 CURVE SMOOTH",
"858 239 OFFCURVE",
"744 202 OFFCURVE",
"558 202 CURVE SMOOTH",
"432 202 OFFCURVE",
"328 212 OFFCURVE",
"248 225 CURVE",
"238 248 OFFCURVE",
"221 261 OFFCURVE",
"206 261 CURVE SMOOTH",
"192 261 OFFCURVE",
"182 252 OFFCURVE",
"182 241 CURVE SMOOTH",
"182 228 OFFCURVE",
"195 216 OFFCURVE",
"216 208 CURVE",
"182 140 OFFCURVE",
"133 99 OFFCURVE",
"44 76 CURVE SMOOTH",
"31 73 OFFCURVE",
"25 66 OFFCURVE",
"25 61 CURVE SMOOTH",
"25 56 OFFCURVE",
"27 50 OFFCURVE",
"38 50 CURVE SMOOTH"
);
},
{
closed = 1;
nodes = (
"596 460 OFFCURVE",
"608 468 OFFCURVE",
"608 479 CURVE SMOOTH",
"608 488 OFFCURVE",
"600 494 OFFCURVE",
"590 494 CURVE SMOOTH",
"573 494 OFFCURVE",
"563 485 OFFCURVE",
"563 476 CURVE SMOOTH",
"563 467 OFFCURVE",
"569 460 OFFCURVE",
"583 460 CURVE SMOOTH"
);
},
{
closed = 1;
nodes = (
"499 342 OFFCURVE",
"511 350 OFFCURVE",
"511 361 CURVE SMOOTH",
"511 370 OFFCURVE",
"503 376 OFFCURVE",
"493 376 CURVE SMOOTH",
"476 376 OFFCURVE",
"466 367 OFFCURVE",
"466 358 CURVE SMOOTH",
"466 349 OFFCURVE",
"472 342 OFFCURVE",
"486 342 CURVE SMOOTH"
);
},
{
closed = 1;
nodes = (
"668 342 OFFCURVE",
"680 350 OFFCURVE",
"680 361 CURVE SMOOTH",
"680 370 OFFCURVE",
"672 376 OFFCURVE",
"662 376 CURVE SMOOTH",
"645 376 OFFCURVE",
"635 367 OFFCURVE",
"635 358 CURVE SMOOTH",
"635 349 OFFCURVE",
"641 342 OFFCURVE",
"655 342 CURVE SMOOTH"
);
}
);
width = 1019;
},
{
layerId = "C1B76EF4-5E0A-4C02-BFBB-E14F816E0475";
paths = (
{
closed = 1;
nodes = (
"146 33 OFFCURVE",
"176 48 OFFCURVE",
"222 91 CURVE",
"254 128 OFFCURVE",
"261 145 OFFCURVE",
"273 169 CURVE",
"428 154 OFFCURVE",
"471 151 OFFCURVE",
"568 151 CURVE SMOOTH",
"675 151 OFFCURVE",
"806 151 OFFCURVE",
"908 225 CURVE SMOOTH",
"938 247 OFFCURVE",
"963 277 OFFCURVE",
"979 305 CURVE SMOOTH",
"991 326 OFFCURVE",
"997 348 OFFCURVE",
"997 370 CURVE SMOOTH",
"997 407 OFFCURVE",
"981 432 OFFCURVE",
"936 432 CURVE SMOOTH",
"901 432 OFFCURVE",
"880 412 OFFCURVE",
"861 380 CURVE SMOOTH",
"852 364 OFFCURVE",
"835 334 OFFCURVE",
"809 317 CURVE SMOOTH",
"777 296 OFFCURVE",
"721 284 OFFCURVE",
"543 284 CURVE SMOOTH",
"447 284 OFFCURVE",
"367 285 OFFCURVE",
"296 294 CURVE",
"298 348 OFFCURVE",
"263 409 OFFCURVE",
"193 409 CURVE SMOOTH",
"129 409 OFFCURVE",
"80 350 OFFCURVE",
"80 301 CURVE SMOOTH",
"80 265 OFFCURVE",
"87 239 OFFCURVE",
"147 205 CURVE",
"138 186 OFFCURVE",
"102 164 OFFCURVE",
"85 158 CURVE SMOOTH",
"49 145 OFFCURVE",
"30 125 OFFCURVE",
"30 98 CURVE SMOOTH",
"30 59 OFFCURVE",
"62 33 OFFCURVE",
"111 33 CURVE SMOOTH"
);
},
{
closed = 1;
nodes = (
"607 494 OFFCURVE",
"650 525 OFFCURVE",
"652 571 CURVE SMOOTH",
"654 616 OFFCURVE",
"628 644 OFFCURVE",
"589 647 CURVE SMOOTH",
"547 650 OFFCURVE",
"509 618 OFFCURVE",
"505 572 CURVE SMOOTH",
"501 531 OFFCURVE",
"528 500 OFFCURVE",
"566 497 CURVE SMOOTH"
);
},
{
closed = 1;
nodes = (
"490 342 OFFCURVE",
"533 373 OFFCURVE",
"535 419 CURVE SMOOTH",
"537 464 OFFCURVE",
"513 493 OFFCURVE",
"472 495 CURVE SMOOTH",
"433 497 OFFCURVE",
"392 466 OFFCURVE",
"388 420 CURVE SMOOTH",
"385 380 OFFCURVE",
"411 348 OFFCURVE",
"451 345 CURVE SMOOTH"
);
},
{
closed = 1;
nodes = (
"699 342 OFFCURVE",
"742 373 OFFCURVE",
"744 419 CURVE SMOOTH",
"746 464 OFFCURVE",
"720 492 OFFCURVE",
"681 495 CURVE SMOOTH",
"639 498 OFFCURVE",
"601 466 OFFCURVE",
"597 420 CURVE SMOOTH",
"593 379 OFFCURVE",
"618 348 OFFCURVE",
"658 345 CURVE SMOOTH"
);
}
);
width = 1019;
}
);
unicode = 079D;
category = Letter;
},
{
glyphname = uni079E;
lastChange = "2018-10-11 13:36:43 +0000";
layers = (
{
layerId = UUID0;
paths = (
{
closed = 1;
nodes = (
"92 46 OFFCURVE",
"112 54 OFFCURVE",
"133 66 CURVE SMOOTH",
"178 92 OFFCURVE",
"229 139 OFFCURVE",
"249 185 CURVE",
"318 175 OFFCURVE",
"405 166 OFFCURVE",
"538 166 CURVE SMOOTH",
"688 166 OFFCURVE",
"830 173 OFFCURVE",
"919 235 CURVE SMOOTH",
"944 252 OFFCURVE",
"964 273 OFFCURVE",
"980 300 CURVE SMOOTH",
"992 321 OFFCURVE",
"1000 340 OFFCURVE",
"1000 365 CURVE SMOOTH",
"1000 390 OFFCURVE",
"990 405 OFFCURVE",
"964 405 CURVE SMOOTH",
"938 405 OFFCURVE",
"928 392 OFFCURVE",
"914 363 CURVE SMOOTH",
"898 331 OFFCURVE",
"871 302 OFFCURVE",
"836 286 CURVE SMOOTH",
"793 266 OFFCURVE",
"662 254 OFFCURVE",
"533 254 CURVE SMOOTH",
"425 254 OFFCURVE",
"339 260 OFFCURVE",
"265 271 CURVE",
"261 326 OFFCURVE",
"226 363 OFFCURVE",
"175 363 CURVE SMOOTH",
"131 363 OFFCURVE",
"97 321 OFFCURVE",
"97 284 CURVE SMOOTH",
"97 245 OFFCURVE",
"122 226 OFFCURVE",
"157 207 CURVE",
"149 175 OFFCURVE",
"105 147 OFFCURVE",
"74 135 CURVE SMOOTH",
"42 123 OFFCURVE",
"24 114 OFFCURVE",
"24 89 CURVE SMOOTH",
"24 63 OFFCURVE",
"44 46 OFFCURVE",
"75 46 CURVE SMOOTH"
);
},
{
closed = 1;
nodes = (
"559 0 OFFCURVE",
"586 22 OFFCURVE",
"586 53 CURVE SMOOTH",
"586 80 OFFCURVE",
"565 101 OFFCURVE",
"538 101 CURVE SMOOTH",
"510 101 OFFCURVE",
"485 78 OFFCURVE",
"485 47 CURVE SMOOTH",
"485 20 OFFCURVE",
"504 0 OFFCURVE",
"532 0 CURVE SMOOTH"
);
}
);
width = 1019;
},
{
layerId = "20DCAE03-7ADA-4AB6-8D13-19ECCD31BD40";
paths = (
{
closed = 1;
nodes = (
"124 37 OFFCURVE",
"151 49 OFFCURVE",
"191 84 CURVE SMOOTH",
"231 119 OFFCURVE",
"249 143 OFFCURVE",
"265 177 CURVE",
"404 162 OFFCURVE",
"460 158 OFFCURVE",
"566 158 CURVE SMOOTH",
"695 158 OFFCURVE",
"819 166 OFFCURVE",
"909 229 CURVE SMOOTH",
"940 251 OFFCURVE",
"964 277 OFFCURVE",
"980 305 CURVE SMOOTH",
"992 327 OFFCURVE",
"999 349 OFFCURVE",
"999 369 CURVE SMOOTH",
"999 399 OFFCURVE",
"986 420 OFFCURVE",
"949 420 CURVE SMOOTH",
"920 420 OFFCURVE",
"902 403 OFFCURVE",
"887 375 CURVE SMOOTH",
"876 354 OFFCURVE",
"858 322 OFFCURVE",
"827 303 CURVE SMOOTH",
"795 283 OFFCURVE",
"726 266 OFFCURVE",
"546 266 CURVE SMOOTH",
"444 266 OFFCURVE",
"358 269 OFFCURVE",
"285 279 CURVE",
"285 326 OFFCURVE",
"254 376 OFFCURVE",
"196 376 CURVE SMOOTH",
"143 376 OFFCURVE",
"103 328 OFFCURVE",
"103 288 CURVE SMOOTH",
"103 257 OFFCURVE",
"111 234 OFFCURVE",
"162 206 CURVE",
"148 176 OFFCURVE",
"111 152 OFFCURVE",
"76 140 CURVE SMOOTH",
"45 129 OFFCURVE",
"29 112 OFFCURVE",
"29 90 CURVE SMOOTH",
"29 58 OFFCURVE",
"54 37 OFFCURVE",
"95 37 CURVE SMOOTH"
);
},
{
closed = 1;
nodes = (
"566 -15 OFFCURVE",
"601 13 OFFCURVE",
"601 54 CURVE SMOOTH",
"601 89 OFFCURVE",
"574 116 OFFCURVE",
"539 116 CURVE SMOOTH",
"502 116 OFFCURVE",
"470 86 OFFCURVE",
"470 46 CURVE SMOOTH",
"470 11 OFFCURVE",
"495 -15 OFFCURVE",
"531 -15 CURVE SMOOTH"
);
}
);
width = 1019;
},
{
layerId = "474759B3-6A21-45C1-BBBC-641F1925F03A";
paths = (
{
closed = 1;
nodes = (
"48 50 OFFCURVE",
"64 53 OFFCURVE",
"81 60 CURVE SMOOTH",
"150 88 OFFCURVE",
"208 135 OFFCURVE",
"238 204 CURVE",
"321 190 OFFCURVE",
"423 181 OFFCURVE",
"558 181 CURVE SMOOTH",
"766 181 OFFCURVE",
"863 217 OFFCURVE",
"912 242 CURVE SMOOTH",
"949 261 OFFCURVE",
"971 285 OFFCURVE",
"985 309 CURVE SMOOTH",
"999 332 OFFCURVE",
"1006 352 OFFCURVE",
"1006 366 CURVE SMOOTH",
"1006 372 OFFCURVE",
"1003 377 OFFCURVE",
"994 377 CURVE SMOOTH",
"986 377 OFFCURVE",
"984 373 OFFCURVE",
"979 358 CURVE SMOOTH",
"965 316 OFFCURVE",
"936 280 OFFCURVE",
"889 255 CURVE SMOOTH",
"858 239 OFFCURVE",
"744 202 OFFCURVE",
"558 202 CURVE SMOOTH",
"432 202 OFFCURVE",
"328 212 OFFCURVE",
"248 225 CURVE",
"238 248 OFFCURVE",
"221 261 OFFCURVE",
"206 261 CURVE SMOOTH",
"192 261 OFFCURVE",
"182 252 OFFCURVE",
"182 241 CURVE SMOOTH",
"182 228 OFFCURVE",
"195 216 OFFCURVE",
"216 208 CURVE",
"182 140 OFFCURVE",
"133 99 OFFCURVE",
"44 76 CURVE SMOOTH",
"31 73 OFFCURVE",
"25 66 OFFCURVE",
"25 61 CURVE SMOOTH",
"25 56 OFFCURVE",
"27 50 OFFCURVE",
"38 50 CURVE SMOOTH"
);
},
{
closed = 1;
nodes = (
"547 0 OFFCURVE",
"559 8 OFFCURVE",
"559 19 CURVE SMOOTH",
"559 28 OFFCURVE",
"551 34 OFFCURVE",
"541 34 CURVE SMOOTH",
"524 34 OFFCURVE",
"514 25 OFFCURVE",
"514 16 CURVE SMOOTH",
"514 7 OFFCURVE",
"520 0 OFFCURVE",
"534 0 CURVE SMOOTH"
);
}
);
width = 1019;
},
{
layerId = "C1B76EF4-5E0A-4C02-BFBB-E14F816E0475";
paths = (
{
closed = 1;
nodes = (
"146 33 OFFCURVE",
"176 48 OFFCURVE",
"222 91 CURVE",
"254 128 OFFCURVE",
"261 145 OFFCURVE",
"273 169 CURVE",
"428 154 OFFCURVE",
"471 151 OFFCURVE",
"568 151 CURVE SMOOTH",
"675 151 OFFCURVE",
"806 151 OFFCURVE",
"908 225 CURVE SMOOTH",
"938 247 OFFCURVE",
"963 277 OFFCURVE",
"979 305 CURVE SMOOTH",
"991 326 OFFCURVE",
"997 348 OFFCURVE",
"997 370 CURVE SMOOTH",
"997 407 OFFCURVE",
"981 432 OFFCURVE",
"936 432 CURVE SMOOTH",
"901 432 OFFCURVE",
"880 412 OFFCURVE",
"861 380 CURVE SMOOTH",
"852 364 OFFCURVE",
"835 334 OFFCURVE",
"809 317 CURVE SMOOTH",
"777 296 OFFCURVE",
"721 284 OFFCURVE",
"543 284 CURVE SMOOTH",
"447 284 OFFCURVE",
"367 285 OFFCURVE",
"296 294 CURVE",
"298 348 OFFCURVE",
"263 409 OFFCURVE",
"193 409 CURVE SMOOTH",
"129 409 OFFCURVE",
"80 350 OFFCURVE",
"80 301 CURVE SMOOTH",
"80 265 OFFCURVE",
"87 239 OFFCURVE",
"147 205 CURVE",
"138 186 OFFCURVE",
"102 164 OFFCURVE",
"85 158 CURVE SMOOTH",
"49 145 OFFCURVE",
"30 125 OFFCURVE",
"30 98 CURVE SMOOTH",
"30 59 OFFCURVE",
"62 33 OFFCURVE",
"111 33 CURVE SMOOTH"
);
},
{
closed = 1;
nodes = (
"571 -57 OFFCURVE",
"613 -24 OFFCURVE",
"613 26 CURVE SMOOTH",
"613 68 OFFCURVE",
"581 101 OFFCURVE",
"538 101 CURVE SMOOTH",
"496 101 OFFCURVE",
"457 65 OFFCURVE",
"457 17 CURVE SMOOTH",
"457 -26 OFFCURVE",
"488 -57 OFFCURVE",
"530 -57 CURVE SMOOTH"
);
}
);
width = 1019;
}
);
unicode = 079E;
category = Letter;
},
{
glyphname = uni079F;
lastChange = "2018-10-11 13:36:43 +0000";
layers = (
{
layerId = UUID0;
paths = (
{
closed = 1;
nodes = (
"92 46 OFFCURVE",
"112 54 OFFCURVE",
"133 66 CURVE SMOOTH",
"178 92 OFFCURVE",
"229 139 OFFCURVE",
"249 185 CURVE",
"318 175 OFFCURVE",
"405 166 OFFCURVE",
"538 166 CURVE SMOOTH",
"688 166 OFFCURVE",
"830 173 OFFCURVE",
"919 235 CURVE SMOOTH",
"944 252 OFFCURVE",
"964 273 OFFCURVE",
"980 300 CURVE SMOOTH",
"992 321 OFFCURVE",
"1000 340 OFFCURVE",
"1000 365 CURVE SMOOTH",
"1000 390 OFFCURVE",
"990 405 OFFCURVE",
"964 405 CURVE SMOOTH",
"938 405 OFFCURVE",
"928 392 OFFCURVE",
"914 363 CURVE SMOOTH",
"898 331 OFFCURVE",
"871 302 OFFCURVE",
"836 286 CURVE SMOOTH",
"793 266 OFFCURVE",
"662 254 OFFCURVE",
"533 254 CURVE SMOOTH",
"425 254 OFFCURVE",
"339 260 OFFCURVE",
"265 271 CURVE",
"261 326 OFFCURVE",
"226 363 OFFCURVE",
"175 363 CURVE SMOOTH",
"131 363 OFFCURVE",
"97 321 OFFCURVE",
"97 284 CURVE SMOOTH",
"97 245 OFFCURVE",
"122 226 OFFCURVE",
"157 207 CURVE",
"149 175 OFFCURVE",
"105 147 OFFCURVE",
"74 135 CURVE SMOOTH",
"42 123 OFFCURVE",
"24 114 OFFCURVE",
"24 89 CURVE SMOOTH",
"24 63 OFFCURVE",
"44 46 OFFCURVE",
"75 46 CURVE SMOOTH"
);
},
{
closed = 1;
nodes = (
"598 333 OFFCURVE",
"625 355 OFFCURVE",
"625 385 CURVE SMOOTH",
"625 412 OFFCURVE",
"604 434 OFFCURVE",
"577 434 CURVE SMOOTH",
"549 434 OFFCURVE",
"524 411 OFFCURVE",
"524 380 CURVE SMOOTH",
"524 353 OFFCURVE",
"543 333 OFFCURVE",
"571 333 CURVE SMOOTH"
);
}
);
width = 1019;
},
{
layerId = "20DCAE03-7ADA-4AB6-8D13-19ECCD31BD40";
paths = (
{
closed = 1;
nodes = (
"124 37 OFFCURVE",
"151 49 OFFCURVE",
"191 84 CURVE SMOOTH",
"231 119 OFFCURVE",
"249 143 OFFCURVE",
"265 177 CURVE",
"404 162 OFFCURVE",
"460 158 OFFCURVE",
"566 158 CURVE SMOOTH",
"695 158 OFFCURVE",
"819 166 OFFCURVE",
"909 229 CURVE SMOOTH",
"940 251 OFFCURVE",
"964 277 OFFCURVE",
"980 305 CURVE SMOOTH",
"992 327 OFFCURVE",
"999 349 OFFCURVE",
"999 369 CURVE SMOOTH",
"999 399 OFFCURVE",
"986 420 OFFCURVE",
"949 420 CURVE SMOOTH",
"920 420 OFFCURVE",
"902 403 OFFCURVE",
"887 375 CURVE SMOOTH",
"876 354 OFFCURVE",
"858 322 OFFCURVE",
"827 303 CURVE SMOOTH",
"795 283 OFFCURVE",
"726 266 OFFCURVE",
"546 266 CURVE SMOOTH",
"444 266 OFFCURVE",
"358 269 OFFCURVE",
"285 279 CURVE",
"285 326 OFFCURVE",
"254 376 OFFCURVE",
"196 376 CURVE SMOOTH",
"143 376 OFFCURVE",
"103 328 OFFCURVE",
"103 288 CURVE SMOOTH",
"103 257 OFFCURVE",
"111 234 OFFCURVE",
"162 206 CURVE",
"148 176 OFFCURVE",
"111 152 OFFCURVE",
"76 140 CURVE SMOOTH",
"45 129 OFFCURVE",
"29 112 OFFCURVE",
"29 90 CURVE SMOOTH",
"29 58 OFFCURVE",
"54 37 OFFCURVE",
"95 37 CURVE SMOOTH"
);
},
{
closed = 1;
nodes = (
"605 318 OFFCURVE",
"640 346 OFFCURVE",
"640 385 CURVE SMOOTH",
"640 421 OFFCURVE",
"613 449 OFFCURVE",
"578 449 CURVE SMOOTH",
"541 449 OFFCURVE",
"509 419 OFFCURVE",
"509 379 CURVE SMOOTH",
"509 344 OFFCURVE",
"534 318 OFFCURVE",
"570 318 CURVE SMOOTH"
);
}
);
width = 1019;
},
{
layerId = "474759B3-6A21-45C1-BBBC-641F1925F03A";
paths = (
{
closed = 1;
nodes = (
"48 50 OFFCURVE",
"64 53 OFFCURVE",
"81 60 CURVE SMOOTH",
"150 88 OFFCURVE",
"208 135 OFFCURVE",
"238 204 CURVE",
"321 190 OFFCURVE",
"423 181 OFFCURVE",
"558 181 CURVE SMOOTH",
"766 181 OFFCURVE",
"863 217 OFFCURVE",
"912 242 CURVE SMOOTH",
"949 261 OFFCURVE",
"971 285 OFFCURVE",
"985 309 CURVE SMOOTH",
"999 332 OFFCURVE",
"1006 352 OFFCURVE",
"1006 366 CURVE SMOOTH",
"1006 372 OFFCURVE",
"1003 377 OFFCURVE",
"994 377 CURVE SMOOTH",
"986 377 OFFCURVE",
"984 373 OFFCURVE",
"979 358 CURVE SMOOTH",
"965 316 OFFCURVE",
"936 280 OFFCURVE",
"889 255 CURVE SMOOTH",
"858 239 OFFCURVE",
"744 202 OFFCURVE",
"558 202 CURVE SMOOTH",
"432 202 OFFCURVE",
"328 212 OFFCURVE",
"248 225 CURVE",
"238 248 OFFCURVE",
"221 261 OFFCURVE",
"206 261 CURVE SMOOTH",
"192 261 OFFCURVE",
"182 252 OFFCURVE",
"182 241 CURVE SMOOTH",
"182 228 OFFCURVE",
"195 216 OFFCURVE",
"216 208 CURVE",
"182 140 OFFCURVE",
"133 99 OFFCURVE",
"44 76 CURVE SMOOTH",
"31 73 OFFCURVE",
"25 66 OFFCURVE",
"25 61 CURVE SMOOTH",
"25 56 OFFCURVE",
"27 50 OFFCURVE",
"38 50 CURVE SMOOTH"
);
},
{
closed = 1;
nodes = (
"592 381 OFFCURVE",
"604 389 OFFCURVE",
"604 400 CURVE SMOOTH",
"604 409 OFFCURVE",
"596 415 OFFCURVE",
"586 415 CURVE SMOOTH",
"569 415 OFFCURVE",
"559 406 OFFCURVE",
"559 397 CURVE SMOOTH",
"559 388 OFFCURVE",
"565 381 OFFCURVE",
"579 381 CURVE SMOOTH"
);
}
);
width = 1019;
},
{
layerId = "C1B76EF4-5E0A-4C02-BFBB-E14F816E0475";
paths = (
{
closed = 1;
nodes = (
"146 33 OFFCURVE",
"176 48 OFFCURVE",
"222 91 CURVE",
"254 128 OFFCURVE",
"261 145 OFFCURVE",
"273 169 CURVE",
"428 154 OFFCURVE",
"471 151 OFFCURVE",
"568 151 CURVE SMOOTH",
"675 151 OFFCURVE",
"806 151 OFFCURVE",
"908 225 CURVE SMOOTH",
"938 247 OFFCURVE",
"963 277 OFFCURVE",
"979 305 CURVE SMOOTH",
"991 326 OFFCURVE",
"997 348 OFFCURVE",
"997 370 CURVE SMOOTH",
"997 407 OFFCURVE",
"981 432 OFFCURVE",
"936 432 CURVE SMOOTH",
"901 432 OFFCURVE",
"880 412 OFFCURVE",
"861 380 CURVE SMOOTH",
"852 364 OFFCURVE",
"835 334 OFFCURVE",
"809 317 CURVE SMOOTH",
"777 296 OFFCURVE",
"721 284 OFFCURVE",
"543 284 CURVE SMOOTH",
"447 284 OFFCURVE",
"367 285 OFFCURVE",
"296 294 CURVE",
"298 348 OFFCURVE",
"263 409 OFFCURVE",
"193 409 CURVE SMOOTH",
"129 409 OFFCURVE",
"80 350 OFFCURVE",
"80 301 CURVE SMOOTH",
"80 265 OFFCURVE",
"87 239 OFFCURVE",
"147 205 CURVE",
"138 186 OFFCURVE",
"102 164 OFFCURVE",
"85 158 CURVE SMOOTH",
"49 145 OFFCURVE",
"30 125 OFFCURVE",
"30 98 CURVE SMOOTH",
"30 59 OFFCURVE",
"62 33 OFFCURVE",
"111 33 CURVE SMOOTH"
);
},
{
closed = 1;
nodes = (
"590 355 OFFCURVE",
"631 389 OFFCURVE",
"631 436 CURVE SMOOTH",
"631 479 OFFCURVE",
"599 514 OFFCURVE",
"557 514 CURVE SMOOTH",
"514 514 OFFCURVE",
"476 478 OFFCURVE",
"476 429 CURVE SMOOTH",
"476 386 OFFCURVE",
"506 355 OFFCURVE",
"548 355 CURVE SMOOTH"
);
}
);
width = 1019;
}
);
unicode = 079F;
category = Letter;
},
{
glyphname = uni07A0;
lastChange = "2018-10-11 13:36:43 +0000";
layers = (
{
layerId = UUID0;
paths = (
{
closed = 1;
nodes = (
"173 -44 OFFCURVE",
"296 5 OFFCURVE",
"296 81 CURVE SMOOTH",
"296 106 OFFCURVE",
"281 125 OFFCURVE",
"266 140 CURVE SMOOTH",
"252 154 OFFCURVE",
"239 164 OFFCURVE",
"239 171 CURVE SMOOTH",
"239 181 OFFCURVE",
"257 194 OFFCURVE",
"278 208 CURVE",
"322 168 OFFCURVE",
"380 153 OFFCURVE",
"415 153 CURVE SMOOTH",
"492 153 OFFCURVE",
"587 205 OFFCURVE",
"587 300 CURVE SMOOTH",
"587 357 OFFCURVE",
"560 391 OFFCURVE",
"499 391 CURVE SMOOTH",
"372 391 OFFCURVE",
"140 241 OFFCURVE",
"140 151 CURVE SMOOTH",
"140 137 OFFCURVE",
"157 127 OFFCURVE",
"172 116 CURVE SMOOTH",
"185 106 OFFCURVE",
"196 97 OFFCURVE",
"196 84 CURVE SMOOTH",
"196 55 OFFCURVE",
"150 43 OFFCURVE",
"94 43 CURVE SMOOTH",
"82 43 OFFCURVE",
"64 46 OFFCURVE",
"52 50 CURVE SMOOTH",
"41 54 OFFCURVE",
"31 57 OFFCURVE",
"17 57 CURVE SMOOTH",
"-12 57 OFFCURVE",
"-24 38 OFFCURVE",
"-24 10 CURVE SMOOTH",
"-24 -8 OFFCURVE",
"-12 -22 OFFCURVE",
"6 -30 CURVE SMOOTH",
"29 -40 OFFCURVE",
"60 -44 OFFCURVE",
"91 -44 CURVE SMOOTH"
);
},
{
closed = 1;
nodes = (
"395 236 OFFCURVE",
"375 245 OFFCURVE",
"358 258 CURVE",
"408 287 OFFCURVE",
"462 310 OFFCURVE",
"478 310 CURVE SMOOTH",
"488 310 OFFCURVE",
"494 308 OFFCURVE",
"494 297 CURVE SMOOTH",
"494 264 OFFCURVE",
"475 236 OFFCURVE",
"420 236 CURVE SMOOTH"
);
},
{
closed = 1;
nodes = (
"430 -61 OFFCURVE",
"457 -39 OFFCURVE",
"457 -8 CURVE SMOOTH",
"457 19 OFFCURVE",
"436 40 OFFCURVE",
"409 40 CURVE SMOOTH",
"381 40 OFFCURVE",
"356 17 OFFCURVE",
"356 -14 CURVE SMOOTH",
"356 -41 OFFCURVE",
"375 -61 OFFCURVE",
"403 -61 CURVE SMOOTH"
);
}
);
width = 649;
},
{
layerId = "20DCAE03-7ADA-4AB6-8D13-19ECCD31BD40";
paths = (
{
closed = 1;
nodes = (
"209 -44 OFFCURVE",
"308 7 OFFCURVE",
"308 80 CURVE SMOOTH",
"308 103 OFFCURVE",
"292 121 OFFCURVE",
"270 141 CURVE SMOOTH",
"253 157 OFFCURVE",
"242 168 OFFCURVE",
"242 171 CURVE SMOOTH",
"242 177 OFFCURVE",
"257 194 OFFCURVE",
"269 204 CURVE",
"295 173 OFFCURVE",
"360 145 OFFCURVE",
"414 145 CURVE SMOOTH",
"502 145 OFFCURVE",
"597 208 OFFCURVE",
"597 305 CURVE SMOOTH",
"597 369 OFFCURVE",
"549 405 OFFCURVE",
"478 405 CURVE SMOOTH",
"367 405 OFFCURVE",
"133 276 OFFCURVE",
"133 163 CURVE SMOOTH",
"133 151 OFFCURVE",
"140 136 OFFCURVE",
"164 120 CURVE SMOOTH",
"178 110 OFFCURVE",
"188 101 OFFCURVE",
"188 94 CURVE SMOOTH",
"188 72 OFFCURVE",
"164 61 OFFCURVE",
"110 61 CURVE SMOOTH",
"94 61 OFFCURVE",
"80 66 OFFCURVE",
"64 70 CURVE SMOOTH",
"54 73 OFFCURVE",
"43 75 OFFCURVE",
"32 75 CURVE SMOOTH",
"-8 75 OFFCURVE",
"-24 54 OFFCURVE",
"-24 20 CURVE SMOOTH",
"-24 -8 OFFCURVE",
"-2 -28 OFFCURVE",
"39 -37 CURVE SMOOTH",
"58 -41 OFFCURVE",
"81 -44 OFFCURVE",
"107 -44 CURVE SMOOTH"
);
},
{
closed = 1;
nodes = (
"372 240 OFFCURVE",
"347 247 OFFCURVE",
"325 263 CURVE",
"360 284 OFFCURVE",
"417 315 OFFCURVE",
"458 315 CURVE SMOOTH",
"465 315 OFFCURVE",
"475 311 OFFCURVE",
"475 304 CURVE SMOOTH",
"475 264 OFFCURVE",
"441 240 OFFCURVE",
"393 240 CURVE SMOOTH"
);
},
{
closed = 1;
nodes = (
"437 -76 OFFCURVE",
"472 -48 OFFCURVE",
"472 -7 CURVE SMOOTH",
"472 28 OFFCURVE",
"445 55 OFFCURVE",
"410 55 CURVE SMOOTH",
"373 55 OFFCURVE",
"341 25 OFFCURVE",
"341 -15 CURVE SMOOTH",
"341 -50 OFFCURVE",
"366 -76 OFFCURVE",
"402 -76 CURVE SMOOTH"
);
}
);
width = 657;
},
{
layerId = "474759B3-6A21-45C1-BBBC-641F1925F03A";
paths = (
{
closed = 1;
nodes = (
"172 -48 OFFCURVE",
"288 -8 OFFCURVE",
"288 56 CURVE SMOOTH",
"288 75 OFFCURVE",
"276 93 OFFCURVE",
"232 114 CURVE SMOOTH",
"212 123 OFFCURVE",
"185 135 OFFCURVE",
"185 150 CURVE SMOOTH",
"185 182 OFFCURVE",
"235 220 OFFCURVE",
"281 249 CURVE",
"331 198 OFFCURVE",
"401 169 OFFCURVE",
"459 169 CURVE SMOOTH",
"533 169 OFFCURVE",
"606 218 OFFCURVE",
"606 295 CURVE SMOOTH",
"606 336 OFFCURVE",
"582 361 OFFCURVE",
"520 361 CURVE SMOOTH",
"398 361 OFFCURVE",
"162 227 OFFCURVE",
"162 146 CURVE SMOOTH",
"162 132 OFFCURVE",
"172 118 OFFCURVE",
"208 102 CURVE SMOOTH",
"246 85 OFFCURVE",
"266 73 OFFCURVE",
"266 53 CURVE SMOOTH",
"266 0 OFFCURVE",
"154 -25 OFFCURVE",
"97 -25 CURVE SMOOTH",
"74 -25 OFFCURVE",
"49 -21 OFFCURVE",
"35 -18 CURVE SMOOTH",
"19 -15 OFFCURVE",
"7 -8 OFFCURVE",
"-3 -8 CURVE SMOOTH",
"-12 -8 OFFCURVE",
"-17 -13 OFFCURVE",
"-17 -21 CURVE SMOOTH",
"-17 -28 OFFCURVE",
"-11 -35 OFFCURVE",
"4 -39 CURVE SMOOTH",
"22 -44 OFFCURVE",
"51 -48 OFFCURVE",
"91 -48 CURVE SMOOTH"
);
},
{
closed = 1;
nodes = (
"405 192 OFFCURVE",
"347 220 OFFCURVE",
"300 262 CURVE",
"384 311 OFFCURVE",
"474 338 OFFCURVE",
"518 338 CURVE SMOOTH",
"558 338 OFFCURVE",
"583 328 OFFCURVE",
"583 291 CURVE SMOOTH",
"583 238 OFFCURVE",
"522 192 OFFCURVE",
"459 192 CURVE SMOOTH"
);
},
{
closed = 1;
nodes = (
"418 -61 OFFCURVE",
"430 -53 OFFCURVE",
"430 -42 CURVE SMOOTH",
"430 -33 OFFCURVE",
"422 -27 OFFCURVE",
"412 -27 CURVE SMOOTH",
"395 -27 OFFCURVE",
"385 -36 OFFCURVE",
"385 -45 CURVE SMOOTH",
"385 -54 OFFCURVE",
"391 -61 OFFCURVE",
"405 -61 CURVE SMOOTH"
);
}
);
width = 649;
},
{
layerId = "C1B76EF4-5E0A-4C02-BFBB-E14F816E0475";
paths = (
{
closed = 1;
nodes = (
"220 -43 OFFCURVE",
"314 11 OFFCURVE",
"314 87 CURVE SMOOTH",
"314 111 OFFCURVE",
"301 125 OFFCURVE",
"285 144 CURVE SMOOTH",
"270 161 OFFCURVE",
"258 175 OFFCURVE",
"258 177 CURVE SMOOTH",
"258 184 OFFCURVE",
"262 188 OFFCURVE",
"266 191 CURVE",
"294 168 OFFCURVE",
"348 138 OFFCURVE",
"401 138 CURVE SMOOTH",
"498 138 OFFCURVE",
"604 205 OFFCURVE",
"604 308 CURVE SMOOTH",
"604 378 OFFCURVE",
"550 418 OFFCURVE",
"476 418 CURVE SMOOTH",
"365 418 OFFCURVE",
"125 290 OFFCURVE",
"125 168 CURVE SMOOTH",
"125 152 OFFCURVE",
"133 141 OFFCURVE",
"152 124 CURVE SMOOTH",
"161 116 OFFCURVE",
"166 108 OFFCURVE",
"166 102 CURVE SMOOTH",
"166 92 OFFCURVE",
"154 86 OFFCURVE",
"124 86 CURVE SMOOTH",
"110 86 OFFCURVE",
"89 91 OFFCURVE",
"78 93 CURVE SMOOTH",
"64 96 OFFCURVE",
"47 99 OFFCURVE",
"28 99 CURVE SMOOTH",
"-20 99 OFFCURVE",
"-36 73 OFFCURVE",
"-36 32 CURVE SMOOTH",
"-36 -2 OFFCURVE",
"-5 -26 OFFCURVE",
"41 -35 CURVE SMOOTH",
"68 -40 OFFCURVE",
"90 -43 OFFCURVE",
"112 -43 CURVE SMOOTH"
);
},
{
closed = 1;
nodes = (
"363 254 OFFCURVE",
"347 257 OFFCURVE",
"332 263 CURVE",
"353 276 OFFCURVE",
"406 309 OFFCURVE",
"442 309 CURVE SMOOTH",
"453 309 OFFCURVE",
"459 305 OFFCURVE",
"459 297 CURVE SMOOTH",
"459 274 OFFCURVE",
"425 254 OFFCURVE",
"374 254 CURVE SMOOTH"
);
},
{
closed = 1;
nodes = (
"462 -90 OFFCURVE",
"504 -57 OFFCURVE",
"504 -7 CURVE SMOOTH",
"504 35 OFFCURVE",
"472 68 OFFCURVE",
"429 68 CURVE SMOOTH",
"387 68 OFFCURVE",
"348 32 OFFCURVE",
"348 -16 CURVE SMOOTH",
"348 -59 OFFCURVE",
"379 -90 OFFCURVE",
"421 -90 CURVE SMOOTH"
);
}
);
width = 659;
}
);
unicode = 07A0;
category = Letter;
},
